<svg version="1.1" xmlns="http://www.w3.org/2000/svg" xmlns:xlink="http://www.w3.org/1999/xlink" width="835.853515625" height="536"><defs/><g><text fill="#eeeeee" stroke="none" font-family="Arial" font-size="24px" font-style="normal" font-weight="normal" text-decoration="none" x="0" y="0">UNREGISTERED</text><text fill="#eeeeee" stroke="none" font-family="Arial" font-size="24px" font-style="normal" font-weight="normal" text-decoration="none" x="0" y="30">UNREGISTERED</text><text fill="#eeeeee" stroke="none" font-family="Arial" font-size="24px" font-style="normal" font-weight="normal" text-decoration="none" x="0" y="60">UNREGISTERED</text><text fill="#eeeeee" stroke="none" font-family="Arial" font-size="24px" font-style="normal" font-weight="normal" text-decoration="none" x="0" y="90">UNREGISTERED</text><text fill="#eeeeee" stroke="none" font-family="Arial" font-size="24px" font-style="normal" font-weight="normal" text-decoration="none" x="0" y="120">UNREGISTERED</text><text fill="#eeeeee" stroke="none" font-family="Arial" font-size="24px" font-style="normal" font-weight="normal" text-decoration="none" x="0" y="150">UNREGISTERED</text><text fill="#eeeeee" stroke="none" font-family="Arial" font-size="24px" font-style="normal" font-weight="normal" text-decoration="none" x="0" y="180">UNREGISTERED</text><text fill="#eeeeee" stroke="none" font-family="Arial" font-size="24px" font-style="normal" font-weight="normal" text-decoration="none" x="0" y="210">UNREGISTERED</text><text fill="#eeeeee" stroke="none" font-family="Arial" font-size="24px" font-style="normal" font-weight="normal" text-decoration="none" x="0" y="240">UNREGISTERED</text><text fill="#eeeeee" stroke="none" font-family="Arial" font-size="24px" font-style="normal" font-weight="normal" text-decoration="none" x="0" y="270">UNREGISTERED</text><text fill="#eeeeee" stroke="none" font-family="Arial" font-size="24px" font-style="normal" font-weight="normal" text-decoration="none" x="0" y="300">UNREGISTERED</text><text fill="#eeeeee" stroke="none" font-family="Arial" font-size="24px" font-style="normal" font-weight="normal" text-decoration="none" x="0" y="330">UNREGISTERED</text><text fill="#eeeeee" stroke="none" font-family="Arial" font-size="24px" font-style="normal" font-weight="normal" text-decoration="none" x="0" y="360">UNREGISTERED</text><text fill="#eeeeee" stroke="none" font-family="Arial" font-size="24px" font-style="normal" font-weight="normal" text-decoration="none" x="0" y="390">UNREGISTERED</text><text fill="#eeeeee" stroke="none" font-family="Arial" font-size="24px" font-style="normal" font-weight="normal" text-decoration="none" x="0" y="420">UNREGISTERED</text><text fill="#eeeeee" stroke="none" font-family="Arial" font-size="24px" font-style="normal" font-weight="normal" text-decoration="none" x="0" y="450">UNREGISTERED</text><text fill="#eeeeee" stroke="none" font-family="Arial" font-size="24px" font-style="normal" font-weight="normal" text-decoration="none" x="0" y="480">UNREGISTERED</text><text fill="#eeeeee" stroke="none" font-family="Arial" font-size="24px" font-style="normal" font-weight="normal" text-decoration="none" x="0" y="510">UNREGISTERED</text><text fill="#eeeeee" stroke="none" font-family="Arial" font-size="24px" font-style="normal" font-weight="normal" text-decoration="none" x="200" y="0">UNREGISTERED</text><text fill="#eeeeee" stroke="none" font-family="Arial" font-size="24px" font-style="normal" font-weight="normal" text-decoration="none" x="200" y="30">UNREGISTERED</text><text fill="#eeeeee" stroke="none" font-family="Arial" font-size="24px" font-style="normal" font-weight="normal" text-decoration="none" x="200" y="60">UNREGISTERED</text><text fill="#eeeeee" stroke="none" font-family="Arial" font-size="24px" font-style="normal" font-weight="normal" text-decoration="none" x="200" y="90">UNREGISTERED</text><text fill="#eeeeee" stroke="none" font-family="Arial" font-size="24px" font-style="normal" font-weight="normal" text-decoration="none" x="200" y="120">UNREGISTERED</text><text fill="#eeeeee" stroke="none" font-family="Arial" font-size="24px" font-style="normal" font-weight="normal" text-decoration="none" x="200" y="150">UNREGISTERED</text><text fill="#eeeeee" stroke="none" font-family="Arial" font-size="24px" font-style="normal" font-weight="normal" text-decoration="none" x="200" y="180">UNREGISTERED</text><text fill="#eeeeee" stroke="none" font-family="Arial" font-size="24px" font-style="normal" font-weight="normal" text-decoration="none" x="200" y="210">UNREGISTERED</text><text fill="#eeeeee" stroke="none" font-family="Arial" font-size="24px" font-style="normal" font-weight="normal" text-decoration="none" x="200" y="240">UNREGISTERED</text><text fill="#eeeeee" stroke="none" font-family="Arial" font-size="24px" font-style="normal" font-weight="normal" text-decoration="none" x="200" y="270">UNREGISTERED</text><text fill="#eeeeee" stroke="none" font-family="Arial" font-size="24px" font-style="normal" font-weight="normal" text-decoration="none" x="200" y="300">UNREGISTERED</text><text fill="#eeeeee" stroke="none" font-family="Arial" font-size="24px" font-style="normal" font-weight="normal" text-decoration="none" x="200" y="330">UNREGISTERED</text><text fill="#eeeeee" stroke="none" font-family="Arial" font-size="24px" font-style="normal" font-weight="normal" text-decoration="none" x="200" y="360">UNREGISTERED</text><text fill="#eeeeee" stroke="none" font-family="Arial" font-size="24px" font-style="normal" font-weight="normal" text-decoration="none" x="200" y="390">UNREGISTERED</text><text fill="#eeeeee" stroke="none" font-family="Arial" font-size="24px" font-style="normal" font-weight="normal" text-decoration="none" x="200" y="420">UNREGISTERED</text><text fill="#eeeeee" stroke="none" font-family="Arial" font-size="24px" font-style="normal" font-weight="normal" text-decoration="none" x="200" y="450">UNREGISTERED</text><text fill="#eeeeee" stroke="none" font-family="Arial" font-size="24px" font-style="normal" font-weight="normal" text-decoration="none" x="200" y="480">UNREGISTERED</text><text fill="#eeeeee" stroke="none" font-family="Arial" font-size="24px" font-style="normal" font-weight="normal" text-decoration="none" x="200" y="510">UNREGISTERED</text><text fill="#eeeeee" stroke="none" font-family="Arial" font-size="24px" font-style="normal" font-weight="normal" text-decoration="none" x="400" y="0">UNREGISTERED</text><text fill="#eeeeee" stroke="none" font-family="Arial" font-size="24px" font-style="normal" font-weight="normal" text-decoration="none" x="400" y="30">UNREGISTERED</text><text fill="#eeeeee" stroke="none" font-family="Arial" font-size="24px" font-style="normal" font-weight="normal" text-decoration="none" x="400" y="60">UNREGISTERED</text><text fill="#eeeeee" stroke="none" font-family="Arial" font-size="24px" font-style="normal" font-weight="normal" text-decoration="none" x="400" y="90">UNREGISTERED</text><text fill="#eeeeee" stroke="none" font-family="Arial" font-size="24px" font-style="normal" font-weight="normal" text-decoration="none" x="400" y="120">UNREGISTERED</text><text fill="#eeeeee" stroke="none" font-family="Arial" font-size="24px" font-style="normal" font-weight="normal" text-decoration="none" x="400" y="150">UNREGISTERED</text><text fill="#eeeeee" stroke="none" font-family="Arial" font-size="24px" font-style="normal" font-weight="normal" text-decoration="none" x="400" y="180">UNREGISTERED</text><text fill="#eeeeee" stroke="none" font-family="Arial" font-size="24px" font-style="normal" font-weight="normal" text-decoration="none" x="400" y="210">UNREGISTERED</text><text fill="#eeeeee" stroke="none" font-family="Arial" font-size="24px" font-style="normal" font-weight="normal" text-decoration="none" x="400" y="240">UNREGISTERED</text><text fill="#eeeeee" stroke="none" font-family="Arial" font-size="24px" font-style="normal" font-weight="normal" text-decoration="none" x="400" y="270">UNREGISTERED</text><text fill="#eeeeee" stroke="none" font-family="Arial" font-size="24px" font-style="normal" font-weight="normal" text-decoration="none" x="400" y="300">UNREGISTERED</text><text fill="#eeeeee" stroke="none" font-family="Arial" font-size="24px" font-style="normal" font-weight="normal" text-decoration="none" x="400" y="330">UNREGISTERED</text><text fill="#eeeeee" stroke="none" font-family="Arial" font-size="24px" font-style="normal" font-weight="normal" text-decoration="none" x="400" y="360">UNREGISTERED</text><text fill="#eeeeee" stroke="none" font-family="Arial" font-size="24px" font-style="normal" font-weight="normal" text-decoration="none" x="400" y="390">UNREGISTERED</text><text fill="#eeeeee" stroke="none" font-family="Arial" font-size="24px" font-style="normal" font-weight="normal" text-decoration="none" x="400" y="420">UNREGISTERED</text><text fill="#eeeeee" stroke="none" font-family="Arial" font-size="24px" font-style="normal" font-weight="normal" text-decoration="none" x="400" y="450">UNREGISTERED</text><text fill="#eeeeee" stroke="none" font-family="Arial" font-size="24px" font-style="normal" font-weight="normal" text-decoration="none" x="400" y="480">UNREGISTERED</text><text fill="#eeeeee" stroke="none" font-family="Arial" font-size="24px" font-style="normal" font-weight="normal" text-decoration="none" x="400" y="510">UNREGISTERED</text><text fill="#eeeeee" stroke="none" font-family="Arial" font-size="24px" font-style="normal" font-weight="normal" text-decoration="none" x="600" y="0">UNREGISTERED</text><text fill="#eeeeee" stroke="none" font-family="Arial" font-size="24px" font-style="normal" font-weight="normal" text-decoration="none" x="600" y="30">UNREGISTERED</text><text fill="#eeeeee" stroke="none" font-family="Arial" font-size="24px" font-style="normal" font-weight="normal" text-decoration="none" x="600" y="60">UNREGISTERED</text><text fill="#eeeeee" stroke="none" font-family="Arial" font-size="24px" font-style="normal" font-weight="normal" text-decoration="none" x="600" y="90">UNREGISTERED</text><text fill="#eeeeee" stroke="none" font-family="Arial" font-size="24px" font-style="normal" font-weight="normal" text-decoration="none" x="600" y="120">UNREGISTERED</text><text fill="#eeeeee" stroke="none" font-family="Arial" font-size="24px" font-style="normal" font-weight="normal" text-decoration="none" x="600" y="150">UNREGISTERED</text><text fill="#eeeeee" stroke="none" font-family="Arial" font-size="24px" font-style="normal" font-weight="normal" text-decoration="none" x="600" y="180">UNREGISTERED</text><text fill="#eeeeee" stroke="none" font-family="Arial" font-size="24px" font-style="normal" font-weight="normal" text-decoration="none" x="600" y="210">UNREGISTERED</text><text fill="#eeeeee" stroke="none" font-family="Arial" font-size="24px" font-style="normal" font-weight="normal" text-decoration="none" x="600" y="240">UNREGISTERED</text><text fill="#eeeeee" stroke="none" font-family="Arial" font-size="24px" font-style="normal" font-weight="normal" text-decoration="none" x="600" y="270">UNREGISTERED</text><text fill="#eeeeee" stroke="none" font-family="Arial" font-size="24px" font-style="normal" font-weight="normal" text-decoration="none" x="600" y="300">UNREGISTERED</text><text fill="#eeeeee" stroke="none" font-family="Arial" font-size="24px" font-style="normal" font-weight="normal" text-decoration="none" x="600" y="330">UNREGISTERED</text><text fill="#eeeeee" stroke="none" font-family="Arial" font-size="24px" font-style="normal" font-weight="normal" text-decoration="none" x="600" y="360">UNREGISTERED</text><text fill="#eeeeee" stroke="none" font-family="Arial" font-size="24px" font-style="normal" font-weight="normal" text-decoration="none" x="600" y="390">UNREGISTERED</text><text fill="#eeeeee" stroke="none" font-family="Arial" font-size="24px" font-style="normal" font-weight="normal" text-decoration="none" x="600" y="420">UNREGISTERED</text><text fill="#eeeeee" stroke="none" font-family="Arial" font-size="24px" font-style="normal" font-weight="normal" text-decoration="none" x="600" y="450">UNREGISTERED</text><text fill="#eeeeee" stroke="none" font-family="Arial" font-size="24px" font-style="normal" font-weight="normal" text-decoration="none" x="600" y="480">UNREGISTERED</text><text fill="#eeeeee" stroke="none" font-family="Arial" font-size="24px" font-style="normal" font-weight="normal" text-decoration="none" x="600" y="510">UNREGISTERED</text><text fill="#eeeeee" stroke="none" font-family="Arial" font-size="24px" font-style="normal" font-weight="normal" text-decoration="none" x="800" y="0">UNREGISTERED</text><text fill="#eeeeee" stroke="none" font-family="Arial" font-size="24px" font-style="normal" font-weight="normal" text-decoration="none" x="800" y="30">UNREGISTERED</text><text fill="#eeeeee" stroke="none" font-family="Arial" font-size="24px" font-style="normal" font-weight="normal" text-decoration="none" x="800" y="60">UNREGISTERED</text><text fill="#eeeeee" stroke="none" font-family="Arial" font-size="24px" font-style="normal" font-weight="normal" text-decoration="none" x="800" y="90">UNREGISTERED</text><text fill="#eeeeee" stroke="none" font-family="Arial" font-size="24px" font-style="normal" font-weight="normal" text-decoration="none" x="800" y="120">UNREGISTERED</text><text fill="#eeeeee" stroke="none" font-family="Arial" font-size="24px" font-style="normal" font-weight="normal" text-decoration="none" x="800" y="150">UNREGISTERED</text><text fill="#eeeeee" stroke="none" font-family="Arial" font-size="24px" font-style="normal" font-weight="normal" text-decoration="none" x="800" y="180">UNREGISTERED</text><text fill="#eeeeee" stroke="none" font-family="Arial" font-size="24px" font-style="normal" font-weight="normal" text-decoration="none" x="800" y="210">UNREGISTERED</text><text fill="#eeeeee" stroke="none" font-family="Arial" font-size="24px" font-style="normal" font-weight="normal" text-decoration="none" x="800" y="240">UNREGISTERED</text><text fill="#eeeeee" stroke="none" font-family="Arial" font-size="24px" font-style="normal" font-weight="normal" text-decoration="none" x="800" y="270">UNREGISTERED</text><text fill="#eeeeee" stroke="none" font-family="Arial" font-size="24px" font-style="normal" font-weight="normal" text-decoration="none" x="800" y="300">UNREGISTERED</text><text fill="#eeeeee" stroke="none" font-family="Arial" font-size="24px" font-style="normal" font-weight="normal" text-decoration="none" x="800" y="330">UNREGISTERED</text><text fill="#eeeeee" stroke="none" font-family="Arial" font-size="24px" font-style="normal" font-weight="normal" text-decoration="none" x="800" y="360">UNREGISTERED</text><text fill="#eeeeee" stroke="none" font-family="Arial" font-size="24px" font-style="normal" font-weight="normal" text-decoration="none" x="800" y="390">UNREGISTERED</text><text fill="#eeeeee" stroke="none" font-family="Arial" font-size="24px" font-style="normal" font-weight="normal" text-decoration="none" x="800" y="420">UNREGISTERED</text><text fill="#eeeeee" stroke="none" font-family="Arial" font-size="24px" font-style="normal" font-weight="normal" text-decoration="none" x="800" y="450">UNREGISTERED</text><text fill="#eeeeee" stroke="none" font-family="Arial" font-size="24px" font-style="normal" font-weight="normal" text-decoration="none" x="800" y="480">UNREGISTERED</text><text fill="#eeeeee" stroke="none" font-family="Arial" font-size="24px" font-style="normal" font-weight="normal" text-decoration="none" x="800" y="510">UNREGISTERED</text><g transform="translate(-6,-110) scale(1,1)"><rect fill="#C0C0C0" stroke="none" x="63" y="319" width="141.17724609375" height="37" opacity="0.2"/></g><g transform="translate(-6,-110) scale(1,1)"><rect fill="#0073ad" stroke="none" x="56" y="312" width="141.17724609375" height="37"/></g><g transform="translate(-6,-110) scale(1,1)"><path fill="none" stroke="#000000" d="M 56 312 L 197.17724609375 312 L 197.17724609375 349 L 56 349 L 56 312 Z Z" stroke-miterlimit="10"/></g><g transform="translate(-6,-110) scale(1,1)"><rect fill="#0073ad" stroke="none" x="56" y="312" width="141.17724609375" height="37"/></g><g transform="translate(-6,-110) scale(1,1)"><path fill="none" stroke="#000000" d="M 56 312 L 197.17724609375 312 L 197.17724609375 349 L 56 349 L 56 312 Z Z" stroke-miterlimit="10"/></g><g transform="translate(-6,-110) scale(1,1)"><g><path fill="none" stroke="none"/><text fill="#000000" stroke="none" font-family="Arial" font-size="13px" font-style="normal" font-weight="normal" text-decoration="none" x="74.201416015625" y="329.5">«Dispositivo final»</text></g></g><g transform="translate(-6,-110) scale(1,1)"><g><path fill="none" stroke="none"/><text fill="#000000" stroke="none" font-family="Arial" font-size="13px" font-style="normal" font-weight="bold" text-decoration="none" x="64.083251953125" y="344.5">PC Diego: Ordenador</text><path fill="none" stroke="#000000" d="M 192.67724609375 344.5 L 60.5 344.5" stroke-miterlimit="10"/></g></g><g transform="translate(-6,-110) scale(1,1)"><rect fill="#C0C0C0" stroke="none" x="631" y="559" width="152.0634765625" height="37" opacity="0.2"/></g><g transform="translate(-6,-110) scale(1,1)"><rect fill="#4c0099" stroke="none" x="624" y="552" width="152.0634765625" height="37"/></g><g transform="translate(-6,-110) scale(1,1)"><path fill="none" stroke="#000000" d="M 624 552 L 776.0634765625 552 L 776.0634765625 589 L 624 589 L 624 552 Z Z" stroke-miterlimit="10"/></g><g transform="translate(-6,-110) scale(1,1)"><rect fill="#4c0099" stroke="none" x="624" y="552" width="152.0634765625" height="37"/></g><g transform="translate(-6,-110) scale(1,1)"><path fill="none" stroke="#000000" d="M 624 552 L 776.0634765625 552 L 776.0634765625 589 L 624 589 L 624 552 Z Z" stroke-miterlimit="10"/></g><g transform="translate(-6,-110) scale(1,1)"><g><path fill="none" stroke="none"/><text fill="#ffffff" stroke="none" font-family="Arial" font-size="13px" font-style="normal" font-weight="normal" text-decoration="none" x="628.5" y="569.5">«Dispositivo de servicio»</text></g></g><g transform="translate(-6,-110) scale(1,1)"><g><path fill="none" stroke="none"/><text fill="#ffffff" stroke="none" font-family="Arial" font-size="13px" font-style="normal" font-weight="bold" text-decoration="none" x="636.456787109375" y="584.5">Servier: Servidor NAS</text><path fill="none" stroke="#ffffff" d="M 767.948486328125 584.5 L 632.114990234375 584.5" stroke-miterlimit="10"/></g></g><g transform="translate(-6,-110) scale(1,1)"><rect fill="#C0C0C0" stroke="none" x="287" y="135" width="196.08447265625" height="24" opacity="0.2"/></g><g transform="translate(-6,-110) scale(1,1)"><rect fill="#ffffff" stroke="none" x="280" y="128" width="196.08447265625" height="24"/></g><g transform="translate(-6,-110) scale(1,1)"><path fill="none" stroke="#000000" d="M 280 128 L 476.08447265625 128 L 476.08447265625 152 L 280 152 L 280 128 Z Z" stroke-miterlimit="10"/></g><g transform="translate(-6,-110) scale(1,1)"><rect fill="#ffffff" stroke="none" x="280" y="128" width="196.08447265625" height="24"/></g><g transform="translate(-6,-110) scale(1,1)"><path fill="none" stroke="#000000" d="M 280 128 L 476.08447265625 128 L 476.08447265625 152 L 280 152 L 280 128 Z Z" stroke-miterlimit="10"/></g><g transform="translate(-6,-110) scale(1,1)"><g><path fill="none" stroke="none"/><text fill="#000000" stroke="none" font-family="Arial" font-size="13px" font-style="normal" font-weight="bold" text-decoration="none" x="342.2763671875" y="147.5">Oficina: Red</text><path fill="none" stroke="#000000" d="M 416.324951171875 147.5 L 339.759521484375 147.5" stroke-miterlimit="10"/></g></g><g transform="translate(-6,-110) scale(1,1)"><rect fill="#C0C0C0" stroke="none" x="271" y="215" width="269.06982421875" height="122" opacity="0.2"/></g><g transform="translate(-6,-110) scale(1,1)"><rect fill="#000070" stroke="none" x="264" y="208" width="269.06982421875" height="122"/></g><g transform="translate(-6,-110) scale(1,1)"><path fill="none" stroke="#000000" d="M 264 208 L 533.06982421875 208 L 533.06982421875 330 L 264 330 L 264 208 Z Z" stroke-miterlimit="10"/></g><g transform="translate(-6,-110) scale(1,1)"><rect fill="#000070" stroke="none" x="264" y="208" width="269.06982421875" height="122"/></g><g transform="translate(-6,-110) scale(1,1)"><path fill="none" stroke="#000000" d="M 264 208 L 533.06982421875 208 L 533.06982421875 330 L 264 330 L 264 208 Z Z" stroke-miterlimit="10"/></g><g transform="translate(-6,-110) scale(1,1)"><path fill="none" stroke="#000000" d="M 264 233 L 533.06982421875 233" stroke-miterlimit="10"/></g><g transform="translate(-6,-110) scale(1,1)"><g><path fill="none" stroke="none"/><text fill="#ffffff" stroke="none" font-family="Arial" font-size="13px" font-style="normal" font-weight="bold" text-decoration="none" x="276.75830078125" y="227.5">Petición de acceso a documento: Paquete</text><path fill="none" stroke="#ffffff" d="M 528.56982421875 227.5 L 268.5 227.5" stroke-miterlimit="10"/></g></g><g transform="translate(-6,-110) scale(1,1)"><g><path fill="none" stroke="none"/><text fill="#ffffff" stroke="none" font-family="Arial" font-size="13px" font-style="normal" font-weight="normal" text-decoration="none" x="269" y="250.5">+IP</text></g></g><g transform="translate(-6,-110) scale(1,1)"><g><path fill="none" stroke="none"/><text fill="#ffffff" stroke="none" font-family="Arial" font-size="13px" font-style="normal" font-weight="normal" text-decoration="none" x="269" y="265.5">+MAC</text></g></g><g transform="translate(-6,-110) scale(1,1)"><g><path fill="none" stroke="none"/><text fill="#ffffff" stroke="none" font-family="Arial" font-size="13px" font-style="normal" font-weight="normal" text-decoration="none" x="269" y="280.5">+Usuario</text></g></g><g transform="translate(-6,-110) scale(1,1)"><g><path fill="none" stroke="none"/><text fill="#ffffff" stroke="none" font-family="Arial" font-size="13px" font-style="normal" font-weight="normal" text-decoration="none" x="269" y="295.5">+Contraseña</text></g></g><g transform="translate(-6,-110) scale(1,1)"><g><path fill="none" stroke="none"/><text fill="#ffffff" stroke="none" font-family="Arial" font-size="13px" font-style="normal" font-weight="normal" text-decoration="none" x="269" y="310.5">+Nombre del recurso - Documento</text></g></g><g transform="translate(-6,-110) scale(1,1)"><g><path fill="none" stroke="none"/><text fill="#ffffff" stroke="none" font-family="Arial" font-size="13px" font-style="normal" font-weight="normal" text-decoration="none" x="269" y="325.5">+Ubicación del recurso</text></g></g><g transform="translate(-6,-110) scale(1,1)"><rect fill="#C0C0C0" stroke="none" x="215" y="527" width="261.103515625" height="24" opacity="0.2"/></g><g transform="translate(-6,-110) scale(1,1)"><rect fill="#000070" stroke="none" x="208" y="520" width="261.103515625" height="24"/></g><g transform="translate(-6,-110) scale(1,1)"><path fill="none" stroke="#000000" d="M 208 520 L 469.103515625 520 L 469.103515625 544 L 208 544 L 208 520 Z Z" stroke-miterlimit="10"/></g><g transform="translate(-6,-110) scale(1,1)"><rect fill="#000070" stroke="none" x="208" y="520" width="261.103515625" height="24"/></g><g transform="translate(-6,-110) scale(1,1)"><path fill="none" stroke="#000000" d="M 208 520 L 469.103515625 520 L 469.103515625 544 L 208 544 L 208 520 Z Z" stroke-miterlimit="10"/></g><g transform="translate(-6,-110) scale(1,1)"><g><path fill="none" stroke="none"/><text fill="#ffffff" stroke="none" font-family="Arial" font-size="13px" font-style="normal" font-weight="bold" text-decoration="none" x="221.48193359375" y="539.5">Acceso a documento permitido: Paquete</text><path fill="none" stroke="#ffffff" d="M 464.603515625 539.5 L 212.5 539.5" stroke-miterlimit="10"/></g></g><g transform="translate(-6,-110) scale(1,1)"><rect fill="#C0C0C0" stroke="none" x="615" y="231" width="160.0361328125" height="37" opacity="0.2"/></g><g transform="translate(-6,-110) scale(1,1)"><rect fill="#008400" stroke="none" x="608" y="224" width="160.0361328125" height="37"/></g><g transform="translate(-6,-110) scale(1,1)"><path fill="none" stroke="#ffff00" d="M 608 224 L 768.0361328125 224 L 768.0361328125 261 L 608 261 L 608 224 Z Z" stroke-miterlimit="10"/></g><g transform="translate(-6,-110) scale(1,1)"><rect fill="#008400" stroke="none" x="608" y="224" width="160.0361328125" height="37"/></g><g transform="translate(-6,-110) scale(1,1)"><path fill="none" stroke="#ffff00" d="M 608 224 L 768.0361328125 224 L 768.0361328125 261 L 608 261 L 608 224 Z Z" stroke-miterlimit="10"/></g><g transform="translate(-6,-110) scale(1,1)"><g><path fill="none" stroke="none"/><text fill="#ffffff" stroke="none" font-family="Arial" font-size="13px" font-style="normal" font-weight="normal" text-decoration="none" x="612.5" y="241.5">«Dispositivo de conexión»</text></g></g><g transform="translate(-6,-110) scale(1,1)"><g><path fill="none" stroke="none"/><text fill="#ffffff" stroke="none" font-family="Arial" font-size="13px" font-style="normal" font-weight="bold" text-decoration="none" x="639.607666015625" y="256.5">Router-1: Router</text><path fill="none" stroke="#ffffff" d="M 739.65625 256.5 L 636.3798828125 256.5" stroke-miterlimit="10"/></g></g><g transform="translate(-6,-110) scale(1,1)"><rect fill="#C0C0C0" stroke="none" x="631" y="375" width="160.0361328125" height="37" opacity="0.2"/></g><g transform="translate(-6,-110) scale(1,1)"><rect fill="#008400" stroke="none" x="624" y="368" width="160.0361328125" height="37"/></g><g transform="translate(-6,-110) scale(1,1)"><path fill="none" stroke="#ffff00" d="M 624 368 L 784.0361328125 368 L 784.0361328125 405 L 624 405 L 624 368 Z Z" stroke-miterlimit="10"/></g><g transform="translate(-6,-110) scale(1,1)"><rect fill="#008400" stroke="none" x="624" y="368" width="160.0361328125" height="37"/></g><g transform="translate(-6,-110) scale(1,1)"><path fill="none" stroke="#ffff00" d="M 624 368 L 784.0361328125 368 L 784.0361328125 405 L 624 405 L 624 368 Z Z" stroke-miterlimit="10"/></g><g transform="translate(-6,-110) scale(1,1)"><g><path fill="none" stroke="none"/><text fill="#ffffff" stroke="none" font-family="Arial" font-size="13px" font-style="normal" font-weight="normal" text-decoration="none" x="628.5" y="385.5">«Dispositivo de conexión»</text></g></g><g transform="translate(-6,-110) scale(1,1)"><g><path fill="none" stroke="none"/><text fill="#ffffff" stroke="none" font-family="Arial" font-size="13px" font-style="normal" font-weight="bold" text-decoration="none" x="655.607666015625" y="400.5">Router-2: Router</text><path fill="none" stroke="#ffffff" d="M 755.65625 400.5 L 652.3798828125 400.5" stroke-miterlimit="10"/></g></g><g transform="translate(-6,-110) scale(1,1)"><path fill="#ffffff" stroke="none" d="M 40 208 L 115.95166015625 208 L 125.95166015625 218 L 125.95166015625 283 L 40 283 L 40 208"/></g><g transform="translate(-6,-110) scale(1,1)"><path fill="none" stroke="#000000" d="M 40 208 L 115.95166015625 208 L 125.95166015625 218 L 125.95166015625 283 L 40 283 L 40 208 L 40 208" stroke-miterlimit="10"/></g><g transform="translate(-6,-110) scale(1,1)"><path fill="none" stroke="#000000" d="M 115.95166015625 208 L 115.95166015625 218 L 125.95166015625 218 L 115.95166015625 208" stroke-miterlimit="10"/></g><g transform="translate(-6,-110) scale(1,1)"><g><path fill="none" stroke="none"/><text fill="#000000" stroke="none" font-family="Arial" font-size="13px" font-style="normal" font-weight="normal" text-decoration="none" x="45" y="226">{El equipo</text><text fill="#000000" stroke="none" font-family="Arial" font-size="13px" font-style="normal" font-weight="normal" text-decoration="none" x="45" y="239">debe estar</text><text fill="#000000" stroke="none" font-family="Arial" font-size="13px" font-style="normal" font-weight="normal" text-decoration="none" x="45" y="252">encendido}</text></g></g><g transform="translate(-6,-110) scale(1,1)"><path fill="none" stroke="#000000" d="M 103 285 L 116 311" stroke-miterlimit="10" stroke-dasharray="3"/></g><g transform="translate(-6,-110) scale(1,1)"><path fill="#ffffff" stroke="none" d="M 72 368 L 147.2216796875 368 L 157.2216796875 378 L 157.2216796875 469 L 72 469 L 72 368"/></g><g transform="translate(-6,-110) scale(1,1)"><path fill="none" stroke="#000000" d="M 72 368 L 147.2216796875 368 L 157.2216796875 378 L 157.2216796875 469 L 72 469 L 72 368 L 72 368" stroke-miterlimit="10"/></g><g transform="translate(-6,-110) scale(1,1)"><path fill="none" stroke="#000000" d="M 147.2216796875 368 L 147.2216796875 378 L 157.2216796875 378 L 147.2216796875 368" stroke-miterlimit="10"/></g><g transform="translate(-6,-110) scale(1,1)"><g><path fill="none" stroke="none"/><text fill="#000000" stroke="none" font-family="Arial" font-size="13px" font-style="normal" font-weight="normal" text-decoration="none" x="77" y="386">{Conectado</text><text fill="#000000" stroke="none" font-family="Arial" font-size="13px" font-style="normal" font-weight="normal" text-decoration="none" x="77" y="399">a través de</text><text fill="#000000" stroke="none" font-family="Arial" font-size="13px" font-style="normal" font-weight="normal" text-decoration="none" x="77" y="412">cable o fibra</text><text fill="#000000" stroke="none" font-family="Arial" font-size="13px" font-style="normal" font-weight="normal" text-decoration="none" x="77" y="425">a la red}</text></g></g><g transform="translate(-6,-110) scale(1,1)"><path fill="none" stroke="#000000" d="M 121 367 L 124 350" stroke-miterlimit="10" stroke-dasharray="3"/></g><g transform="translate(-6,-110) scale(1,1)"><path fill="none" stroke="#00d600" d="M 197 312 L 264 312" stroke-miterlimit="10"/></g><g transform="translate(-6,-110) scale(1,1)"><g><path fill="none" stroke="none"/><text fill="#000000" stroke="none" font-family="Arial" font-size="13px" font-style="normal" font-weight="normal" text-decoration="none" x="210.5" y="333.5">+Envía</text></g></g><g transform="translate(-6,-110) scale(1,1)"><path fill="none" stroke="#00d600" d="M 533 252 L 608 252" stroke-miterlimit="10"/></g><g transform="translate(-6,-110) scale(1,1)"><g><path fill="none" stroke="none"/><text fill="#000000" stroke="none" font-family="Arial" font-size="13px" font-style="normal" font-weight="normal" text-decoration="none" x="545.5" y="243.5">+Recibe</text></g></g><g transform="translate(-6,-110) scale(1,1)"><path fill="none" stroke="#00d600" d="M 690 261 L 690 368" stroke-miterlimit="10"/></g><g transform="translate(-6,-110) scale(1,1)"><g><path fill="none" stroke="none"/><text fill="#000000" stroke="none" font-family="Arial" font-size="13px" font-style="normal" font-weight="normal" text-decoration="none" x="698.11181640625" y="291.5">+Envía</text></g></g><g transform="translate(-6,-110) scale(1,1)"><g><path fill="none" stroke="none"/><text fill="#000000" stroke="none" font-family="Arial" font-size="13px" font-style="normal" font-weight="normal" text-decoration="none" x="694.5" y="348.5">+Recibe</text></g></g><g transform="translate(-6,-110) scale(1,1)"><path fill="none" stroke="#00d600" d="M 704 405 L 704 552" stroke-miterlimit="10"/></g><g transform="translate(-6,-110) scale(1,1)"><g><path fill="none" stroke="none"/><text fill="#000000" stroke="none" font-family="Arial" font-size="13px" font-style="normal" font-weight="normal" text-decoration="none" x="710.5" y="427.5">+Envía</text></g></g><g transform="translate(-6,-110) scale(1,1)"><g><path fill="none" stroke="none"/><text fill="#000000" stroke="none" font-family="Arial" font-size="13px" font-style="normal" font-weight="normal" text-decoration="none" x="646.5" y="538.5">+Recibe</text></g></g><g transform="translate(-6,-110) scale(1,1)"><path fill="none" stroke="#ff0000" d="M 624 562 L 470 562 M 470 562 A 8 8 0 0 1 462 554 L 462 544" stroke-miterlimit="10"/></g><g transform="translate(-6,-110) scale(1,1)"><g><path fill="none" stroke="none"/><text fill="#000000" stroke="none" font-family="Arial" font-size="13px" font-style="normal" font-weight="normal" text-decoration="none" x="518.5" y="579.5">+Envía</text></g></g><g transform="translate(-6,-110) scale(1,1)"><path fill="none" stroke="#ff0000" d="M 469 532 L 496 532 M 496 532 A 8 8 0 0 0 504 524 L 504 413 M 504 413 A 8 8 0 0 1 512 405 L 624 405" stroke-miterlimit="10"/></g><g transform="translate(-6,-110) scale(1,1)"><g><path fill="none" stroke="none"/><text fill="#000000" stroke="none" font-family="Arial" font-size="13px" font-style="normal" font-weight="normal" text-decoration="none" x="541.5" y="395.5">+Recibe</text></g></g><g transform="translate(-6,-110) scale(1,1)"><path fill="none" stroke="#ff0000" d="M 624 368 L 624 323 M 624 323 A 8 8 0 0 1 632 315 L 656 315 M 656 315 A 8 8 0 0 0 664 307 L 664 261" stroke-miterlimit="10"/></g><g transform="translate(-6,-110) scale(1,1)"><g><path fill="none" stroke="none"/><text fill="#000000" stroke="none" font-family="Arial" font-size="13px" font-style="normal" font-weight="normal" text-decoration="none" x="573.5" y="356.5">+Envía</text></g></g><g transform="translate(-6,-110) scale(1,1)"><g><path fill="none" stroke="none"/><text fill="#000000" stroke="none" font-family="Arial" font-size="13px" font-style="normal" font-weight="normal" text-decoration="none" x="605.5" y="283.5">+Recibe</text></g></g><g transform="translate(-6,-110) scale(1,1)"><path fill="none" stroke="#ff0000" d="M 688 224 L 688 192 M 688 192 A 8 8 0 0 0 680 184 L 176 184 M 176 184 A 8 8 0 0 0 168 192 L 168 312" stroke-miterlimit="10"/></g><g transform="translate(-6,-110) scale(1,1)"><g><path fill="none" stroke="none"/><text fill="#000000" stroke="none" font-family="Arial" font-size="13px" font-style="normal" font-weight="normal" text-decoration="none" x="637.5" y="212.5">+Envía</text></g></g><g transform="translate(-6,-110) scale(1,1)"><g><path fill="none" stroke="none"/><text fill="#000000" stroke="none" font-family="Arial" font-size="13px" font-style="normal" font-weight="normal" text-decoration="none" x="174.5" y="284.5">+Recibe</text></g></g><g transform="translate(-6,-110) scale(1,1)"><path fill="none" stroke="#0000ff" d="M 136 312 L 136 160 M 136 160 A 8 8 0 0 1 144 152 L 280 152" stroke-miterlimit="10"/></g><g transform="translate(-6,-110) scale(1,1)"><g><path fill="none" stroke="none"/><text fill="#000000" stroke="none" font-family="Arial" font-size="13px" font-style="normal" font-weight="normal" text-decoration="none" x="142.5" y="171.5">+Pertenece</text></g></g><g transform="translate(-6,-110) scale(1,1)"><path fill="none" stroke="#0000ff" d="M 728 224 L 728 160 M 728 160 A 8 8 0 0 0 720 152 L 476 152" stroke-miterlimit="10"/></g><g transform="translate(-6,-110) scale(1,1)"><g><path fill="none" stroke="none"/><text fill="#000000" stroke="none" font-family="Arial" font-size="13px" font-style="normal" font-weight="normal" text-decoration="none" x="733.5" y="211.5">+Pertenece</text></g></g><g transform="translate(-6,-110) scale(1,1)"><path fill="none" stroke="#0000ff" d="M 476 136 L 800 136 M 800 136 A 8 8 0 0 1 808 144 L 808 360 M 808 360 A 8 8 0 0 1 800 368 L 784 368" stroke-miterlimit="10"/></g><g transform="translate(-6,-110) scale(1,1)"><g><path fill="none" stroke="none"/><text fill="#000000" stroke="none" font-family="Arial" font-size="13px" font-style="normal" font-weight="normal" text-decoration="none" x="734.5" y="155.5">+Pertenece</text></g></g><g transform="translate(-6,-110) scale(1,1)"><path fill="none" stroke="#0000ff" d="M 476 128 L 476 128 M 476 128 A 8 8 0 0 1 484 120 L 816 120 M 816 120 A 8 8 0 0 1 824 128 L 824 448 M 824 448 A 8 8 0 0 1 816 456 L 760 456 M 760 456 A 8 8 0 0 0 752 464 L 752 552" stroke-miterlimit="10"/></g><g transform="translate(-6,-110) scale(1,1)"><g><path fill="none" stroke="none"/><text fill="#000000" stroke="none" font-family="Arial" font-size="13px" font-style="normal" font-weight="normal" text-decoration="none" x="765.5" y="483.5">+Pertenece</text></g></g><g transform="translate(-6,-110) scale(1,1)"><path fill="none" stroke="#7f00ff" d="M 280 128 L 280 128 M 280 128 A 8 8 0 0 0 272 120 L 24 120 M 24 120 A 8 8 0 0 0 16 128 L 16 608 M 16 608 A 8 8 0 0 0 24 616 L 248 616 M 248 616 A 8 8 0 0 0 256 608 L 256 544" stroke-miterlimit="10"/></g><g transform="translate(-6,-110) scale(1,1)"><g><path fill="none" stroke="none"/><text fill="#000000" stroke="none" font-family="Arial" font-size="13px" font-style="normal" font-weight="normal" text-decoration="none" x="117.5" y="636.5">+Viaja</text></g></g><g transform="translate(-6,-110) scale(1,1)"><path fill="none" stroke="#7f00ff" d="M 280 136 L 40 136 M 40 136 A 8 8 0 0 0 32 144 L 32 520 M 32 520 A 8 8 0 0 0 40 528 L 208 528" stroke-miterlimit="10"/></g><g transform="translate(-6,-110) scale(1,1)"><g><path fill="none" stroke="none"/><text fill="#000000" stroke="none" font-family="Arial" font-size="13px" font-style="normal" font-weight="normal" text-decoration="none" x="62.5" y="156.5">+Viaja</text></g></g></g></svg>