<svg version="1.1" xmlns="http://www.w3.org/2000/svg" xmlns:xlink="http://www.w3.org/1999/xlink" width="940" height="476"><defs/><g><text fill="#eeeeee" stroke="none" font-family="Arial" font-size="24px" font-style="normal" font-weight="normal" text-decoration="none" x="0" y="0">UNREGISTERED</text><text fill="#eeeeee" stroke="none" font-family="Arial" font-size="24px" font-style="normal" font-weight="normal" text-decoration="none" x="0" y="30">UNREGISTERED</text><text fill="#eeeeee" stroke="none" font-family="Arial" font-size="24px" font-style="normal" font-weight="normal" text-decoration="none" x="0" y="60">UNREGISTERED</text><text fill="#eeeeee" stroke="none" font-family="Arial" font-size="24px" font-style="normal" font-weight="normal" text-decoration="none" x="0" y="90">UNREGISTERED</text><text fill="#eeeeee" stroke="none" font-family="Arial" font-size="24px" font-style="normal" font-weight="normal" text-decoration="none" x="0" y="120">UNREGISTERED</text><text fill="#eeeeee" stroke="none" font-family="Arial" font-size="24px" font-style="normal" font-weight="normal" text-decoration="none" x="0" y="150">UNREGISTERED</text><text fill="#eeeeee" stroke="none" font-family="Arial" font-size="24px" font-style="normal" font-weight="normal" text-decoration="none" x="0" y="180">UNREGISTERED</text><text fill="#eeeeee" stroke="none" font-family="Arial" font-size="24px" font-style="normal" font-weight="normal" text-decoration="none" x="0" y="210">UNREGISTERED</text><text fill="#eeeeee" stroke="none" font-family="Arial" font-size="24px" font-style="normal" font-weight="normal" text-decoration="none" x="0" y="240">UNREGISTERED</text><text fill="#eeeeee" stroke="none" font-family="Arial" font-size="24px" font-style="normal" font-weight="normal" text-decoration="none" x="0" y="270">UNREGISTERED</text><text fill="#eeeeee" stroke="none" font-family="Arial" font-size="24px" font-style="normal" font-weight="normal" text-decoration="none" x="0" y="300">UNREGISTERED</text><text fill="#eeeeee" stroke="none" font-family="Arial" font-size="24px" font-style="normal" font-weight="normal" text-decoration="none" x="0" y="330">UNREGISTERED</text><text fill="#eeeeee" stroke="none" font-family="Arial" font-size="24px" font-style="normal" font-weight="normal" text-decoration="none" x="0" y="360">UNREGISTERED</text><text fill="#eeeeee" stroke="none" font-family="Arial" font-size="24px" font-style="normal" font-weight="normal" text-decoration="none" x="0" y="390">UNREGISTERED</text><text fill="#eeeeee" stroke="none" font-family="Arial" font-size="24px" font-style="normal" font-weight="normal" text-decoration="none" x="0" y="420">UNREGISTERED</text><text fill="#eeeeee" stroke="none" font-family="Arial" font-size="24px" font-style="normal" font-weight="normal" text-decoration="none" x="0" y="450">UNREGISTERED</text><text fill="#eeeeee" stroke="none" font-family="Arial" font-size="24px" font-style="normal" font-weight="normal" text-decoration="none" x="200" y="0">UNREGISTERED</text><text fill="#eeeeee" stroke="none" font-family="Arial" font-size="24px" font-style="normal" font-weight="normal" text-decoration="none" x="200" y="30">UNREGISTERED</text><text fill="#eeeeee" stroke="none" font-family="Arial" font-size="24px" font-style="normal" font-weight="normal" text-decoration="none" x="200" y="60">UNREGISTERED</text><text fill="#eeeeee" stroke="none" font-family="Arial" font-size="24px" font-style="normal" font-weight="normal" text-decoration="none" x="200" y="90">UNREGISTERED</text><text fill="#eeeeee" stroke="none" font-family="Arial" font-size="24px" font-style="normal" font-weight="normal" text-decoration="none" x="200" y="120">UNREGISTERED</text><text fill="#eeeeee" stroke="none" font-family="Arial" font-size="24px" font-style="normal" font-weight="normal" text-decoration="none" x="200" y="150">UNREGISTERED</text><text fill="#eeeeee" stroke="none" font-family="Arial" font-size="24px" font-style="normal" font-weight="normal" text-decoration="none" x="200" y="180">UNREGISTERED</text><text fill="#eeeeee" stroke="none" font-family="Arial" font-size="24px" font-style="normal" font-weight="normal" text-decoration="none" x="200" y="210">UNREGISTERED</text><text fill="#eeeeee" stroke="none" font-family="Arial" font-size="24px" font-style="normal" font-weight="normal" text-decoration="none" x="200" y="240">UNREGISTERED</text><text fill="#eeeeee" stroke="none" font-family="Arial" font-size="24px" font-style="normal" font-weight="normal" text-decoration="none" x="200" y="270">UNREGISTERED</text><text fill="#eeeeee" stroke="none" font-family="Arial" font-size="24px" font-style="normal" font-weight="normal" text-decoration="none" x="200" y="300">UNREGISTERED</text><text fill="#eeeeee" stroke="none" font-family="Arial" font-size="24px" font-style="normal" font-weight="normal" text-decoration="none" x="200" y="330">UNREGISTERED</text><text fill="#eeeeee" stroke="none" font-family="Arial" font-size="24px" font-style="normal" font-weight="normal" text-decoration="none" x="200" y="360">UNREGISTERED</text><text fill="#eeeeee" stroke="none" font-family="Arial" font-size="24px" font-style="normal" font-weight="normal" text-decoration="none" x="200" y="390">UNREGISTERED</text><text fill="#eeeeee" stroke="none" font-family="Arial" font-size="24px" font-style="normal" font-weight="normal" text-decoration="none" x="200" y="420">UNREGISTERED</text><text fill="#eeeeee" stroke="none" font-family="Arial" font-size="24px" font-style="normal" font-weight="normal" text-decoration="none" x="200" y="450">UNREGISTERED</text><text fill="#eeeeee" stroke="none" font-family="Arial" font-size="24px" font-style="normal" font-weight="normal" text-decoration="none" x="400" y="0">UNREGISTERED</text><text fill="#eeeeee" stroke="none" font-family="Arial" font-size="24px" font-style="normal" font-weight="normal" text-decoration="none" x="400" y="30">UNREGISTERED</text><text fill="#eeeeee" stroke="none" font-family="Arial" font-size="24px" font-style="normal" font-weight="normal" text-decoration="none" x="400" y="60">UNREGISTERED</text><text fill="#eeeeee" stroke="none" font-family="Arial" font-size="24px" font-style="normal" font-weight="normal" text-decoration="none" x="400" y="90">UNREGISTERED</text><text fill="#eeeeee" stroke="none" font-family="Arial" font-size="24px" font-style="normal" font-weight="normal" text-decoration="none" x="400" y="120">UNREGISTERED</text><text fill="#eeeeee" stroke="none" font-family="Arial" font-size="24px" font-style="normal" font-weight="normal" text-decoration="none" x="400" y="150">UNREGISTERED</text><text fill="#eeeeee" stroke="none" font-family="Arial" font-size="24px" font-style="normal" font-weight="normal" text-decoration="none" x="400" y="180">UNREGISTERED</text><text fill="#eeeeee" stroke="none" font-family="Arial" font-size="24px" font-style="normal" font-weight="normal" text-decoration="none" x="400" y="210">UNREGISTERED</text><text fill="#eeeeee" stroke="none" font-family="Arial" font-size="24px" font-style="normal" font-weight="normal" text-decoration="none" x="400" y="240">UNREGISTERED</text><text fill="#eeeeee" stroke="none" font-family="Arial" font-size="24px" font-style="normal" font-weight="normal" text-decoration="none" x="400" y="270">UNREGISTERED</text><text fill="#eeeeee" stroke="none" font-family="Arial" font-size="24px" font-style="normal" font-weight="normal" text-decoration="none" x="400" y="300">UNREGISTERED</text><text fill="#eeeeee" stroke="none" font-family="Arial" font-size="24px" font-style="normal" font-weight="normal" text-decoration="none" x="400" y="330">UNREGISTERED</text><text fill="#eeeeee" stroke="none" font-family="Arial" font-size="24px" font-style="normal" font-weight="normal" text-decoration="none" x="400" y="360">UNREGISTERED</text><text fill="#eeeeee" stroke="none" font-family="Arial" font-size="24px" font-style="normal" font-weight="normal" text-decoration="none" x="400" y="390">UNREGISTERED</text><text fill="#eeeeee" stroke="none" font-family="Arial" font-size="24px" font-style="normal" font-weight="normal" text-decoration="none" x="400" y="420">UNREGISTERED</text><text fill="#eeeeee" stroke="none" font-family="Arial" font-size="24px" font-style="normal" font-weight="normal" text-decoration="none" x="400" y="450">UNREGISTERED</text><text fill="#eeeeee" stroke="none" font-family="Arial" font-size="24px" font-style="normal" font-weight="normal" text-decoration="none" x="600" y="0">UNREGISTERED</text><text fill="#eeeeee" stroke="none" font-family="Arial" font-size="24px" font-style="normal" font-weight="normal" text-decoration="none" x="600" y="30">UNREGISTERED</text><text fill="#eeeeee" stroke="none" font-family="Arial" font-size="24px" font-style="normal" font-weight="normal" text-decoration="none" x="600" y="60">UNREGISTERED</text><text fill="#eeeeee" stroke="none" font-family="Arial" font-size="24px" font-style="normal" font-weight="normal" text-decoration="none" x="600" y="90">UNREGISTERED</text><text fill="#eeeeee" stroke="none" font-family="Arial" font-size="24px" font-style="normal" font-weight="normal" text-decoration="none" x="600" y="120">UNREGISTERED</text><text fill="#eeeeee" stroke="none" font-family="Arial" font-size="24px" font-style="normal" font-weight="normal" text-decoration="none" x="600" y="150">UNREGISTERED</text><text fill="#eeeeee" stroke="none" font-family="Arial" font-size="24px" font-style="normal" font-weight="normal" text-decoration="none" x="600" y="180">UNREGISTERED</text><text fill="#eeeeee" stroke="none" font-family="Arial" font-size="24px" font-style="normal" font-weight="normal" text-decoration="none" x="600" y="210">UNREGISTERED</text><text fill="#eeeeee" stroke="none" font-family="Arial" font-size="24px" font-style="normal" font-weight="normal" text-decoration="none" x="600" y="240">UNREGISTERED</text><text fill="#eeeeee" stroke="none" font-family="Arial" font-size="24px" font-style="normal" font-weight="normal" text-decoration="none" x="600" y="270">UNREGISTERED</text><text fill="#eeeeee" stroke="none" font-family="Arial" font-size="24px" font-style="normal" font-weight="normal" text-decoration="none" x="600" y="300">UNREGISTERED</text><text fill="#eeeeee" stroke="none" font-family="Arial" font-size="24px" font-style="normal" font-weight="normal" text-decoration="none" x="600" y="330">UNREGISTERED</text><text fill="#eeeeee" stroke="none" font-family="Arial" font-size="24px" font-style="normal" font-weight="normal" text-decoration="none" x="600" y="360">UNREGISTERED</text><text fill="#eeeeee" stroke="none" font-family="Arial" font-size="24px" font-style="normal" font-weight="normal" text-decoration="none" x="600" y="390">UNREGISTERED</text><text fill="#eeeeee" stroke="none" font-family="Arial" font-size="24px" font-style="normal" font-weight="normal" text-decoration="none" x="600" y="420">UNREGISTERED</text><text fill="#eeeeee" stroke="none" font-family="Arial" font-size="24px" font-style="normal" font-weight="normal" text-decoration="none" x="600" y="450">UNREGISTERED</text><text fill="#eeeeee" stroke="none" font-family="Arial" font-size="24px" font-style="normal" font-weight="normal" text-decoration="none" x="800" y="0">UNREGISTERED</text><text fill="#eeeeee" stroke="none" font-family="Arial" font-size="24px" font-style="normal" font-weight="normal" text-decoration="none" x="800" y="30">UNREGISTERED</text><text fill="#eeeeee" stroke="none" font-family="Arial" font-size="24px" font-style="normal" font-weight="normal" text-decoration="none" x="800" y="60">UNREGISTERED</text><text fill="#eeeeee" stroke="none" font-family="Arial" font-size="24px" font-style="normal" font-weight="normal" text-decoration="none" x="800" y="90">UNREGISTERED</text><text fill="#eeeeee" stroke="none" font-family="Arial" font-size="24px" font-style="normal" font-weight="normal" text-decoration="none" x="800" y="120">UNREGISTERED</text><text fill="#eeeeee" stroke="none" font-family="Arial" font-size="24px" font-style="normal" font-weight="normal" text-decoration="none" x="800" y="150">UNREGISTERED</text><text fill="#eeeeee" stroke="none" font-family="Arial" font-size="24px" font-style="normal" font-weight="normal" text-decoration="none" x="800" y="180">UNREGISTERED</text><text fill="#eeeeee" stroke="none" font-family="Arial" font-size="24px" font-style="normal" font-weight="normal" text-decoration="none" x="800" y="210">UNREGISTERED</text><text fill="#eeeeee" stroke="none" font-family="Arial" font-size="24px" font-style="normal" font-weight="normal" text-decoration="none" x="800" y="240">UNREGISTERED</text><text fill="#eeeeee" stroke="none" font-family="Arial" font-size="24px" font-style="normal" font-weight="normal" text-decoration="none" x="800" y="270">UNREGISTERED</text><text fill="#eeeeee" stroke="none" font-family="Arial" font-size="24px" font-style="normal" font-weight="normal" text-decoration="none" x="800" y="300">UNREGISTERED</text><text fill="#eeeeee" stroke="none" font-family="Arial" font-size="24px" font-style="normal" font-weight="normal" text-decoration="none" x="800" y="330">UNREGISTERED</text><text fill="#eeeeee" stroke="none" font-family="Arial" font-size="24px" font-style="normal" font-weight="normal" text-decoration="none" x="800" y="360">UNREGISTERED</text><text fill="#eeeeee" stroke="none" font-family="Arial" font-size="24px" font-style="normal" font-weight="normal" text-decoration="none" x="800" y="390">UNREGISTERED</text><text fill="#eeeeee" stroke="none" font-family="Arial" font-size="24px" font-style="normal" font-weight="normal" text-decoration="none" x="800" y="420">UNREGISTERED</text><text fill="#eeeeee" stroke="none" font-family="Arial" font-size="24px" font-style="normal" font-weight="normal" text-decoration="none" x="800" y="450">UNREGISTERED</text><g transform="translate(-46,-22) scale(1,1)"><path fill="none" stroke="#000000" d="M 56 32 L 976 32 L 976 488 L 56 488 L 56 32" stroke-miterlimit="10"/></g><g transform="translate(-46,-22) scale(1,1)"><path fill="#ffffff" stroke="none" d="M 56 32 L 56 54 L 216.49169921875 54 L 227.49169921875 43 L 227.49169921875 32 L 56 32"/></g><g transform="translate(-46,-22) scale(1,1)"><path fill="none" stroke="#000000" d="M 56 32 L 56 54 L 216.49169921875 54 L 227.49169921875 43 L 227.49169921875 32 L 56 32 L 56 32" stroke-miterlimit="10"/></g><g transform="translate(-46,-22) scale(1,1)"><g><path fill="none" stroke="none"/><text fill="#000000" stroke="none" font-family="Arial" font-size="13px" font-style="normal" font-weight="normal" text-decoration="none" x="96.6181640625" y="49.5">Dispositivos Finales</text></g></g><g transform="translate(-46,-22) scale(1,1)"><g><path fill="none" stroke="none"/><text fill="#000000" stroke="none" font-family="Arial" font-size="13px" font-style="normal" font-weight="bold" text-decoration="none" x="61" y="49.5">class</text></g></g><g transform="translate(-46,-22) scale(1,1)"><path fill="#C0C0C0" stroke="none" d="M 111 152.5 C 111 147.2532944 115.2532944 143 120.5 143 C 125.7467056 143 130 147.2532944 130 152.5 C 130 157.7467056 125.7467056 162 120.5 162 C 115.2532944 162 111 157.7467056 111 152.5 Z" opacity="0.2"/></g><g transform="translate(-46,-22) scale(1,1)"><path fill="#000000" stroke="none" d="M 104 145.5 C 104 140.2532944 108.2532944 136 113.5 136 C 118.7467056 136 123 140.2532944 123 145.5 C 123 150.7467056 118.7467056 155 113.5 155 C 108.2532944 155 104 150.7467056 104 145.5 Z"/></g><g transform="translate(-46,-22) scale(1,1)"><path fill="#C0C0C0" stroke="none" d="M 241 127 L 370.83544921875 127 Q 380.83544921875 127 380.83544921875 137 L 380.83544921875 170 Q 380.83544921875 180 370.83544921875 180 L 241 180 Q 231 180 231 170 L 231 137 Q 231 127 241 127 Z" opacity="0.2"/></g><g transform="translate(-46,-22) scale(1,1)"><path fill="#ffffff" stroke="none" d="M 234 120 L 363.83544921875 120 Q 373.83544921875 120 373.83544921875 130 L 373.83544921875 163 Q 373.83544921875 173 363.83544921875 173 L 234 173 Q 224 173 224 163 L 224 130 Q 224 120 234 120 Z"/></g><g transform="translate(-46,-22) scale(1,1)"><path fill="none" stroke="#000000" d="M 234 120 L 363.83544921875 120 Q 373.83544921875 120 373.83544921875 130 L 373.83544921875 163 Q 373.83544921875 173 363.83544921875 173 L 234 173 Q 224 173 224 163 L 224 130 Q 224 120 234 120 Z" stroke-miterlimit="10"/></g><g transform="translate(-46,-22) scale(1,1)"><path fill="none" stroke="#000000" d="M 347.83544921875 160 C 347.83544921875 158.3431456 349.17859481875 157 350.83544921875 157 C 352.49230361875 157 353.83544921875 158.3431456 353.83544921875 160 C 353.83544921875 161.6568544 352.49230361875 163 350.83544921875 163 C 349.17859481875 163 347.83544921875 161.6568544 347.83544921875 160 Z" stroke-miterlimit="10"/></g><g transform="translate(-46,-22) scale(1,1)"><path fill="none" stroke="#000000" d="M 353.83544921875 160 L 359.83544921875 160" stroke-miterlimit="10"/></g><g transform="translate(-46,-22) scale(1,1)"><path fill="none" stroke="#000000" d="M 359.83544921875 160 C 359.83544921875 158.3431456 361.17859481875 157 362.83544921875 157 C 364.49230361875 157 365.83544921875 158.3431456 365.83544921875 160 C 365.83544921875 161.6568544 364.49230361875 163 362.83544921875 163 C 361.17859481875 163 359.83544921875 161.6568544 359.83544921875 160 Z" stroke-miterlimit="10"/></g><g transform="translate(-46,-22) scale(1,1)"><g><path fill="none" stroke="none"/><text fill="#000000" stroke="none" font-family="Arial" font-size="13px" font-style="normal" font-weight="normal" text-decoration="none" x="271.451416015625" y="137.5">«Estado»</text></g></g><g transform="translate(-46,-22) scale(1,1)"><g><path fill="none" stroke="none"/><text fill="#000000" stroke="none" font-family="Arial" font-size="13px" font-style="normal" font-weight="bold" text-decoration="none" x="233.866943359375" y="152.5">Encendido: Encendido</text></g></g><g transform="translate(-46,-22) scale(1,1)"><path fill="none" stroke="#000000" d="M 123 145 L 224 145" stroke-miterlimit="10"/></g><g transform="translate(-46,-22) scale(1,1)"><path fill="none" stroke="#000000" d="M 213.83732514237585 149.209517756016 L 224 145 L 213.83732514237585 140.790482243984" stroke-miterlimit="10"/></g><g transform="translate(-46,-22) scale(1,1)"><g><path fill="none" stroke="none"/><text fill="#000000" stroke="none" font-family="Arial" font-size="13px" font-style="normal" font-weight="normal" text-decoration="none" x="145.5" y="136.5">Energizar</text></g></g><g transform="translate(-46,-22) scale(1,1)"><path fill="#C0C0C0" stroke="none" d="M 585 63 L 716.28271484375 63 Q 726.28271484375 63 726.28271484375 73 L 726.28271484375 106 Q 726.28271484375 116 716.28271484375 116 L 585 116 Q 575 116 575 106 L 575 73 Q 575 63 585 63 Z" opacity="0.2"/></g><g transform="translate(-46,-22) scale(1,1)"><path fill="#ffffff" stroke="none" d="M 578 56 L 709.28271484375 56 Q 719.28271484375 56 719.28271484375 66 L 719.28271484375 99 Q 719.28271484375 109 709.28271484375 109 L 578 109 Q 568 109 568 99 L 568 66 Q 568 56 578 56 Z"/></g><g transform="translate(-46,-22) scale(1,1)"><path fill="none" stroke="#000000" d="M 578 56 L 709.28271484375 56 Q 719.28271484375 56 719.28271484375 66 L 719.28271484375 99 Q 719.28271484375 109 709.28271484375 109 L 578 109 Q 568 109 568 99 L 568 66 Q 568 56 578 56 Z" stroke-miterlimit="10"/></g><g transform="translate(-46,-22) scale(1,1)"><path fill="none" stroke="#000000" d="M 693.28271484375 96 C 693.28271484375 94.3431456 694.62586044375 93 696.28271484375 93 C 697.93956924375 93 699.28271484375 94.3431456 699.28271484375 96 C 699.28271484375 97.6568544 697.93956924375 99 696.28271484375 99 C 694.62586044375 99 693.28271484375 97.6568544 693.28271484375 96 Z" stroke-miterlimit="10"/></g><g transform="translate(-46,-22) scale(1,1)"><path fill="none" stroke="#000000" d="M 699.28271484375 96 L 705.28271484375 96" stroke-miterlimit="10"/></g><g transform="translate(-46,-22) scale(1,1)"><path fill="none" stroke="#000000" d="M 705.28271484375 96 C 705.28271484375 94.3431456 706.62586044375 93 708.28271484375 93 C 709.93956924375 93 711.28271484375 94.3431456 711.28271484375 96 C 711.28271484375 97.6568544 709.93956924375 99 708.28271484375 99 C 706.62586044375 99 705.28271484375 97.6568544 705.28271484375 96 Z" stroke-miterlimit="10"/></g><g transform="translate(-46,-22) scale(1,1)"><g><path fill="none" stroke="none"/><text fill="#000000" stroke="none" font-family="Arial" font-size="13px" font-style="normal" font-weight="normal" text-decoration="none" x="616.175048828125" y="73.5">«Estado»</text></g></g><g transform="translate(-46,-22) scale(1,1)"><g><path fill="none" stroke="none"/><text fill="#000000" stroke="none" font-family="Arial" font-size="13px" font-style="normal" font-weight="bold" text-decoration="none" x="577.149658203125" y="88.5">Conectado: Conectado</text></g></g><g transform="translate(-46,-22) scale(1,1)"><path fill="#C0C0C0" stroke="none" d="M 545 191 L 719.66259765625 191 Q 729.66259765625 191 729.66259765625 201 L 729.66259765625 234 Q 729.66259765625 244 719.66259765625 244 L 545 244 Q 535 244 535 234 L 535 201 Q 535 191 545 191 Z" opacity="0.2"/></g><g transform="translate(-46,-22) scale(1,1)"><path fill="#ffffff" stroke="none" d="M 538 184 L 712.66259765625 184 Q 722.66259765625 184 722.66259765625 194 L 722.66259765625 227 Q 722.66259765625 237 712.66259765625 237 L 538 237 Q 528 237 528 227 L 528 194 Q 528 184 538 184 Z"/></g><g transform="translate(-46,-22) scale(1,1)"><path fill="none" stroke="#000000" d="M 538 184 L 712.66259765625 184 Q 722.66259765625 184 722.66259765625 194 L 722.66259765625 227 Q 722.66259765625 237 712.66259765625 237 L 538 237 Q 528 237 528 227 L 528 194 Q 528 184 538 184 Z" stroke-miterlimit="10"/></g><g transform="translate(-46,-22) scale(1,1)"><path fill="none" stroke="#000000" d="M 696.66259765625 224 C 696.66259765625 222.3431456 698.00574325625 221 699.66259765625 221 C 701.31945205625 221 702.66259765625 222.3431456 702.66259765625 224 C 702.66259765625 225.6568544 701.31945205625 227 699.66259765625 227 C 698.00574325625 227 696.66259765625 225.6568544 696.66259765625 224 Z" stroke-miterlimit="10"/></g><g transform="translate(-46,-22) scale(1,1)"><path fill="none" stroke="#000000" d="M 702.66259765625 224 L 708.66259765625 224" stroke-miterlimit="10"/></g><g transform="translate(-46,-22) scale(1,1)"><path fill="none" stroke="#000000" d="M 708.66259765625 224 C 708.66259765625 222.3431456 710.00574325625 221 711.66259765625 221 C 713.31945205625 221 714.66259765625 222.3431456 714.66259765625 224 C 714.66259765625 225.6568544 713.31945205625 227 711.66259765625 227 C 710.00574325625 227 708.66259765625 225.6568544 708.66259765625 224 Z" stroke-miterlimit="10"/></g><g transform="translate(-46,-22) scale(1,1)"><g><path fill="none" stroke="none"/><text fill="#000000" stroke="none" font-family="Arial" font-size="13px" font-style="normal" font-weight="normal" text-decoration="none" x="597.864990234375" y="201.5">«Estado»</text></g></g><g transform="translate(-46,-22) scale(1,1)"><g><path fill="none" stroke="none"/><text fill="#000000" stroke="none" font-family="Arial" font-size="13px" font-style="normal" font-weight="bold" text-decoration="none" x="538.609619140625" y="216.5">Desconectado: Desconectado</text></g></g><g transform="translate(-46,-22) scale(1,1)"><path fill="#C0C0C0" stroke="none" d="M 479 152.5 L 490.5 143 L 501 152.5 L 490.5 161 L 479 152.5" opacity="0.2"/></g><g transform="translate(-46,-22) scale(1,1)"><path fill="#ffffff" stroke="none" d="M 472 145 L 483 136 L 494 145 L 483 154 L 472 145"/></g><g transform="translate(-46,-22) scale(1,1)"><path fill="none" stroke="#000000" d="M 472 145 L 483 136 L 494 145 L 483 154 L 472 145 L 472 145" stroke-miterlimit="10"/></g><g transform="translate(-46,-22) scale(1,1)"><path fill="none" stroke="#000000" d="M 374 142 L 472 142" stroke-miterlimit="10"/></g><g transform="translate(-46,-22) scale(1,1)"><path fill="none" stroke="#000000" d="M 461.83732514237585 146.209517756016 L 472 142 L 461.83732514237585 137.790482243984" stroke-miterlimit="10"/></g><g transform="translate(-46,-22) scale(1,1)"><g><path fill="none" stroke="none"/><text fill="#000000" stroke="none" font-family="Arial" font-size="13px" font-style="normal" font-weight="normal" text-decoration="none" x="385.5" y="133.5">Acceso a red</text></g></g><g transform="translate(-46,-22) scale(1,1)"><path fill="none" stroke="#000000" d="M 495 140 L 572 110" stroke-miterlimit="10"/></g><g transform="translate(-46,-22) scale(1,1)"><path fill="none" stroke="#000000" d="M 564.0588311994187 117.61169088183927 L 572 110 L 561.0024674517176 109.76702392940632" stroke-miterlimit="10"/></g><g transform="translate(-46,-22) scale(1,1)"><g><path fill="none" stroke="none"/><text fill="#000000" stroke="none" font-family="Arial" font-size="13px" font-style="normal" font-weight="normal" text-decoration="none" x="521.5" y="116.5">Si</text></g></g><g transform="translate(-46,-22) scale(1,1)"><path fill="none" stroke="#000000" d="M 495 150 L 566 183" stroke-miterlimit="10"/></g><g transform="translate(-46,-22) scale(1,1)"><path fill="none" stroke="#000000" d="M 555.0098791452724 182.53390601968974 L 566 183 L 558.5583892317101 174.8992328034148" stroke-miterlimit="10"/></g><g transform="translate(-46,-22) scale(1,1)"><g><path fill="none" stroke="none"/><text fill="#000000" stroke="none" font-family="Arial" font-size="13px" font-style="normal" font-weight="normal" text-decoration="none" x="527.5" y="158.5">No</text></g></g><g transform="translate(-46,-22) scale(1,1)"><path fill="#C0C0C0" stroke="none" d="M 351 304.5 L 362.5 295 L 373 304.5 L 362.5 313 L 351 304.5" opacity="0.2"/></g><g transform="translate(-46,-22) scale(1,1)"><path fill="#ffffff" stroke="none" d="M 344 297 L 355 288 L 366 297 L 355 306 L 344 297"/></g><g transform="translate(-46,-22) scale(1,1)"><path fill="none" stroke="#000000" d="M 344 297 L 355 288 L 366 297 L 355 306 L 344 297 L 344 297" stroke-miterlimit="10"/></g><g transform="translate(-46,-22) scale(1,1)"><path fill="#C0C0C0" stroke="none" d="M 465 287 L 659.84814453125 287 Q 669.84814453125 287 669.84814453125 297 L 669.84814453125 330 Q 669.84814453125 340 659.84814453125 340 L 465 340 Q 455 340 455 330 L 455 297 Q 455 287 465 287 Z" opacity="0.2"/></g><g transform="translate(-46,-22) scale(1,1)"><path fill="#ffffff" stroke="none" d="M 458 280 L 652.84814453125 280 Q 662.84814453125 280 662.84814453125 290 L 662.84814453125 323 Q 662.84814453125 333 652.84814453125 333 L 458 333 Q 448 333 448 323 L 448 290 Q 448 280 458 280 Z"/></g><g transform="translate(-46,-22) scale(1,1)"><path fill="none" stroke="#000000" d="M 458 280 L 652.84814453125 280 Q 662.84814453125 280 662.84814453125 290 L 662.84814453125 323 Q 662.84814453125 333 652.84814453125 333 L 458 333 Q 448 333 448 323 L 448 290 Q 448 280 458 280 Z" stroke-miterlimit="10"/></g><g transform="translate(-46,-22) scale(1,1)"><path fill="none" stroke="#000000" d="M 636.84814453125 320 C 636.84814453125 318.3431456 638.19129013125 317 639.84814453125 317 C 641.50499893125 317 642.84814453125 318.3431456 642.84814453125 320 C 642.84814453125 321.6568544 641.50499893125 323 639.84814453125 323 C 638.19129013125 323 636.84814453125 321.6568544 636.84814453125 320 Z" stroke-miterlimit="10"/></g><g transform="translate(-46,-22) scale(1,1)"><path fill="none" stroke="#000000" d="M 642.84814453125 320 L 648.84814453125 320" stroke-miterlimit="10"/></g><g transform="translate(-46,-22) scale(1,1)"><path fill="none" stroke="#000000" d="M 648.84814453125 320 C 648.84814453125 318.3431456 650.19129013125 317 651.84814453125 317 C 653.50499893125 317 654.84814453125 318.3431456 654.84814453125 320 C 654.84814453125 321.6568544 653.50499893125 323 651.84814453125 323 C 650.19129013125 323 648.84814453125 321.6568544 648.84814453125 320 Z" stroke-miterlimit="10"/></g><g transform="translate(-46,-22) scale(1,1)"><g><path fill="none" stroke="none"/><text fill="#000000" stroke="none" font-family="Arial" font-size="13px" font-style="normal" font-weight="normal" text-decoration="none" x="527.957763671875" y="297.5">«Estado»</text></g></g><g transform="translate(-46,-22) scale(1,1)"><g><path fill="none" stroke="none"/><text fill="#000000" stroke="none" font-family="Arial" font-size="13px" font-style="normal" font-weight="bold" text-decoration="none" x="460.755126953125" y="312.5">Desconfigurado: Desconfigurado</text></g></g><g transform="translate(-46,-22) scale(1,1)"><path fill="#C0C0C0" stroke="none" d="M 481 359 L 573.28271484375 359 Q 583.28271484375 359 583.28271484375 369 L 583.28271484375 402 Q 583.28271484375 412 573.28271484375 412 L 481 412 Q 471 412 471 402 L 471 369 Q 471 359 481 359 Z" opacity="0.2"/></g><g transform="translate(-46,-22) scale(1,1)"><path fill="#ffffff" stroke="none" d="M 474 352 L 566.28271484375 352 Q 576.28271484375 352 576.28271484375 362 L 576.28271484375 395 Q 576.28271484375 405 566.28271484375 405 L 474 405 Q 464 405 464 395 L 464 362 Q 464 352 474 352 Z"/></g><g transform="translate(-46,-22) scale(1,1)"><path fill="none" stroke="#000000" d="M 474 352 L 566.28271484375 352 Q 576.28271484375 352 576.28271484375 362 L 576.28271484375 395 Q 576.28271484375 405 566.28271484375 405 L 474 405 Q 464 405 464 395 L 464 362 Q 464 352 474 352 Z" stroke-miterlimit="10"/></g><g transform="translate(-46,-22) scale(1,1)"><path fill="none" stroke="#000000" d="M 550.28271484375 392 C 550.28271484375 390.3431456 551.62586044375 389 553.28271484375 389 C 554.93956924375 389 556.28271484375 390.3431456 556.28271484375 392 C 556.28271484375 393.6568544 554.93956924375 395 553.28271484375 395 C 551.62586044375 395 550.28271484375 393.6568544 550.28271484375 392 Z" stroke-miterlimit="10"/></g><g transform="translate(-46,-22) scale(1,1)"><path fill="none" stroke="#000000" d="M 556.28271484375 392 L 562.28271484375 392" stroke-miterlimit="10"/></g><g transform="translate(-46,-22) scale(1,1)"><path fill="none" stroke="#000000" d="M 562.28271484375 392 C 562.28271484375 390.3431456 563.62586044375 389 565.28271484375 389 C 566.93956924375 389 568.28271484375 390.3431456 568.28271484375 392 C 568.28271484375 393.6568544 566.93956924375 395 565.28271484375 395 C 563.62586044375 395 562.28271484375 393.6568544 562.28271484375 392 Z" stroke-miterlimit="10"/></g><g transform="translate(-46,-22) scale(1,1)"><g><path fill="none" stroke="none"/><text fill="#000000" stroke="none" font-family="Arial" font-size="13px" font-style="normal" font-weight="normal" text-decoration="none" x="492.675048828125" y="369.5">«Estado»</text></g></g><g transform="translate(-46,-22) scale(1,1)"><g><path fill="none" stroke="none"/><text fill="#000000" stroke="none" font-family="Arial" font-size="13px" font-style="normal" font-weight="bold" text-decoration="none" x="470.991455078125" y="384.5">Dañado: Dañado</text></g></g><g transform="translate(-46,-22) scale(1,1)"><path fill="none" stroke="#000000" d="M 528 216 L 363 216 M 363 216 A 8 8 0 0 0 355 224 L 355 288" stroke-miterlimit="10"/></g><g transform="translate(-46,-22) scale(1,1)"><path fill="none" stroke="#000000" d="M 350.790482243984 277.83732514237585 L 355 288 L 359.209517756016 277.83732514237585" stroke-miterlimit="10"/></g><g transform="translate(-46,-22) scale(1,1)"><g><path fill="none" stroke="none"/><text fill="#000000" stroke="none" font-family="Arial" font-size="13px" font-style="normal" font-weight="normal" text-decoration="none" x="306.5" y="211.5">Tipo de fallo</text></g></g><g transform="translate(-46,-22) scale(1,1)"><path fill="none" stroke="#000000" d="M 366 302 L 448 302" stroke-miterlimit="10"/></g><g transform="translate(-46,-22) scale(1,1)"><path fill="none" stroke="#000000" d="M 437.83732514237585 306.209517756016 L 448 302 L 437.83732514237585 297.790482243984" stroke-miterlimit="10"/></g><g transform="translate(-46,-22) scale(1,1)"><g><path fill="none" stroke="none"/><text fill="#000000" stroke="none" font-family="Arial" font-size="13px" font-style="normal" font-weight="normal" text-decoration="none" x="383.5" y="293.5">Sofware</text></g></g><g transform="translate(-46,-22) scale(1,1)"><path fill="none" stroke="#000000" d="M 355 306 L 355 360 M 355 360 A 8 8 0 0 0 363 368 L 464 368" stroke-miterlimit="10"/></g><g transform="translate(-46,-22) scale(1,1)"><path fill="none" stroke="#000000" d="M 453.83732514237585 372.209517756016 L 464 368 L 453.83732514237585 363.790482243984" stroke-miterlimit="10"/></g><g transform="translate(-46,-22) scale(1,1)"><g><path fill="none" stroke="none"/><text fill="#000000" stroke="none" font-family="Arial" font-size="13px" font-style="normal" font-weight="normal" text-decoration="none" x="367.5" y="397.5">Harware</text></g></g><g transform="translate(-46,-22) scale(1,1)"><path fill="#C0C0C0" stroke="none" d="M 730 295 L 729 295 Q 732 295 732 298 L 732 364 Q 732 367 729 367 L 730 367 Q 727 367 727 364 L 727 298 Q 727 295 730 295 Z" opacity="0.2"/></g><g transform="translate(-46,-22) scale(1,1)"><path fill="#000000" stroke="none" d="M 723 288 L 723 288 Q 726 288 726 291 L 726 357 Q 726 360 723 360 L 723 360 Q 720 360 720 357 L 720 291 Q 720 288 723 288 Z"/></g><g transform="translate(-46,-22) scale(1,1)"><path fill="none" stroke="#000000" d="M 576 376 L 656 376 L 656 344 L 720 344" stroke-miterlimit="10"/></g><g transform="translate(-46,-22) scale(1,1)"><path fill="none" stroke="#000000" d="M 709.8373251423759 348.209517756016 L 720 344 L 709.8373251423758 339.790482243984" stroke-miterlimit="10"/></g><g transform="translate(-46,-22) scale(1,1)"><g><path fill="none" stroke="none"/><text fill="#000000" stroke="none" font-family="Arial" font-size="13px" font-style="normal" font-weight="normal" text-decoration="none" x="622.5" y="388.5">Reparar</text></g></g><g transform="translate(-46,-22) scale(1,1)"><path fill="none" stroke="#000000" d="M 663 312 L 720 312" stroke-miterlimit="10"/></g><g transform="translate(-46,-22) scale(1,1)"><path fill="none" stroke="#000000" d="M 709.8373251423759 316.209517756016 L 720 312 L 709.8373251423758 307.790482243984" stroke-miterlimit="10"/></g><g transform="translate(-46,-22) scale(1,1)"><g><path fill="none" stroke="none"/><text fill="#000000" stroke="none" font-family="Arial" font-size="13px" font-style="normal" font-weight="normal" text-decoration="none" x="667.5" y="303.5">Reparar</text></g></g><g transform="translate(-46,-22) scale(1,1)"><path fill="#C0C0C0" stroke="none" d="M 777 303 L 915.54443359375 303 Q 925.54443359375 303 925.54443359375 313 L 925.54443359375 346 Q 925.54443359375 356 915.54443359375 356 L 777 356 Q 767 356 767 346 L 767 313 Q 767 303 777 303 Z" opacity="0.2"/></g><g transform="translate(-46,-22) scale(1,1)"><path fill="#ffffff" stroke="none" d="M 770 296 L 908.54443359375 296 Q 918.54443359375 296 918.54443359375 306 L 918.54443359375 339 Q 918.54443359375 349 908.54443359375 349 L 770 349 Q 760 349 760 339 L 760 306 Q 760 296 770 296 Z"/></g><g transform="translate(-46,-22) scale(1,1)"><path fill="none" stroke="#000000" d="M 770 296 L 908.54443359375 296 Q 918.54443359375 296 918.54443359375 306 L 918.54443359375 339 Q 918.54443359375 349 908.54443359375 349 L 770 349 Q 760 349 760 339 L 760 306 Q 760 296 770 296 Z" stroke-miterlimit="10"/></g><g transform="translate(-46,-22) scale(1,1)"><path fill="none" stroke="#000000" d="M 892.54443359375 336 C 892.54443359375 334.3431456 893.88757919375 333 895.54443359375 333 C 897.20128799375 333 898.54443359375 334.3431456 898.54443359375 336 C 898.54443359375 337.6568544 897.20128799375 339 895.54443359375 339 C 893.88757919375 339 892.54443359375 337.6568544 892.54443359375 336 Z" stroke-miterlimit="10"/></g><g transform="translate(-46,-22) scale(1,1)"><path fill="none" stroke="#000000" d="M 898.54443359375 336 L 904.54443359375 336" stroke-miterlimit="10"/></g><g transform="translate(-46,-22) scale(1,1)"><path fill="none" stroke="#000000" d="M 904.54443359375 336 C 904.54443359375 334.3431456 905.88757919375 333 907.54443359375 333 C 909.20128799375 333 910.54443359375 334.3431456 910.54443359375 336 C 910.54443359375 337.6568544 909.20128799375 339 907.54443359375 339 C 905.88757919375 339 904.54443359375 337.6568544 904.54443359375 336 Z" stroke-miterlimit="10"/></g><g transform="translate(-46,-22) scale(1,1)"><g><path fill="none" stroke="none"/><text fill="#000000" stroke="none" font-family="Arial" font-size="13px" font-style="normal" font-weight="normal" text-decoration="none" x="811.805908203125" y="313.5">«Estado»</text></g></g><g transform="translate(-46,-22) scale(1,1)"><g><path fill="none" stroke="none"/><text fill="#000000" stroke="none" font-family="Arial" font-size="13px" font-style="normal" font-weight="bold" text-decoration="none" x="769.175048828125" y="328.5">Reparación: Reparación</text></g></g><g transform="translate(-46,-22) scale(1,1)"><path fill="none" stroke="#000000" d="M 725 327 L 760 327" stroke-miterlimit="10"/></g><g transform="translate(-46,-22) scale(1,1)"><path fill="none" stroke="#000000" d="M 749.8373251423759 331.209517756016 L 760 327 L 749.8373251423758 322.790482243984" stroke-miterlimit="10"/></g><g transform="translate(-46,-22) scale(1,1)"><path fill="#C0C0C0" stroke="none" d="M 858 399 L 921 399 Q 924 399 924 402 L 924 401 Q 924 404 921 404 L 858 404 Q 855 404 855 401 L 855 402 Q 855 399 858 399 Z" opacity="0.2"/></g><g transform="translate(-46,-22) scale(1,1)"><path fill="#000000" stroke="none" d="M 851 392 L 914 392 Q 917 392 917 395 L 917 395 Q 917 398 914 398 L 851 398 Q 848 398 848 395 L 848 395 Q 848 392 851 392 Z"/></g><g transform="translate(-46,-22) scale(1,1)"><path fill="none" stroke="#000000" d="M 801 349 L 801 360 M 801 360 A 8 8 0 0 0 809 368 L 848 368 M 848 368 A 8 8 0 0 1 856 376 L 856 392" stroke-miterlimit="10"/></g><g transform="translate(-46,-22) scale(1,1)"><path fill="none" stroke="#000000" d="M 851.790482243984 381.83732514237585 L 856 392 L 860.209517756016 381.83732514237585" stroke-miterlimit="10"/></g><g transform="translate(-46,-22) scale(1,1)"><path fill="none" stroke="#000000" d="M 719 80 L 928 80 M 928 80 A 8 8 0 0 1 936 88 L 936 360 M 936 360 A 8 8 0 0 1 928 368 L 904 368 M 904 368 A 8 8 0 0 0 896 376 L 896 392" stroke-miterlimit="10"/></g><g transform="translate(-46,-22) scale(1,1)"><path fill="none" stroke="#000000" d="M 891.790482243984 381.83732514237585 L 896 392 L 900.209517756016 381.83732514237585" stroke-miterlimit="10"/></g><g transform="translate(-46,-22) scale(1,1)"><path fill="#C0C0C0" stroke="none" d="M 306 407 L 305 407 Q 308 407 308 410 L 308 476 Q 308 479 305 479 L 306 479 Q 303 479 303 476 L 303 410 Q 303 407 306 407 Z" opacity="0.2"/></g><g transform="translate(-46,-22) scale(1,1)"><path fill="#000000" stroke="none" d="M 299 400 L 299 400 Q 302 400 302 403 L 302 469 Q 302 472 299 472 L 299 472 Q 296 472 296 469 L 296 403 Q 296 400 299 400 Z"/></g><g transform="translate(-46,-22) scale(1,1)"><path fill="#C0C0C0" stroke="none" d="M 705 431 L 830.53173828125 431 Q 840.53173828125 431 840.53173828125 441 L 840.53173828125 474 Q 840.53173828125 484 830.53173828125 484 L 705 484 Q 695 484 695 474 L 695 441 Q 695 431 705 431 Z" opacity="0.2"/></g><g transform="translate(-46,-22) scale(1,1)"><path fill="#ffffff" stroke="none" d="M 698 424 L 823.53173828125 424 Q 833.53173828125 424 833.53173828125 434 L 833.53173828125 467 Q 833.53173828125 477 823.53173828125 477 L 698 477 Q 688 477 688 467 L 688 434 Q 688 424 698 424 Z"/></g><g transform="translate(-46,-22) scale(1,1)"><path fill="none" stroke="#000000" d="M 698 424 L 823.53173828125 424 Q 833.53173828125 424 833.53173828125 434 L 833.53173828125 467 Q 833.53173828125 477 823.53173828125 477 L 698 477 Q 688 477 688 467 L 688 434 Q 688 424 698 424 Z" stroke-miterlimit="10"/></g><g transform="translate(-46,-22) scale(1,1)"><path fill="none" stroke="#000000" d="M 807.53173828125 464 C 807.53173828125 462.3431456 808.87488388125 461 810.53173828125 461 C 812.18859268125 461 813.53173828125 462.3431456 813.53173828125 464 C 813.53173828125 465.6568544 812.18859268125 467 810.53173828125 467 C 808.87488388125 467 807.53173828125 465.6568544 807.53173828125 464 Z" stroke-miterlimit="10"/></g><g transform="translate(-46,-22) scale(1,1)"><path fill="none" stroke="#000000" d="M 813.53173828125 464 L 819.53173828125 464" stroke-miterlimit="10"/></g><g transform="translate(-46,-22) scale(1,1)"><path fill="none" stroke="#000000" d="M 819.53173828125 464 C 819.53173828125 462.3431456 820.87488388125 461 822.53173828125 461 C 824.18859268125 461 825.53173828125 462.3431456 825.53173828125 464 C 825.53173828125 465.6568544 824.18859268125 467 822.53173828125 467 C 820.87488388125 467 819.53173828125 465.6568544 819.53173828125 464 Z" stroke-miterlimit="10"/></g><g transform="translate(-46,-22) scale(1,1)"><g><path fill="none" stroke="none"/><text fill="#000000" stroke="none" font-family="Arial" font-size="13px" font-style="normal" font-weight="normal" text-decoration="none" x="733.299560546875" y="441.5">«Estado»</text></g></g><g transform="translate(-46,-22) scale(1,1)"><g><path fill="none" stroke="none"/><text fill="#000000" stroke="none" font-family="Arial" font-size="13px" font-style="normal" font-weight="bold" text-decoration="none" x="697.175048828125" y="456.5">Operación: Operación</text></g></g><g transform="translate(-46,-22) scale(1,1)"><path fill="none" stroke="#000000" d="M 888 397 L 888 432 M 888 432 A 8 8 0 0 1 880 440 L 834 440" stroke-miterlimit="10"/></g><g transform="translate(-46,-22) scale(1,1)"><path fill="none" stroke="#000000" d="M 844.1626748576241 435.790482243984 L 834 440 L 844.1626748576241 444.209517756016" stroke-miterlimit="10"/></g><g transform="translate(-46,-22) scale(1,1)"><g><path fill="none" stroke="none"/><text fill="#000000" stroke="none" font-family="Arial" font-size="13px" font-style="normal" font-weight="normal" text-decoration="none" x="854.5" y="461.5">Trabajando</text></g></g><g transform="translate(-46,-22) scale(1,1)"><path fill="none" stroke="#000000" d="M 688 442 L 301 442" stroke-miterlimit="10"/></g><g transform="translate(-46,-22) scale(1,1)"><path fill="none" stroke="#000000" d="M 311.16267485762415 437.790482243984 L 301 442 L 311.16267485762415 446.209517756016" stroke-miterlimit="10"/></g><g transform="translate(-46,-22) scale(1,1)"><g><path fill="none" stroke="none"/><text fill="#000000" stroke="none" font-family="Arial" font-size="13px" font-style="normal" font-weight="normal" text-decoration="none" x="468.2236328125" y="463.5">Finalizar</text></g></g><g transform="translate(-46,-22) scale(1,1)"><path fill="none" stroke="#000000" d="M 296 416 L 248 416 M 248 416 A 8 8 0 0 1 240 408 L 240 173" stroke-miterlimit="10"/></g><g transform="translate(-46,-22) scale(1,1)"><path fill="none" stroke="#000000" d="M 244.209517756016 183.16267485762415 L 240 173 L 235.790482243984 183.16267485762415" stroke-miterlimit="10"/></g><g transform="translate(-46,-22) scale(1,1)"><g><path fill="none" stroke="none"/><text fill="#000000" stroke="none" font-family="Arial" font-size="13px" font-style="normal" font-weight="normal" text-decoration="none" x="255.20361328125" y="340.5">Reiniciar</text></g></g><g transform="translate(-46,-22) scale(1,1)"><path fill="#C0C0C0" stroke="none" d="M 119 467.5 C 119 460.59644 124.59644 455 131.5 455 C 138.40356 455 144 460.59644 144 467.5 C 144 474.40356 138.40356 480 131.5 480 C 124.59644 480 119 474.40356 119 467.5 Z" opacity="0.2"/></g><g transform="translate(-46,-22) scale(1,1)"><path fill="none" stroke="#000000" d="M 112 460.5 C 112 453.59644 117.59644 448 124.5 448 C 131.40356 448 137 453.59644 137 460.5 C 137 467.40356 131.40356 473 124.5 473 C 117.59644 473 112 467.40356 112 460.5 Z" stroke-miterlimit="10"/></g><g transform="translate(-46,-22) scale(1,1)"><path fill="#000000" stroke="none" d="M 117 460.5 C 117 456.357864 120.357864 453 124.5 453 C 128.642136 453 132 456.357864 132 460.5 C 132 464.642136 128.642136 468 124.5 468 C 120.357864 468 117 464.642136 117 460.5 Z"/></g><g transform="translate(-46,-22) scale(1,1)"><path fill="none" stroke="#000000" d="M 296 458 L 137 458" stroke-miterlimit="10"/></g><g transform="translate(-46,-22) scale(1,1)"><path fill="none" stroke="#000000" d="M 147.16267485762415 453.790482243984 L 137 458 L 147.16267485762415 462.209517756016" stroke-miterlimit="10"/></g><g transform="translate(-46,-22) scale(1,1)"><g><path fill="none" stroke="none"/><text fill="#000000" stroke="none" font-family="Arial" font-size="13px" font-style="normal" font-weight="normal" text-decoration="none" x="194.5" y="479.5">Apagar</text></g></g></g></svg>