<svg version="1.1" xmlns="http://www.w3.org/2000/svg" xmlns:xlink="http://www.w3.org/1999/xlink" width="940" height="508"><defs/><g><text fill="#eeeeee" stroke="none" font-family="Arial" font-size="24px" font-style="normal" font-weight="normal" text-decoration="none" x="0" y="0">UNREGISTERED</text><text fill="#eeeeee" stroke="none" font-family="Arial" font-size="24px" font-style="normal" font-weight="normal" text-decoration="none" x="0" y="30">UNREGISTERED</text><text fill="#eeeeee" stroke="none" font-family="Arial" font-size="24px" font-style="normal" font-weight="normal" text-decoration="none" x="0" y="60">UNREGISTERED</text><text fill="#eeeeee" stroke="none" font-family="Arial" font-size="24px" font-style="normal" font-weight="normal" text-decoration="none" x="0" y="90">UNREGISTERED</text><text fill="#eeeeee" stroke="none" font-family="Arial" font-size="24px" font-style="normal" font-weight="normal" text-decoration="none" x="0" y="120">UNREGISTERED</text><text fill="#eeeeee" stroke="none" font-family="Arial" font-size="24px" font-style="normal" font-weight="normal" text-decoration="none" x="0" y="150">UNREGISTERED</text><text fill="#eeeeee" stroke="none" font-family="Arial" font-size="24px" font-style="normal" font-weight="normal" text-decoration="none" x="0" y="180">UNREGISTERED</text><text fill="#eeeeee" stroke="none" font-family="Arial" font-size="24px" font-style="normal" font-weight="normal" text-decoration="none" x="0" y="210">UNREGISTERED</text><text fill="#eeeeee" stroke="none" font-family="Arial" font-size="24px" font-style="normal" font-weight="normal" text-decoration="none" x="0" y="240">UNREGISTERED</text><text fill="#eeeeee" stroke="none" font-family="Arial" font-size="24px" font-style="normal" font-weight="normal" text-decoration="none" x="0" y="270">UNREGISTERED</text><text fill="#eeeeee" stroke="none" font-family="Arial" font-size="24px" font-style="normal" font-weight="normal" text-decoration="none" x="0" y="300">UNREGISTERED</text><text fill="#eeeeee" stroke="none" font-family="Arial" font-size="24px" font-style="normal" font-weight="normal" text-decoration="none" x="0" y="330">UNREGISTERED</text><text fill="#eeeeee" stroke="none" font-family="Arial" font-size="24px" font-style="normal" font-weight="normal" text-decoration="none" x="0" y="360">UNREGISTERED</text><text fill="#eeeeee" stroke="none" font-family="Arial" font-size="24px" font-style="normal" font-weight="normal" text-decoration="none" x="0" y="390">UNREGISTERED</text><text fill="#eeeeee" stroke="none" font-family="Arial" font-size="24px" font-style="normal" font-weight="normal" text-decoration="none" x="0" y="420">UNREGISTERED</text><text fill="#eeeeee" stroke="none" font-family="Arial" font-size="24px" font-style="normal" font-weight="normal" text-decoration="none" x="0" y="450">UNREGISTERED</text><text fill="#eeeeee" stroke="none" font-family="Arial" font-size="24px" font-style="normal" font-weight="normal" text-decoration="none" x="0" y="480">UNREGISTERED</text><text fill="#eeeeee" stroke="none" font-family="Arial" font-size="24px" font-style="normal" font-weight="normal" text-decoration="none" x="200" y="0">UNREGISTERED</text><text fill="#eeeeee" stroke="none" font-family="Arial" font-size="24px" font-style="normal" font-weight="normal" text-decoration="none" x="200" y="30">UNREGISTERED</text><text fill="#eeeeee" stroke="none" font-family="Arial" font-size="24px" font-style="normal" font-weight="normal" text-decoration="none" x="200" y="60">UNREGISTERED</text><text fill="#eeeeee" stroke="none" font-family="Arial" font-size="24px" font-style="normal" font-weight="normal" text-decoration="none" x="200" y="90">UNREGISTERED</text><text fill="#eeeeee" stroke="none" font-family="Arial" font-size="24px" font-style="normal" font-weight="normal" text-decoration="none" x="200" y="120">UNREGISTERED</text><text fill="#eeeeee" stroke="none" font-family="Arial" font-size="24px" font-style="normal" font-weight="normal" text-decoration="none" x="200" y="150">UNREGISTERED</text><text fill="#eeeeee" stroke="none" font-family="Arial" font-size="24px" font-style="normal" font-weight="normal" text-decoration="none" x="200" y="180">UNREGISTERED</text><text fill="#eeeeee" stroke="none" font-family="Arial" font-size="24px" font-style="normal" font-weight="normal" text-decoration="none" x="200" y="210">UNREGISTERED</text><text fill="#eeeeee" stroke="none" font-family="Arial" font-size="24px" font-style="normal" font-weight="normal" text-decoration="none" x="200" y="240">UNREGISTERED</text><text fill="#eeeeee" stroke="none" font-family="Arial" font-size="24px" font-style="normal" font-weight="normal" text-decoration="none" x="200" y="270">UNREGISTERED</text><text fill="#eeeeee" stroke="none" font-family="Arial" font-size="24px" font-style="normal" font-weight="normal" text-decoration="none" x="200" y="300">UNREGISTERED</text><text fill="#eeeeee" stroke="none" font-family="Arial" font-size="24px" font-style="normal" font-weight="normal" text-decoration="none" x="200" y="330">UNREGISTERED</text><text fill="#eeeeee" stroke="none" font-family="Arial" font-size="24px" font-style="normal" font-weight="normal" text-decoration="none" x="200" y="360">UNREGISTERED</text><text fill="#eeeeee" stroke="none" font-family="Arial" font-size="24px" font-style="normal" font-weight="normal" text-decoration="none" x="200" y="390">UNREGISTERED</text><text fill="#eeeeee" stroke="none" font-family="Arial" font-size="24px" font-style="normal" font-weight="normal" text-decoration="none" x="200" y="420">UNREGISTERED</text><text fill="#eeeeee" stroke="none" font-family="Arial" font-size="24px" font-style="normal" font-weight="normal" text-decoration="none" x="200" y="450">UNREGISTERED</text><text fill="#eeeeee" stroke="none" font-family="Arial" font-size="24px" font-style="normal" font-weight="normal" text-decoration="none" x="200" y="480">UNREGISTERED</text><text fill="#eeeeee" stroke="none" font-family="Arial" font-size="24px" font-style="normal" font-weight="normal" text-decoration="none" x="400" y="0">UNREGISTERED</text><text fill="#eeeeee" stroke="none" font-family="Arial" font-size="24px" font-style="normal" font-weight="normal" text-decoration="none" x="400" y="30">UNREGISTERED</text><text fill="#eeeeee" stroke="none" font-family="Arial" font-size="24px" font-style="normal" font-weight="normal" text-decoration="none" x="400" y="60">UNREGISTERED</text><text fill="#eeeeee" stroke="none" font-family="Arial" font-size="24px" font-style="normal" font-weight="normal" text-decoration="none" x="400" y="90">UNREGISTERED</text><text fill="#eeeeee" stroke="none" font-family="Arial" font-size="24px" font-style="normal" font-weight="normal" text-decoration="none" x="400" y="120">UNREGISTERED</text><text fill="#eeeeee" stroke="none" font-family="Arial" font-size="24px" font-style="normal" font-weight="normal" text-decoration="none" x="400" y="150">UNREGISTERED</text><text fill="#eeeeee" stroke="none" font-family="Arial" font-size="24px" font-style="normal" font-weight="normal" text-decoration="none" x="400" y="180">UNREGISTERED</text><text fill="#eeeeee" stroke="none" font-family="Arial" font-size="24px" font-style="normal" font-weight="normal" text-decoration="none" x="400" y="210">UNREGISTERED</text><text fill="#eeeeee" stroke="none" font-family="Arial" font-size="24px" font-style="normal" font-weight="normal" text-decoration="none" x="400" y="240">UNREGISTERED</text><text fill="#eeeeee" stroke="none" font-family="Arial" font-size="24px" font-style="normal" font-weight="normal" text-decoration="none" x="400" y="270">UNREGISTERED</text><text fill="#eeeeee" stroke="none" font-family="Arial" font-size="24px" font-style="normal" font-weight="normal" text-decoration="none" x="400" y="300">UNREGISTERED</text><text fill="#eeeeee" stroke="none" font-family="Arial" font-size="24px" font-style="normal" font-weight="normal" text-decoration="none" x="400" y="330">UNREGISTERED</text><text fill="#eeeeee" stroke="none" font-family="Arial" font-size="24px" font-style="normal" font-weight="normal" text-decoration="none" x="400" y="360">UNREGISTERED</text><text fill="#eeeeee" stroke="none" font-family="Arial" font-size="24px" font-style="normal" font-weight="normal" text-decoration="none" x="400" y="390">UNREGISTERED</text><text fill="#eeeeee" stroke="none" font-family="Arial" font-size="24px" font-style="normal" font-weight="normal" text-decoration="none" x="400" y="420">UNREGISTERED</text><text fill="#eeeeee" stroke="none" font-family="Arial" font-size="24px" font-style="normal" font-weight="normal" text-decoration="none" x="400" y="450">UNREGISTERED</text><text fill="#eeeeee" stroke="none" font-family="Arial" font-size="24px" font-style="normal" font-weight="normal" text-decoration="none" x="400" y="480">UNREGISTERED</text><text fill="#eeeeee" stroke="none" font-family="Arial" font-size="24px" font-style="normal" font-weight="normal" text-decoration="none" x="600" y="0">UNREGISTERED</text><text fill="#eeeeee" stroke="none" font-family="Arial" font-size="24px" font-style="normal" font-weight="normal" text-decoration="none" x="600" y="30">UNREGISTERED</text><text fill="#eeeeee" stroke="none" font-family="Arial" font-size="24px" font-style="normal" font-weight="normal" text-decoration="none" x="600" y="60">UNREGISTERED</text><text fill="#eeeeee" stroke="none" font-family="Arial" font-size="24px" font-style="normal" font-weight="normal" text-decoration="none" x="600" y="90">UNREGISTERED</text><text fill="#eeeeee" stroke="none" font-family="Arial" font-size="24px" font-style="normal" font-weight="normal" text-decoration="none" x="600" y="120">UNREGISTERED</text><text fill="#eeeeee" stroke="none" font-family="Arial" font-size="24px" font-style="normal" font-weight="normal" text-decoration="none" x="600" y="150">UNREGISTERED</text><text fill="#eeeeee" stroke="none" font-family="Arial" font-size="24px" font-style="normal" font-weight="normal" text-decoration="none" x="600" y="180">UNREGISTERED</text><text fill="#eeeeee" stroke="none" font-family="Arial" font-size="24px" font-style="normal" font-weight="normal" text-decoration="none" x="600" y="210">UNREGISTERED</text><text fill="#eeeeee" stroke="none" font-family="Arial" font-size="24px" font-style="normal" font-weight="normal" text-decoration="none" x="600" y="240">UNREGISTERED</text><text fill="#eeeeee" stroke="none" font-family="Arial" font-size="24px" font-style="normal" font-weight="normal" text-decoration="none" x="600" y="270">UNREGISTERED</text><text fill="#eeeeee" stroke="none" font-family="Arial" font-size="24px" font-style="normal" font-weight="normal" text-decoration="none" x="600" y="300">UNREGISTERED</text><text fill="#eeeeee" stroke="none" font-family="Arial" font-size="24px" font-style="normal" font-weight="normal" text-decoration="none" x="600" y="330">UNREGISTERED</text><text fill="#eeeeee" stroke="none" font-family="Arial" font-size="24px" font-style="normal" font-weight="normal" text-decoration="none" x="600" y="360">UNREGISTERED</text><text fill="#eeeeee" stroke="none" font-family="Arial" font-size="24px" font-style="normal" font-weight="normal" text-decoration="none" x="600" y="390">UNREGISTERED</text><text fill="#eeeeee" stroke="none" font-family="Arial" font-size="24px" font-style="normal" font-weight="normal" text-decoration="none" x="600" y="420">UNREGISTERED</text><text fill="#eeeeee" stroke="none" font-family="Arial" font-size="24px" font-style="normal" font-weight="normal" text-decoration="none" x="600" y="450">UNREGISTERED</text><text fill="#eeeeee" stroke="none" font-family="Arial" font-size="24px" font-style="normal" font-weight="normal" text-decoration="none" x="600" y="480">UNREGISTERED</text><text fill="#eeeeee" stroke="none" font-family="Arial" font-size="24px" font-style="normal" font-weight="normal" text-decoration="none" x="800" y="0">UNREGISTERED</text><text fill="#eeeeee" stroke="none" font-family="Arial" font-size="24px" font-style="normal" font-weight="normal" text-decoration="none" x="800" y="30">UNREGISTERED</text><text fill="#eeeeee" stroke="none" font-family="Arial" font-size="24px" font-style="normal" font-weight="normal" text-decoration="none" x="800" y="60">UNREGISTERED</text><text fill="#eeeeee" stroke="none" font-family="Arial" font-size="24px" font-style="normal" font-weight="normal" text-decoration="none" x="800" y="90">UNREGISTERED</text><text fill="#eeeeee" stroke="none" font-family="Arial" font-size="24px" font-style="normal" font-weight="normal" text-decoration="none" x="800" y="120">UNREGISTERED</text><text fill="#eeeeee" stroke="none" font-family="Arial" font-size="24px" font-style="normal" font-weight="normal" text-decoration="none" x="800" y="150">UNREGISTERED</text><text fill="#eeeeee" stroke="none" font-family="Arial" font-size="24px" font-style="normal" font-weight="normal" text-decoration="none" x="800" y="180">UNREGISTERED</text><text fill="#eeeeee" stroke="none" font-family="Arial" font-size="24px" font-style="normal" font-weight="normal" text-decoration="none" x="800" y="210">UNREGISTERED</text><text fill="#eeeeee" stroke="none" font-family="Arial" font-size="24px" font-style="normal" font-weight="normal" text-decoration="none" x="800" y="240">UNREGISTERED</text><text fill="#eeeeee" stroke="none" font-family="Arial" font-size="24px" font-style="normal" font-weight="normal" text-decoration="none" x="800" y="270">UNREGISTERED</text><text fill="#eeeeee" stroke="none" font-family="Arial" font-size="24px" font-style="normal" font-weight="normal" text-decoration="none" x="800" y="300">UNREGISTERED</text><text fill="#eeeeee" stroke="none" font-family="Arial" font-size="24px" font-style="normal" font-weight="normal" text-decoration="none" x="800" y="330">UNREGISTERED</text><text fill="#eeeeee" stroke="none" font-family="Arial" font-size="24px" font-style="normal" font-weight="normal" text-decoration="none" x="800" y="360">UNREGISTERED</text><text fill="#eeeeee" stroke="none" font-family="Arial" font-size="24px" font-style="normal" font-weight="normal" text-decoration="none" x="800" y="390">UNREGISTERED</text><text fill="#eeeeee" stroke="none" font-family="Arial" font-size="24px" font-style="normal" font-weight="normal" text-decoration="none" x="800" y="420">UNREGISTERED</text><text fill="#eeeeee" stroke="none" font-family="Arial" font-size="24px" font-style="normal" font-weight="normal" text-decoration="none" x="800" y="450">UNREGISTERED</text><text fill="#eeeeee" stroke="none" font-family="Arial" font-size="24px" font-style="normal" font-weight="normal" text-decoration="none" x="800" y="480">UNREGISTERED</text><g transform="translate(-46,-14) scale(1,1)"><path fill="none" stroke="#000000" d="M 56 24 L 976 24 L 976 512 L 56 512 L 56 24" stroke-miterlimit="10"/></g><g transform="translate(-46,-14) scale(1,1)"><path fill="#ffffff" stroke="none" d="M 56 24 L 56 46 L 216.49169921875 46 L 227.49169921875 35 L 227.49169921875 24 L 56 24"/></g><g transform="translate(-46,-14) scale(1,1)"><path fill="none" stroke="#000000" d="M 56 24 L 56 46 L 216.49169921875 46 L 227.49169921875 35 L 227.49169921875 24 L 56 24 L 56 24" stroke-miterlimit="10"/></g><g transform="translate(-46,-14) scale(1,1)"><g><path fill="none" stroke="none"/><text fill="#000000" stroke="none" font-family="Arial" font-size="13px" font-style="normal" font-weight="normal" text-decoration="none" x="96.6181640625" y="41.5">Dispositivos Finales</text></g></g><g transform="translate(-46,-14) scale(1,1)"><g><path fill="none" stroke="none"/><text fill="#000000" stroke="none" font-family="Arial" font-size="13px" font-style="normal" font-weight="bold" text-decoration="none" x="61" y="41.5">class</text></g></g><g transform="translate(-46,-14) scale(1,1)"><path fill="#C0C0C0" stroke="none" d="M 111 152.5 C 111 147.2532944 115.2532944 143 120.5 143 C 125.7467056 143 130 147.2532944 130 152.5 C 130 157.7467056 125.7467056 162 120.5 162 C 115.2532944 162 111 157.7467056 111 152.5 Z" opacity="0.2"/></g><g transform="translate(-46,-14) scale(1,1)"><path fill="#000000" stroke="none" d="M 104 145.5 C 104 140.2532944 108.2532944 136 113.5 136 C 118.7467056 136 123 140.2532944 123 145.5 C 123 150.7467056 118.7467056 155 113.5 155 C 108.2532944 155 104 150.7467056 104 145.5 Z"/></g><g transform="translate(-46,-14) scale(1,1)"><path fill="#C0C0C0" stroke="none" d="M 241 127 L 370.83544921875 127 Q 380.83544921875 127 380.83544921875 137 L 380.83544921875 170 Q 380.83544921875 180 370.83544921875 180 L 241 180 Q 231 180 231 170 L 231 137 Q 231 127 241 127 Z" opacity="0.2"/></g><g transform="translate(-46,-14) scale(1,1)"><path fill="#ffffff" stroke="none" d="M 234 120 L 363.83544921875 120 Q 373.83544921875 120 373.83544921875 130 L 373.83544921875 163 Q 373.83544921875 173 363.83544921875 173 L 234 173 Q 224 173 224 163 L 224 130 Q 224 120 234 120 Z"/></g><g transform="translate(-46,-14) scale(1,1)"><path fill="none" stroke="#000000" d="M 234 120 L 363.83544921875 120 Q 373.83544921875 120 373.83544921875 130 L 373.83544921875 163 Q 373.83544921875 173 363.83544921875 173 L 234 173 Q 224 173 224 163 L 224 130 Q 224 120 234 120 Z" stroke-miterlimit="10"/></g><g transform="translate(-46,-14) scale(1,1)"><path fill="none" stroke="#000000" d="M 347.83544921875 160 C 347.83544921875 158.3431456 349.17859481875 157 350.83544921875 157 C 352.49230361875 157 353.83544921875 158.3431456 353.83544921875 160 C 353.83544921875 161.6568544 352.49230361875 163 350.83544921875 163 C 349.17859481875 163 347.83544921875 161.6568544 347.83544921875 160 Z" stroke-miterlimit="10"/></g><g transform="translate(-46,-14) scale(1,1)"><path fill="none" stroke="#000000" d="M 353.83544921875 160 L 359.83544921875 160" stroke-miterlimit="10"/></g><g transform="translate(-46,-14) scale(1,1)"><path fill="none" stroke="#000000" d="M 359.83544921875 160 C 359.83544921875 158.3431456 361.17859481875 157 362.83544921875 157 C 364.49230361875 157 365.83544921875 158.3431456 365.83544921875 160 C 365.83544921875 161.6568544 364.49230361875 163 362.83544921875 163 C 361.17859481875 163 359.83544921875 161.6568544 359.83544921875 160 Z" stroke-miterlimit="10"/></g><g transform="translate(-46,-14) scale(1,1)"><g><path fill="none" stroke="none"/><text fill="#000000" stroke="none" font-family="Arial" font-size="13px" font-style="normal" font-weight="normal" text-decoration="none" x="271.451416015625" y="137.5">«Estado»</text></g></g><g transform="translate(-46,-14) scale(1,1)"><g><path fill="none" stroke="none"/><text fill="#000000" stroke="none" font-family="Arial" font-size="13px" font-style="normal" font-weight="bold" text-decoration="none" x="233.866943359375" y="152.5">Encendido: Encendido</text></g></g><g transform="translate(-46,-14) scale(1,1)"><path fill="none" stroke="#000000" d="M 123 145 L 224 145" stroke-miterlimit="10"/></g><g transform="translate(-46,-14) scale(1,1)"><path fill="none" stroke="#000000" d="M 213.83732514237585 149.209517756016 L 224 145 L 213.83732514237585 140.790482243984" stroke-miterlimit="10"/></g><g transform="translate(-46,-14) scale(1,1)"><g><path fill="none" stroke="none"/><text fill="#000000" stroke="none" font-family="Arial" font-size="13px" font-style="normal" font-weight="normal" text-decoration="none" x="130.919921875" y="180.5">Energizar</text></g></g><g transform="translate(-46,-14) scale(1,1)"><path fill="#C0C0C0" stroke="none" d="M 617 63 L 748.28271484375 63 Q 758.28271484375 63 758.28271484375 73 L 758.28271484375 106 Q 758.28271484375 116 748.28271484375 116 L 617 116 Q 607 116 607 106 L 607 73 Q 607 63 617 63 Z" opacity="0.2"/></g><g transform="translate(-46,-14) scale(1,1)"><path fill="#ffffff" stroke="none" d="M 610 56 L 741.28271484375 56 Q 751.28271484375 56 751.28271484375 66 L 751.28271484375 99 Q 751.28271484375 109 741.28271484375 109 L 610 109 Q 600 109 600 99 L 600 66 Q 600 56 610 56 Z"/></g><g transform="translate(-46,-14) scale(1,1)"><path fill="none" stroke="#000000" d="M 610 56 L 741.28271484375 56 Q 751.28271484375 56 751.28271484375 66 L 751.28271484375 99 Q 751.28271484375 109 741.28271484375 109 L 610 109 Q 600 109 600 99 L 600 66 Q 600 56 610 56 Z" stroke-miterlimit="10"/></g><g transform="translate(-46,-14) scale(1,1)"><path fill="none" stroke="#000000" d="M 725.28271484375 96 C 725.28271484375 94.3431456 726.62586044375 93 728.28271484375 93 C 729.93956924375 93 731.28271484375 94.3431456 731.28271484375 96 C 731.28271484375 97.6568544 729.93956924375 99 728.28271484375 99 C 726.62586044375 99 725.28271484375 97.6568544 725.28271484375 96 Z" stroke-miterlimit="10"/></g><g transform="translate(-46,-14) scale(1,1)"><path fill="none" stroke="#000000" d="M 731.28271484375 96 L 737.28271484375 96" stroke-miterlimit="10"/></g><g transform="translate(-46,-14) scale(1,1)"><path fill="none" stroke="#000000" d="M 737.28271484375 96 C 737.28271484375 94.3431456 738.62586044375 93 740.28271484375 93 C 741.93956924375 93 743.28271484375 94.3431456 743.28271484375 96 C 743.28271484375 97.6568544 741.93956924375 99 740.28271484375 99 C 738.62586044375 99 737.28271484375 97.6568544 737.28271484375 96 Z" stroke-miterlimit="10"/></g><g transform="translate(-46,-14) scale(1,1)"><g><path fill="none" stroke="none"/><text fill="#000000" stroke="none" font-family="Arial" font-size="13px" font-style="normal" font-weight="normal" text-decoration="none" x="648.175048828125" y="73.5">«Estado»</text></g></g><g transform="translate(-46,-14) scale(1,1)"><g><path fill="none" stroke="none"/><text fill="#000000" stroke="none" font-family="Arial" font-size="13px" font-style="normal" font-weight="bold" text-decoration="none" x="609.149658203125" y="88.5">Conectado: Conectado</text></g></g><g transform="translate(-46,-14) scale(1,1)"><path fill="#C0C0C0" stroke="none" d="M 593 191 L 767.66259765625 191 Q 777.66259765625 191 777.66259765625 201 L 777.66259765625 234 Q 777.66259765625 244 767.66259765625 244 L 593 244 Q 583 244 583 234 L 583 201 Q 583 191 593 191 Z" opacity="0.2"/></g><g transform="translate(-46,-14) scale(1,1)"><path fill="#ffffff" stroke="none" d="M 586 184 L 760.66259765625 184 Q 770.66259765625 184 770.66259765625 194 L 770.66259765625 227 Q 770.66259765625 237 760.66259765625 237 L 586 237 Q 576 237 576 227 L 576 194 Q 576 184 586 184 Z"/></g><g transform="translate(-46,-14) scale(1,1)"><path fill="none" stroke="#000000" d="M 586 184 L 760.66259765625 184 Q 770.66259765625 184 770.66259765625 194 L 770.66259765625 227 Q 770.66259765625 237 760.66259765625 237 L 586 237 Q 576 237 576 227 L 576 194 Q 576 184 586 184 Z" stroke-miterlimit="10"/></g><g transform="translate(-46,-14) scale(1,1)"><path fill="none" stroke="#000000" d="M 744.66259765625 224 C 744.66259765625 222.3431456 746.00574325625 221 747.66259765625 221 C 749.31945205625 221 750.66259765625 222.3431456 750.66259765625 224 C 750.66259765625 225.6568544 749.31945205625 227 747.66259765625 227 C 746.00574325625 227 744.66259765625 225.6568544 744.66259765625 224 Z" stroke-miterlimit="10"/></g><g transform="translate(-46,-14) scale(1,1)"><path fill="none" stroke="#000000" d="M 750.66259765625 224 L 756.66259765625 224" stroke-miterlimit="10"/></g><g transform="translate(-46,-14) scale(1,1)"><path fill="none" stroke="#000000" d="M 756.66259765625 224 C 756.66259765625 222.3431456 758.00574325625 221 759.66259765625 221 C 761.31945205625 221 762.66259765625 222.3431456 762.66259765625 224 C 762.66259765625 225.6568544 761.31945205625 227 759.66259765625 227 C 758.00574325625 227 756.66259765625 225.6568544 756.66259765625 224 Z" stroke-miterlimit="10"/></g><g transform="translate(-46,-14) scale(1,1)"><g><path fill="none" stroke="none"/><text fill="#000000" stroke="none" font-family="Arial" font-size="13px" font-style="normal" font-weight="normal" text-decoration="none" x="645.864990234375" y="201.5">«Estado»</text></g></g><g transform="translate(-46,-14) scale(1,1)"><g><path fill="none" stroke="none"/><text fill="#000000" stroke="none" font-family="Arial" font-size="13px" font-style="normal" font-weight="bold" text-decoration="none" x="586.609619140625" y="216.5">Desconectado: Desconectado</text></g></g><g transform="translate(-46,-14) scale(1,1)"><path fill="#C0C0C0" stroke="none" d="M 479 152 C 479 147.0294368 483.9248672 143 490 143 C 496.0751328 143 501 147.0294368 501 152 C 501 156.9705632 496.0751328 161 490 161 C 483.9248672 161 479 156.9705632 479 152 Z" opacity="0.2"/></g><g transform="translate(-46,-14) scale(1,1)"><path fill="#000000" stroke="none" d="M 472 145 C 472 140.0294368 476.9248672 136 483 136 C 489.0751328 136 494 140.0294368 494 145 C 494 149.9705632 489.0751328 154 483 154 C 476.9248672 154 472 149.9705632 472 145 Z"/></g><g transform="translate(-46,-14) scale(1,1)"><path fill="none" stroke="#000000" d="M 472 145 C 472 140.0294368 476.9248672 136 483 136 C 489.0751328 136 494 140.0294368 494 145 C 494 149.9705632 489.0751328 154 483 154 C 476.9248672 154 472 149.9705632 472 145 Z" stroke-miterlimit="10"/></g><g transform="translate(-46,-14) scale(1,1)"><path fill="none" stroke="#000000" d="M 374 142 L 472 142" stroke-miterlimit="10"/></g><g transform="translate(-46,-14) scale(1,1)"><path fill="none" stroke="#000000" d="M 461.83732514237585 146.209517756016 L 472 142 L 461.83732514237585 137.790482243984" stroke-miterlimit="10"/></g><g transform="translate(-46,-14) scale(1,1)"><g><path fill="none" stroke="none"/><text fill="#000000" stroke="none" font-family="Arial" font-size="13px" font-style="normal" font-weight="normal" text-decoration="none" x="385.5" y="133.5">Acceso a red</text></g></g><g transform="translate(-46,-14) scale(1,1)"><path fill="none" stroke="#000000" d="M 495 141 L 599 107" stroke-miterlimit="10"/></g><g transform="translate(-46,-14) scale(1,1)"><path fill="none" stroke="#000000" d="M 590.6484857896584 114.15906491061939 L 599 107 L 588.032364323438 106.15681101394526" stroke-miterlimit="10"/></g><g transform="translate(-46,-14) scale(1,1)"><g><path fill="none" stroke="none"/><text fill="#000000" stroke="none" font-family="Arial" font-size="13px" font-style="normal" font-weight="normal" text-decoration="none" x="514.05908203125" y="114.5">Si :  [Hay]</text></g></g><g transform="translate(-46,-14) scale(1,1)"><path fill="none" stroke="#000000" d="M 495 149 L 594 183" stroke-miterlimit="10"/></g><g transform="translate(-46,-14) scale(1,1)"><path fill="none" stroke="#000000" d="M 583.0210571466387 183.68030421329442 L 594 183 L 585.7556673356383 175.7177627806189" stroke-miterlimit="10"/></g><g transform="translate(-46,-14) scale(1,1)"><g><path fill="none" stroke="none"/><text fill="#000000" stroke="none" font-family="Arial" font-size="13px" font-style="normal" font-weight="normal" text-decoration="none" x="486.80908203125" y="183.5">No :  [Hay]</text></g></g><g transform="translate(-46,-14) scale(1,1)"><path fill="#C0C0C0" stroke="none" d="M 351 304 C 351 299.0294368 355.9248672 295 362 295 C 368.0751328 295 373 299.0294368 373 304 C 373 308.9705632 368.0751328 313 362 313 C 355.9248672 313 351 308.9705632 351 304 Z" opacity="0.2"/></g><g transform="translate(-46,-14) scale(1,1)"><path fill="#000000" stroke="none" d="M 344 297 C 344 292.0294368 348.9248672 288 355 288 C 361.0751328 288 366 292.0294368 366 297 C 366 301.9705632 361.0751328 306 355 306 C 348.9248672 306 344 301.9705632 344 297 Z"/></g><g transform="translate(-46,-14) scale(1,1)"><path fill="none" stroke="#000000" d="M 344 297 C 344 292.0294368 348.9248672 288 355 288 C 361.0751328 288 366 292.0294368 366 297 C 366 301.9705632 361.0751328 306 355 306 C 348.9248672 306 344 301.9705632 344 297 Z" stroke-miterlimit="10"/></g><g transform="translate(-46,-14) scale(1,1)"><path fill="#C0C0C0" stroke="none" d="M 465 287 L 659.84814453125 287 Q 669.84814453125 287 669.84814453125 297 L 669.84814453125 330 Q 669.84814453125 340 659.84814453125 340 L 465 340 Q 455 340 455 330 L 455 297 Q 455 287 465 287 Z" opacity="0.2"/></g><g transform="translate(-46,-14) scale(1,1)"><path fill="#ffffff" stroke="none" d="M 458 280 L 652.84814453125 280 Q 662.84814453125 280 662.84814453125 290 L 662.84814453125 323 Q 662.84814453125 333 652.84814453125 333 L 458 333 Q 448 333 448 323 L 448 290 Q 448 280 458 280 Z"/></g><g transform="translate(-46,-14) scale(1,1)"><path fill="none" stroke="#000000" d="M 458 280 L 652.84814453125 280 Q 662.84814453125 280 662.84814453125 290 L 662.84814453125 323 Q 662.84814453125 333 652.84814453125 333 L 458 333 Q 448 333 448 323 L 448 290 Q 448 280 458 280 Z" stroke-miterlimit="10"/></g><g transform="translate(-46,-14) scale(1,1)"><path fill="none" stroke="#000000" d="M 636.84814453125 320 C 636.84814453125 318.3431456 638.19129013125 317 639.84814453125 317 C 641.50499893125 317 642.84814453125 318.3431456 642.84814453125 320 C 642.84814453125 321.6568544 641.50499893125 323 639.84814453125 323 C 638.19129013125 323 636.84814453125 321.6568544 636.84814453125 320 Z" stroke-miterlimit="10"/></g><g transform="translate(-46,-14) scale(1,1)"><path fill="none" stroke="#000000" d="M 642.84814453125 320 L 648.84814453125 320" stroke-miterlimit="10"/></g><g transform="translate(-46,-14) scale(1,1)"><path fill="none" stroke="#000000" d="M 648.84814453125 320 C 648.84814453125 318.3431456 650.19129013125 317 651.84814453125 317 C 653.50499893125 317 654.84814453125 318.3431456 654.84814453125 320 C 654.84814453125 321.6568544 653.50499893125 323 651.84814453125 323 C 650.19129013125 323 648.84814453125 321.6568544 648.84814453125 320 Z" stroke-miterlimit="10"/></g><g transform="translate(-46,-14) scale(1,1)"><g><path fill="none" stroke="none"/><text fill="#000000" stroke="none" font-family="Arial" font-size="13px" font-style="normal" font-weight="normal" text-decoration="none" x="527.957763671875" y="297.5">«Estado»</text></g></g><g transform="translate(-46,-14) scale(1,1)"><g><path fill="none" stroke="none"/><text fill="#000000" stroke="none" font-family="Arial" font-size="13px" font-style="normal" font-weight="bold" text-decoration="none" x="460.755126953125" y="312.5">Desconfigurado: Desconfigurado</text></g></g><g transform="translate(-46,-14) scale(1,1)"><path fill="#C0C0C0" stroke="none" d="M 473 351 L 565.28271484375 351 Q 575.28271484375 351 575.28271484375 361 L 575.28271484375 394 Q 575.28271484375 404 565.28271484375 404 L 473 404 Q 463 404 463 394 L 463 361 Q 463 351 473 351 Z" opacity="0.2"/></g><g transform="translate(-46,-14) scale(1,1)"><path fill="#ffffff" stroke="none" d="M 466 344 L 558.28271484375 344 Q 568.28271484375 344 568.28271484375 354 L 568.28271484375 387 Q 568.28271484375 397 558.28271484375 397 L 466 397 Q 456 397 456 387 L 456 354 Q 456 344 466 344 Z"/></g><g transform="translate(-46,-14) scale(1,1)"><path fill="none" stroke="#000000" d="M 466 344 L 558.28271484375 344 Q 568.28271484375 344 568.28271484375 354 L 568.28271484375 387 Q 568.28271484375 397 558.28271484375 397 L 466 397 Q 456 397 456 387 L 456 354 Q 456 344 466 344 Z" stroke-miterlimit="10"/></g><g transform="translate(-46,-14) scale(1,1)"><path fill="none" stroke="#000000" d="M 542.28271484375 384 C 542.28271484375 382.3431456 543.62586044375 381 545.28271484375 381 C 546.93956924375 381 548.28271484375 382.3431456 548.28271484375 384 C 548.28271484375 385.6568544 546.93956924375 387 545.28271484375 387 C 543.62586044375 387 542.28271484375 385.6568544 542.28271484375 384 Z" stroke-miterlimit="10"/></g><g transform="translate(-46,-14) scale(1,1)"><path fill="none" stroke="#000000" d="M 548.28271484375 384 L 554.28271484375 384" stroke-miterlimit="10"/></g><g transform="translate(-46,-14) scale(1,1)"><path fill="none" stroke="#000000" d="M 554.28271484375 384 C 554.28271484375 382.3431456 555.62586044375 381 557.28271484375 381 C 558.93956924375 381 560.28271484375 382.3431456 560.28271484375 384 C 560.28271484375 385.6568544 558.93956924375 387 557.28271484375 387 C 555.62586044375 387 554.28271484375 385.6568544 554.28271484375 384 Z" stroke-miterlimit="10"/></g><g transform="translate(-46,-14) scale(1,1)"><g><path fill="none" stroke="none"/><text fill="#000000" stroke="none" font-family="Arial" font-size="13px" font-style="normal" font-weight="normal" text-decoration="none" x="484.675048828125" y="361.5">«Estado»</text></g></g><g transform="translate(-46,-14) scale(1,1)"><g><path fill="none" stroke="none"/><text fill="#000000" stroke="none" font-family="Arial" font-size="13px" font-style="normal" font-weight="bold" text-decoration="none" x="462.991455078125" y="376.5">Dañado: Dañado</text></g></g><g transform="translate(-46,-14) scale(1,1)"><path fill="none" stroke="#000000" d="M 576 216 L 363 216 M 363 216 A 8 8 0 0 0 355 224 L 355 288" stroke-miterlimit="10"/></g><g transform="translate(-46,-14) scale(1,1)"><path fill="none" stroke="#000000" d="M 350.790482243984 277.83732514237585 L 355 288 L 359.209517756016 277.83732514237585" stroke-miterlimit="10"/></g><g transform="translate(-46,-14) scale(1,1)"><g><path fill="none" stroke="none"/><text fill="#000000" stroke="none" font-family="Arial" font-size="13px" font-style="normal" font-weight="normal" text-decoration="none" x="366.5" y="212.5">Tipo de fallo</text></g></g><g transform="translate(-46,-14) scale(1,1)"><path fill="none" stroke="#000000" d="M 366 302 L 448 302" stroke-miterlimit="10"/></g><g transform="translate(-46,-14) scale(1,1)"><path fill="none" stroke="#000000" d="M 437.83732514237585 306.209517756016 L 448 302 L 437.83732514237585 297.790482243984" stroke-miterlimit="10"/></g><g transform="translate(-46,-14) scale(1,1)"><g><path fill="none" stroke="none"/><text fill="#000000" stroke="none" font-family="Arial" font-size="13px" font-style="normal" font-weight="normal" text-decoration="none" x="368.7626953125" y="293.5">FallaSofware</text></g></g><g transform="translate(-46,-14) scale(1,1)"><path fill="none" stroke="#000000" d="M 355 306 L 355 360 M 355 360 A 8 8 0 0 0 363 368 L 456 368" stroke-miterlimit="10"/></g><g transform="translate(-46,-14) scale(1,1)"><path fill="none" stroke="#000000" d="M 445.83732514237585 372.209517756016 L 456 368 L 445.83732514237585 363.790482243984" stroke-miterlimit="10"/></g><g transform="translate(-46,-14) scale(1,1)"><g><path fill="none" stroke="none"/><text fill="#000000" stroke="none" font-family="Arial" font-size="13px" font-style="normal" font-weight="normal" text-decoration="none" x="349.47998046875" y="397.5">FallaHardware</text></g></g><g transform="translate(-46,-14) scale(1,1)"><path fill="#C0C0C0" stroke="none" d="M 777 303 L 915.54443359375 303 Q 925.54443359375 303 925.54443359375 313 L 925.54443359375 346 Q 925.54443359375 356 915.54443359375 356 L 777 356 Q 767 356 767 346 L 767 313 Q 767 303 777 303 Z" opacity="0.2"/></g><g transform="translate(-46,-14) scale(1,1)"><path fill="#ffffff" stroke="none" d="M 770 296 L 908.54443359375 296 Q 918.54443359375 296 918.54443359375 306 L 918.54443359375 339 Q 918.54443359375 349 908.54443359375 349 L 770 349 Q 760 349 760 339 L 760 306 Q 760 296 770 296 Z"/></g><g transform="translate(-46,-14) scale(1,1)"><path fill="none" stroke="#000000" d="M 770 296 L 908.54443359375 296 Q 918.54443359375 296 918.54443359375 306 L 918.54443359375 339 Q 918.54443359375 349 908.54443359375 349 L 770 349 Q 760 349 760 339 L 760 306 Q 760 296 770 296 Z" stroke-miterlimit="10"/></g><g transform="translate(-46,-14) scale(1,1)"><path fill="none" stroke="#000000" d="M 892.54443359375 336 C 892.54443359375 334.3431456 893.88757919375 333 895.54443359375 333 C 897.20128799375 333 898.54443359375 334.3431456 898.54443359375 336 C 898.54443359375 337.6568544 897.20128799375 339 895.54443359375 339 C 893.88757919375 339 892.54443359375 337.6568544 892.54443359375 336 Z" stroke-miterlimit="10"/></g><g transform="translate(-46,-14) scale(1,1)"><path fill="none" stroke="#000000" d="M 898.54443359375 336 L 904.54443359375 336" stroke-miterlimit="10"/></g><g transform="translate(-46,-14) scale(1,1)"><path fill="none" stroke="#000000" d="M 904.54443359375 336 C 904.54443359375 334.3431456 905.88757919375 333 907.54443359375 333 C 909.20128799375 333 910.54443359375 334.3431456 910.54443359375 336 C 910.54443359375 337.6568544 909.20128799375 339 907.54443359375 339 C 905.88757919375 339 904.54443359375 337.6568544 904.54443359375 336 Z" stroke-miterlimit="10"/></g><g transform="translate(-46,-14) scale(1,1)"><g><path fill="none" stroke="none"/><text fill="#000000" stroke="none" font-family="Arial" font-size="13px" font-style="normal" font-weight="normal" text-decoration="none" x="811.805908203125" y="313.5">«Estado»</text></g></g><g transform="translate(-46,-14) scale(1,1)"><g><path fill="none" stroke="none"/><text fill="#000000" stroke="none" font-family="Arial" font-size="13px" font-style="normal" font-weight="bold" text-decoration="none" x="769.175048828125" y="328.5">Reparación: Reparación</text></g></g><g transform="translate(-46,-14) scale(1,1)"><path fill="#C0C0C0" stroke="none" d="M 705 431 L 830.53173828125 431 Q 840.53173828125 431 840.53173828125 441 L 840.53173828125 474 Q 840.53173828125 484 830.53173828125 484 L 705 484 Q 695 484 695 474 L 695 441 Q 695 431 705 431 Z" opacity="0.2"/></g><g transform="translate(-46,-14) scale(1,1)"><path fill="#ffffff" stroke="none" d="M 698 424 L 823.53173828125 424 Q 833.53173828125 424 833.53173828125 434 L 833.53173828125 467 Q 833.53173828125 477 823.53173828125 477 L 698 477 Q 688 477 688 467 L 688 434 Q 688 424 698 424 Z"/></g><g transform="translate(-46,-14) scale(1,1)"><path fill="none" stroke="#000000" d="M 698 424 L 823.53173828125 424 Q 833.53173828125 424 833.53173828125 434 L 833.53173828125 467 Q 833.53173828125 477 823.53173828125 477 L 698 477 Q 688 477 688 467 L 688 434 Q 688 424 698 424 Z" stroke-miterlimit="10"/></g><g transform="translate(-46,-14) scale(1,1)"><path fill="none" stroke="#000000" d="M 807.53173828125 464 C 807.53173828125 462.3431456 808.87488388125 461 810.53173828125 461 C 812.18859268125 461 813.53173828125 462.3431456 813.53173828125 464 C 813.53173828125 465.6568544 812.18859268125 467 810.53173828125 467 C 808.87488388125 467 807.53173828125 465.6568544 807.53173828125 464 Z" stroke-miterlimit="10"/></g><g transform="translate(-46,-14) scale(1,1)"><path fill="none" stroke="#000000" d="M 813.53173828125 464 L 819.53173828125 464" stroke-miterlimit="10"/></g><g transform="translate(-46,-14) scale(1,1)"><path fill="none" stroke="#000000" d="M 819.53173828125 464 C 819.53173828125 462.3431456 820.87488388125 461 822.53173828125 461 C 824.18859268125 461 825.53173828125 462.3431456 825.53173828125 464 C 825.53173828125 465.6568544 824.18859268125 467 822.53173828125 467 C 820.87488388125 467 819.53173828125 465.6568544 819.53173828125 464 Z" stroke-miterlimit="10"/></g><g transform="translate(-46,-14) scale(1,1)"><g><path fill="none" stroke="none"/><text fill="#000000" stroke="none" font-family="Arial" font-size="13px" font-style="normal" font-weight="normal" text-decoration="none" x="733.299560546875" y="441.5">«Estado»</text></g></g><g transform="translate(-46,-14) scale(1,1)"><g><path fill="none" stroke="none"/><text fill="#000000" stroke="none" font-family="Arial" font-size="13px" font-style="normal" font-weight="bold" text-decoration="none" x="697.175048828125" y="456.5">Operación: Operación</text></g></g><g transform="translate(-46,-14) scale(1,1)"><path fill="none" stroke="#000000" d="M 107 443 L 125 461" stroke-miterlimit="10"/></g><g transform="translate(-46,-14) scale(1,1)"><path fill="none" stroke="#000000" d="M 125 443 L 107 461" stroke-miterlimit="10"/></g><g transform="translate(-46,-14) scale(1,1)"><path fill="#C0C0C0" stroke="none" d="M 711 342 C 711 338.1340064 714.1340064 335 718 335 C 721.8659936 335 725 338.1340064 725 342 C 725 345.8659936 721.8659936 349 718 349 C 714.1340064 349 711 345.8659936 711 342 Z" opacity="0.2"/></g><g transform="translate(-46,-14) scale(1,1)"><path fill="#000000" stroke="none" d="M 704 335 C 704 331.1340064 707.1340064 328 711 328 C 714.8659936 328 718 331.1340064 718 335 C 718 338.8659936 714.8659936 342 711 342 C 707.1340064 342 704 338.8659936 704 335 Z"/></g><g transform="translate(-46,-14) scale(1,1)"><path fill="none" stroke="#000000" d="M 704 335 C 704 331.1340064 707.1340064 328 711 328 C 714.8659936 328 718 331.1340064 718 335 C 718 338.8659936 714.8659936 342 711 342 C 707.1340064 342 704 338.8659936 704 335 Z" stroke-miterlimit="10"/></g><g transform="translate(-46,-14) scale(1,1)"><path fill="none" stroke="#000000" d="M 568 365 L 703 365 M 703 365 A 8 8 0 0 0 711 357 L 711 342" stroke-miterlimit="10"/></g><g transform="translate(-46,-14) scale(1,1)"><path fill="none" stroke="#000000" d="M 715.209517756016 352.16267485762415 L 711 342 L 706.790482243984 352.16267485762415" stroke-miterlimit="10"/></g><g transform="translate(-46,-14) scale(1,1)"><g><path fill="none" stroke="none"/><text fill="#000000" stroke="none" font-family="Arial" font-size="13px" font-style="normal" font-weight="normal" text-decoration="none" x="630.5" y="388.5">RepararH</text></g></g><g transform="translate(-46,-14) scale(1,1)"><path fill="none" stroke="#000000" d="M 663 304 L 704 304 M 704 304 A 8 8 0 0 1 712 312 L 712 328" stroke-miterlimit="10"/></g><g transform="translate(-46,-14) scale(1,1)"><path fill="none" stroke="#000000" d="M 707.790482243984 317.83732514237585 L 712 328 L 716.209517756016 317.83732514237585" stroke-miterlimit="10"/></g><g transform="translate(-46,-14) scale(1,1)"><g><path fill="none" stroke="none"/><text fill="#000000" stroke="none" font-family="Arial" font-size="13px" font-style="normal" font-weight="normal" text-decoration="none" x="687.5" y="292.5">RepararS</text></g></g><g transform="translate(-46,-14) scale(1,1)"><path fill="none" stroke="#000000" d="M 718 334 L 760 334" stroke-miterlimit="10"/></g><g transform="translate(-46,-14) scale(1,1)"><path fill="none" stroke="#000000" d="M 749.8373251423759 338.209517756016 L 760 334 L 749.8373251423758 329.790482243984" stroke-miterlimit="10"/></g><g transform="translate(-46,-14) scale(1,1)"><path fill="none" stroke="#000000" d="M 832 349 L 832 408 M 832 408 A 8 8 0 0 1 824 416 L 328 416 M 328 416 A 8 8 0 0 1 320 408 L 320 173" stroke-miterlimit="10"/></g><g transform="translate(-46,-14) scale(1,1)"><path fill="none" stroke="#000000" d="M 324.209517756016 183.16267485762415 L 320 173 L 315.790482243984 183.16267485762415" stroke-miterlimit="10"/></g><g transform="translate(-46,-14) scale(1,1)"><g><path fill="none" stroke="none"/><text fill="#000000" stroke="none" font-family="Arial" font-size="13px" font-style="normal" font-weight="normal" text-decoration="none" x="546.5" y="437.5">Reparado</text></g></g><g transform="translate(-46,-14) scale(1,1)"><path fill="none" stroke="#000000" d="M 751 80 L 928 80 M 928 80 A 8 8 0 0 1 936 88 L 936 442 M 936 442 A 8 8 0 0 1 928 450 L 834 450" stroke-miterlimit="10"/></g><g transform="translate(-46,-14) scale(1,1)"><path fill="none" stroke="#000000" d="M 844.1626748576241 445.790482243984 L 834 450 L 844.1626748576241 454.209517756016" stroke-miterlimit="10"/></g><g transform="translate(-46,-14) scale(1,1)"><g><path fill="none" stroke="none"/><text fill="#000000" stroke="none" font-family="Arial" font-size="13px" font-style="normal" font-weight="normal" text-decoration="none" x="854.5" y="99.5">Actividad</text></g></g><g transform="translate(-46,-14) scale(1,1)"><path fill="#C0C0C0" stroke="none" d="M 281 462 C 281 458.1340064 284.1340064 455 288 455 C 291.8659936 455 295 458.1340064 295 462 C 295 465.8659936 291.8659936 469 288 469 C 284.1340064 469 281 465.8659936 281 462 Z" opacity="0.2"/></g><g transform="translate(-46,-14) scale(1,1)"><path fill="#000000" stroke="none" d="M 274 455 C 274 451.1340064 277.1340064 448 281 448 C 284.8659936 448 288 451.1340064 288 455 C 288 458.8659936 284.8659936 462 281 462 C 277.1340064 462 274 458.8659936 274 455 Z"/></g><g transform="translate(-46,-14) scale(1,1)"><path fill="none" stroke="#000000" d="M 274 455 C 274 451.1340064 277.1340064 448 281 448 C 284.8659936 448 288 451.1340064 288 455 C 288 458.8659936 284.8659936 462 281 462 C 277.1340064 462 274 458.8659936 274 455 Z" stroke-miterlimit="10"/></g><g transform="translate(-46,-14) scale(1,1)"><path fill="none" stroke="#000000" d="M 688 455 L 288 455" stroke-miterlimit="10"/></g><g transform="translate(-46,-14) scale(1,1)"><path fill="none" stroke="#000000" d="M 298.16267485762415 450.790482243984 L 288 455 L 298.16267485762415 459.209517756016" stroke-miterlimit="10"/></g><g transform="translate(-46,-14) scale(1,1)"><g><path fill="none" stroke="none"/><text fill="#000000" stroke="none" font-family="Arial" font-size="13px" font-style="normal" font-weight="normal" text-decoration="none" x="462.200439453125" y="476.5">Terminar</text></g></g><g transform="translate(-46,-14) scale(1,1)"><path fill="none" stroke="#000000" d="M 274 455 L 129 455" stroke-miterlimit="10"/></g><g transform="translate(-46,-14) scale(1,1)"><path fill="none" stroke="#000000" d="M 139.16267485762415 450.790482243984 L 129 455 L 139.16267485762415 459.209517756016" stroke-miterlimit="10"/></g><g transform="translate(-46,-14) scale(1,1)"><g><path fill="none" stroke="none"/><text fill="#000000" stroke="none" font-family="Arial" font-size="13px" font-style="normal" font-weight="normal" text-decoration="none" x="178.877685546875" y="476.5">Apagar</text></g></g><g transform="translate(-46,-14) scale(1,1)"><path fill="none" stroke="#000000" d="M 280 448 L 280 173" stroke-miterlimit="10"/></g><g transform="translate(-46,-14) scale(1,1)"><path fill="none" stroke="#000000" d="M 284.209517756016 183.16267485762415 L 280 173 L 275.790482243984 183.16267485762415" stroke-miterlimit="10"/></g><g transform="translate(-46,-14) scale(1,1)"><g><path fill="none" stroke="none"/><text fill="#000000" stroke="none" font-family="Arial" font-size="13px" font-style="normal" font-weight="normal" text-decoration="none" x="223.20361328125" y="307.5">Reiniciar</text></g></g></g></svg>