<svg version="1.1" xmlns="http://www.w3.org/2000/svg" xmlns:xlink="http://www.w3.org/1999/xlink" width="972" height="508"><defs/><g><text fill="#eeeeee" stroke="none" font-family="Arial" font-size="24px" font-style="normal" font-weight="normal" text-decoration="none" x="0" y="0">UNREGISTERED</text><text fill="#eeeeee" stroke="none" font-family="Arial" font-size="24px" font-style="normal" font-weight="normal" text-decoration="none" x="0" y="30">UNREGISTERED</text><text fill="#eeeeee" stroke="none" font-family="Arial" font-size="24px" font-style="normal" font-weight="normal" text-decoration="none" x="0" y="60">UNREGISTERED</text><text fill="#eeeeee" stroke="none" font-family="Arial" font-size="24px" font-style="normal" font-weight="normal" text-decoration="none" x="0" y="90">UNREGISTERED</text><text fill="#eeeeee" stroke="none" font-family="Arial" font-size="24px" font-style="normal" font-weight="normal" text-decoration="none" x="0" y="120">UNREGISTERED</text><text fill="#eeeeee" stroke="none" font-family="Arial" font-size="24px" font-style="normal" font-weight="normal" text-decoration="none" x="0" y="150">UNREGISTERED</text><text fill="#eeeeee" stroke="none" font-family="Arial" font-size="24px" font-style="normal" font-weight="normal" text-decoration="none" x="0" y="180">UNREGISTERED</text><text fill="#eeeeee" stroke="none" font-family="Arial" font-size="24px" font-style="normal" font-weight="normal" text-decoration="none" x="0" y="210">UNREGISTERED</text><text fill="#eeeeee" stroke="none" font-family="Arial" font-size="24px" font-style="normal" font-weight="normal" text-decoration="none" x="0" y="240">UNREGISTERED</text><text fill="#eeeeee" stroke="none" font-family="Arial" font-size="24px" font-style="normal" font-weight="normal" text-decoration="none" x="0" y="270">UNREGISTERED</text><text fill="#eeeeee" stroke="none" font-family="Arial" font-size="24px" font-style="normal" font-weight="normal" text-decoration="none" x="0" y="300">UNREGISTERED</text><text fill="#eeeeee" stroke="none" font-family="Arial" font-size="24px" font-style="normal" font-weight="normal" text-decoration="none" x="0" y="330">UNREGISTERED</text><text fill="#eeeeee" stroke="none" font-family="Arial" font-size="24px" font-style="normal" font-weight="normal" text-decoration="none" x="0" y="360">UNREGISTERED</text><text fill="#eeeeee" stroke="none" font-family="Arial" font-size="24px" font-style="normal" font-weight="normal" text-decoration="none" x="0" y="390">UNREGISTERED</text><text fill="#eeeeee" stroke="none" font-family="Arial" font-size="24px" font-style="normal" font-weight="normal" text-decoration="none" x="0" y="420">UNREGISTERED</text><text fill="#eeeeee" stroke="none" font-family="Arial" font-size="24px" font-style="normal" font-weight="normal" text-decoration="none" x="0" y="450">UNREGISTERED</text><text fill="#eeeeee" stroke="none" font-family="Arial" font-size="24px" font-style="normal" font-weight="normal" text-decoration="none" x="0" y="480">UNREGISTERED</text><text fill="#eeeeee" stroke="none" font-family="Arial" font-size="24px" font-style="normal" font-weight="normal" text-decoration="none" x="200" y="0">UNREGISTERED</text><text fill="#eeeeee" stroke="none" font-family="Arial" font-size="24px" font-style="normal" font-weight="normal" text-decoration="none" x="200" y="30">UNREGISTERED</text><text fill="#eeeeee" stroke="none" font-family="Arial" font-size="24px" font-style="normal" font-weight="normal" text-decoration="none" x="200" y="60">UNREGISTERED</text><text fill="#eeeeee" stroke="none" font-family="Arial" font-size="24px" font-style="normal" font-weight="normal" text-decoration="none" x="200" y="90">UNREGISTERED</text><text fill="#eeeeee" stroke="none" font-family="Arial" font-size="24px" font-style="normal" font-weight="normal" text-decoration="none" x="200" y="120">UNREGISTERED</text><text fill="#eeeeee" stroke="none" font-family="Arial" font-size="24px" font-style="normal" font-weight="normal" text-decoration="none" x="200" y="150">UNREGISTERED</text><text fill="#eeeeee" stroke="none" font-family="Arial" font-size="24px" font-style="normal" font-weight="normal" text-decoration="none" x="200" y="180">UNREGISTERED</text><text fill="#eeeeee" stroke="none" font-family="Arial" font-size="24px" font-style="normal" font-weight="normal" text-decoration="none" x="200" y="210">UNREGISTERED</text><text fill="#eeeeee" stroke="none" font-family="Arial" font-size="24px" font-style="normal" font-weight="normal" text-decoration="none" x="200" y="240">UNREGISTERED</text><text fill="#eeeeee" stroke="none" font-family="Arial" font-size="24px" font-style="normal" font-weight="normal" text-decoration="none" x="200" y="270">UNREGISTERED</text><text fill="#eeeeee" stroke="none" font-family="Arial" font-size="24px" font-style="normal" font-weight="normal" text-decoration="none" x="200" y="300">UNREGISTERED</text><text fill="#eeeeee" stroke="none" font-family="Arial" font-size="24px" font-style="normal" font-weight="normal" text-decoration="none" x="200" y="330">UNREGISTERED</text><text fill="#eeeeee" stroke="none" font-family="Arial" font-size="24px" font-style="normal" font-weight="normal" text-decoration="none" x="200" y="360">UNREGISTERED</text><text fill="#eeeeee" stroke="none" font-family="Arial" font-size="24px" font-style="normal" font-weight="normal" text-decoration="none" x="200" y="390">UNREGISTERED</text><text fill="#eeeeee" stroke="none" font-family="Arial" font-size="24px" font-style="normal" font-weight="normal" text-decoration="none" x="200" y="420">UNREGISTERED</text><text fill="#eeeeee" stroke="none" font-family="Arial" font-size="24px" font-style="normal" font-weight="normal" text-decoration="none" x="200" y="450">UNREGISTERED</text><text fill="#eeeeee" stroke="none" font-family="Arial" font-size="24px" font-style="normal" font-weight="normal" text-decoration="none" x="200" y="480">UNREGISTERED</text><text fill="#eeeeee" stroke="none" font-family="Arial" font-size="24px" font-style="normal" font-weight="normal" text-decoration="none" x="400" y="0">UNREGISTERED</text><text fill="#eeeeee" stroke="none" font-family="Arial" font-size="24px" font-style="normal" font-weight="normal" text-decoration="none" x="400" y="30">UNREGISTERED</text><text fill="#eeeeee" stroke="none" font-family="Arial" font-size="24px" font-style="normal" font-weight="normal" text-decoration="none" x="400" y="60">UNREGISTERED</text><text fill="#eeeeee" stroke="none" font-family="Arial" font-size="24px" font-style="normal" font-weight="normal" text-decoration="none" x="400" y="90">UNREGISTERED</text><text fill="#eeeeee" stroke="none" font-family="Arial" font-size="24px" font-style="normal" font-weight="normal" text-decoration="none" x="400" y="120">UNREGISTERED</text><text fill="#eeeeee" stroke="none" font-family="Arial" font-size="24px" font-style="normal" font-weight="normal" text-decoration="none" x="400" y="150">UNREGISTERED</text><text fill="#eeeeee" stroke="none" font-family="Arial" font-size="24px" font-style="normal" font-weight="normal" text-decoration="none" x="400" y="180">UNREGISTERED</text><text fill="#eeeeee" stroke="none" font-family="Arial" font-size="24px" font-style="normal" font-weight="normal" text-decoration="none" x="400" y="210">UNREGISTERED</text><text fill="#eeeeee" stroke="none" font-family="Arial" font-size="24px" font-style="normal" font-weight="normal" text-decoration="none" x="400" y="240">UNREGISTERED</text><text fill="#eeeeee" stroke="none" font-family="Arial" font-size="24px" font-style="normal" font-weight="normal" text-decoration="none" x="400" y="270">UNREGISTERED</text><text fill="#eeeeee" stroke="none" font-family="Arial" font-size="24px" font-style="normal" font-weight="normal" text-decoration="none" x="400" y="300">UNREGISTERED</text><text fill="#eeeeee" stroke="none" font-family="Arial" font-size="24px" font-style="normal" font-weight="normal" text-decoration="none" x="400" y="330">UNREGISTERED</text><text fill="#eeeeee" stroke="none" font-family="Arial" font-size="24px" font-style="normal" font-weight="normal" text-decoration="none" x="400" y="360">UNREGISTERED</text><text fill="#eeeeee" stroke="none" font-family="Arial" font-size="24px" font-style="normal" font-weight="normal" text-decoration="none" x="400" y="390">UNREGISTERED</text><text fill="#eeeeee" stroke="none" font-family="Arial" font-size="24px" font-style="normal" font-weight="normal" text-decoration="none" x="400" y="420">UNREGISTERED</text><text fill="#eeeeee" stroke="none" font-family="Arial" font-size="24px" font-style="normal" font-weight="normal" text-decoration="none" x="400" y="450">UNREGISTERED</text><text fill="#eeeeee" stroke="none" font-family="Arial" font-size="24px" font-style="normal" font-weight="normal" text-decoration="none" x="400" y="480">UNREGISTERED</text><text fill="#eeeeee" stroke="none" font-family="Arial" font-size="24px" font-style="normal" font-weight="normal" text-decoration="none" x="600" y="0">UNREGISTERED</text><text fill="#eeeeee" stroke="none" font-family="Arial" font-size="24px" font-style="normal" font-weight="normal" text-decoration="none" x="600" y="30">UNREGISTERED</text><text fill="#eeeeee" stroke="none" font-family="Arial" font-size="24px" font-style="normal" font-weight="normal" text-decoration="none" x="600" y="60">UNREGISTERED</text><text fill="#eeeeee" stroke="none" font-family="Arial" font-size="24px" font-style="normal" font-weight="normal" text-decoration="none" x="600" y="90">UNREGISTERED</text><text fill="#eeeeee" stroke="none" font-family="Arial" font-size="24px" font-style="normal" font-weight="normal" text-decoration="none" x="600" y="120">UNREGISTERED</text><text fill="#eeeeee" stroke="none" font-family="Arial" font-size="24px" font-style="normal" font-weight="normal" text-decoration="none" x="600" y="150">UNREGISTERED</text><text fill="#eeeeee" stroke="none" font-family="Arial" font-size="24px" font-style="normal" font-weight="normal" text-decoration="none" x="600" y="180">UNREGISTERED</text><text fill="#eeeeee" stroke="none" font-family="Arial" font-size="24px" font-style="normal" font-weight="normal" text-decoration="none" x="600" y="210">UNREGISTERED</text><text fill="#eeeeee" stroke="none" font-family="Arial" font-size="24px" font-style="normal" font-weight="normal" text-decoration="none" x="600" y="240">UNREGISTERED</text><text fill="#eeeeee" stroke="none" font-family="Arial" font-size="24px" font-style="normal" font-weight="normal" text-decoration="none" x="600" y="270">UNREGISTERED</text><text fill="#eeeeee" stroke="none" font-family="Arial" font-size="24px" font-style="normal" font-weight="normal" text-decoration="none" x="600" y="300">UNREGISTERED</text><text fill="#eeeeee" stroke="none" font-family="Arial" font-size="24px" font-style="normal" font-weight="normal" text-decoration="none" x="600" y="330">UNREGISTERED</text><text fill="#eeeeee" stroke="none" font-family="Arial" font-size="24px" font-style="normal" font-weight="normal" text-decoration="none" x="600" y="360">UNREGISTERED</text><text fill="#eeeeee" stroke="none" font-family="Arial" font-size="24px" font-style="normal" font-weight="normal" text-decoration="none" x="600" y="390">UNREGISTERED</text><text fill="#eeeeee" stroke="none" font-family="Arial" font-size="24px" font-style="normal" font-weight="normal" text-decoration="none" x="600" y="420">UNREGISTERED</text><text fill="#eeeeee" stroke="none" font-family="Arial" font-size="24px" font-style="normal" font-weight="normal" text-decoration="none" x="600" y="450">UNREGISTERED</text><text fill="#eeeeee" stroke="none" font-family="Arial" font-size="24px" font-style="normal" font-weight="normal" text-decoration="none" x="600" y="480">UNREGISTERED</text><text fill="#eeeeee" stroke="none" font-family="Arial" font-size="24px" font-style="normal" font-weight="normal" text-decoration="none" x="800" y="0">UNREGISTERED</text><text fill="#eeeeee" stroke="none" font-family="Arial" font-size="24px" font-style="normal" font-weight="normal" text-decoration="none" x="800" y="30">UNREGISTERED</text><text fill="#eeeeee" stroke="none" font-family="Arial" font-size="24px" font-style="normal" font-weight="normal" text-decoration="none" x="800" y="60">UNREGISTERED</text><text fill="#eeeeee" stroke="none" font-family="Arial" font-size="24px" font-style="normal" font-weight="normal" text-decoration="none" x="800" y="90">UNREGISTERED</text><text fill="#eeeeee" stroke="none" font-family="Arial" font-size="24px" font-style="normal" font-weight="normal" text-decoration="none" x="800" y="120">UNREGISTERED</text><text fill="#eeeeee" stroke="none" font-family="Arial" font-size="24px" font-style="normal" font-weight="normal" text-decoration="none" x="800" y="150">UNREGISTERED</text><text fill="#eeeeee" stroke="none" font-family="Arial" font-size="24px" font-style="normal" font-weight="normal" text-decoration="none" x="800" y="180">UNREGISTERED</text><text fill="#eeeeee" stroke="none" font-family="Arial" font-size="24px" font-style="normal" font-weight="normal" text-decoration="none" x="800" y="210">UNREGISTERED</text><text fill="#eeeeee" stroke="none" font-family="Arial" font-size="24px" font-style="normal" font-weight="normal" text-decoration="none" x="800" y="240">UNREGISTERED</text><text fill="#eeeeee" stroke="none" font-family="Arial" font-size="24px" font-style="normal" font-weight="normal" text-decoration="none" x="800" y="270">UNREGISTERED</text><text fill="#eeeeee" stroke="none" font-family="Arial" font-size="24px" font-style="normal" font-weight="normal" text-decoration="none" x="800" y="300">UNREGISTERED</text><text fill="#eeeeee" stroke="none" font-family="Arial" font-size="24px" font-style="normal" font-weight="normal" text-decoration="none" x="800" y="330">UNREGISTERED</text><text fill="#eeeeee" stroke="none" font-family="Arial" font-size="24px" font-style="normal" font-weight="normal" text-decoration="none" x="800" y="360">UNREGISTERED</text><text fill="#eeeeee" stroke="none" font-family="Arial" font-size="24px" font-style="normal" font-weight="normal" text-decoration="none" x="800" y="390">UNREGISTERED</text><text fill="#eeeeee" stroke="none" font-family="Arial" font-size="24px" font-style="normal" font-weight="normal" text-decoration="none" x="800" y="420">UNREGISTERED</text><text fill="#eeeeee" stroke="none" font-family="Arial" font-size="24px" font-style="normal" font-weight="normal" text-decoration="none" x="800" y="450">UNREGISTERED</text><text fill="#eeeeee" stroke="none" font-family="Arial" font-size="24px" font-style="normal" font-weight="normal" text-decoration="none" x="800" y="480">UNREGISTERED</text><g transform="translate(-126,10) scale(1,1)"><path fill="none" stroke="#000000" d="M 136 0 L 1088 0 L 1088 488 L 136 488 L 136 0" stroke-miterlimit="10"/></g><g transform="translate(-126,10) scale(1,1)"><path fill="#ffffff" stroke="none" d="M 136 0 L 136 22 L 230.05078125 22 L 241.05078125 11 L 241.05078125 0 L 136 0"/></g><g transform="translate(-126,10) scale(1,1)"><path fill="none" stroke="#000000" d="M 136 0 L 136 22 L 230.05078125 22 L 241.05078125 11 L 241.05078125 0 L 136 0 L 136 0" stroke-miterlimit="10"/></g><g transform="translate(-126,10) scale(1,1)"><g><path fill="none" stroke="none"/><text fill="#000000" stroke="none" font-family="Arial" font-size="13px" font-style="normal" font-weight="normal" text-decoration="none" x="176.6181640625" y="17.5">Paquete</text></g></g><g transform="translate(-126,10) scale(1,1)"><g><path fill="none" stroke="none"/><text fill="#000000" stroke="none" font-family="Arial" font-size="13px" font-style="normal" font-weight="bold" text-decoration="none" x="141" y="17.5">class</text></g></g><g transform="translate(-126,10) scale(1,1)"><path fill="#C0C0C0" stroke="none" d="M 167 120.5 C 167 115.2532944 171.2532944 111 176.5 111 C 181.7467056 111 186 115.2532944 186 120.5 C 186 125.7467056 181.7467056 130 176.5 130 C 171.2532944 130 167 125.7467056 167 120.5 Z" opacity="0.2"/></g><g transform="translate(-126,10) scale(1,1)"><path fill="#000000" stroke="none" d="M 160 113.5 C 160 108.2532944 164.2532944 104 169.5 104 C 174.7467056 104 179 108.2532944 179 113.5 C 179 118.7467056 174.7467056 123 169.5 123 C 164.2532944 123 160 118.7467056 160 113.5 Z"/></g><g transform="translate(-126,10) scale(1,1)"><path fill="#C0C0C0" stroke="none" d="M 273 95 L 437.50634765625 95 Q 447.50634765625 95 447.50634765625 105 L 447.50634765625 138 Q 447.50634765625 148 437.50634765625 148 L 273 148 Q 263 148 263 138 L 263 105 Q 263 95 273 95 Z" opacity="0.2"/></g><g transform="translate(-126,10) scale(1,1)"><path fill="#ffffff" stroke="none" d="M 266 88 L 430.50634765625 88 Q 440.50634765625 88 440.50634765625 98 L 440.50634765625 131 Q 440.50634765625 141 430.50634765625 141 L 266 141 Q 256 141 256 131 L 256 98 Q 256 88 266 88 Z"/></g><g transform="translate(-126,10) scale(1,1)"><path fill="none" stroke="#000000" d="M 266 88 L 430.50634765625 88 Q 440.50634765625 88 440.50634765625 98 L 440.50634765625 131 Q 440.50634765625 141 430.50634765625 141 L 266 141 Q 256 141 256 131 L 256 98 Q 256 88 266 88 Z" stroke-miterlimit="10"/></g><g transform="translate(-126,10) scale(1,1)"><path fill="none" stroke="#000000" d="M 414.50634765625 128 C 414.50634765625 126.3431456 415.84949325625 125 417.50634765625 125 C 419.16320205625 125 420.50634765625 126.3431456 420.50634765625 128 C 420.50634765625 129.6568544 419.16320205625 131 417.50634765625 131 C 415.84949325625 131 414.50634765625 129.6568544 414.50634765625 128 Z" stroke-miterlimit="10"/></g><g transform="translate(-126,10) scale(1,1)"><path fill="none" stroke="#000000" d="M 420.50634765625 128 L 426.50634765625 128" stroke-miterlimit="10"/></g><g transform="translate(-126,10) scale(1,1)"><path fill="none" stroke="#000000" d="M 426.50634765625 128 C 426.50634765625 126.3431456 427.84949325625 125 429.50634765625 125 C 431.16320205625 125 432.50634765625 126.3431456 432.50634765625 128 C 432.50634765625 129.6568544 431.16320205625 131 429.50634765625 131 C 427.84949325625 131 426.50634765625 129.6568544 426.50634765625 128 Z" stroke-miterlimit="10"/></g><g transform="translate(-126,10) scale(1,1)"><g><path fill="none" stroke="none"/><text fill="#000000" stroke="none" font-family="Arial" font-size="13px" font-style="normal" font-weight="normal" text-decoration="none" x="320.786865234375" y="105.5">«Estado»</text></g></g><g transform="translate(-126,10) scale(1,1)"><g><path fill="none" stroke="none"/><text fill="#000000" stroke="none" font-family="Arial" font-size="13px" font-style="normal" font-weight="bold" text-decoration="none" x="268.774169921875" y="120.5">Construcción: Construcción</text></g></g><g transform="translate(-126,10) scale(1,1)"><path fill="none" stroke="#000000" d="M 179 112 L 256 112" stroke-miterlimit="10"/></g><g transform="translate(-126,10) scale(1,1)"><path fill="none" stroke="#000000" d="M 245.83732514237585 116.20951775601598 L 256 112 L 245.83732514237585 107.79048224398402" stroke-miterlimit="10"/></g><g transform="translate(-126,10) scale(1,1)"><g><path fill="none" stroke="none"/><text fill="#000000" stroke="none" font-family="Arial" font-size="13px" font-style="normal" font-weight="normal" text-decoration="none" x="185.5" y="103.5">Preparción</text></g></g><g transform="translate(-126,10) scale(1,1)"><path fill="#C0C0C0" stroke="none" d="M 817 95 L 915.07177734375 95 Q 925.07177734375 95 925.07177734375 105 L 925.07177734375 138 Q 925.07177734375 148 915.07177734375 148 L 817 148 Q 807 148 807 138 L 807 105 Q 807 95 817 95 Z" opacity="0.2"/></g><g transform="translate(-126,10) scale(1,1)"><path fill="#ffffff" stroke="none" d="M 810 88 L 908.07177734375 88 Q 918.07177734375 88 918.07177734375 98 L 918.07177734375 131 Q 918.07177734375 141 908.07177734375 141 L 810 141 Q 800 141 800 131 L 800 98 Q 800 88 810 88 Z"/></g><g transform="translate(-126,10) scale(1,1)"><path fill="none" stroke="#000000" d="M 810 88 L 908.07177734375 88 Q 918.07177734375 88 918.07177734375 98 L 918.07177734375 131 Q 918.07177734375 141 908.07177734375 141 L 810 141 Q 800 141 800 131 L 800 98 Q 800 88 810 88 Z" stroke-miterlimit="10"/></g><g transform="translate(-126,10) scale(1,1)"><path fill="none" stroke="#000000" d="M 892.07177734375 128 C 892.07177734375 126.3431456 893.41492294375 125 895.07177734375 125 C 896.72863174375 125 898.07177734375 126.3431456 898.07177734375 128 C 898.07177734375 129.6568544 896.72863174375 131 895.07177734375 131 C 893.41492294375 131 892.07177734375 129.6568544 892.07177734375 128 Z" stroke-miterlimit="10"/></g><g transform="translate(-126,10) scale(1,1)"><path fill="none" stroke="#000000" d="M 898.07177734375 128 L 904.07177734375 128" stroke-miterlimit="10"/></g><g transform="translate(-126,10) scale(1,1)"><path fill="none" stroke="#000000" d="M 904.07177734375 128 C 904.07177734375 126.3431456 905.41492294375 125 907.07177734375 125 C 908.72863174375 125 910.07177734375 126.3431456 910.07177734375 128 C 910.07177734375 129.6568544 908.72863174375 131 907.07177734375 131 C 905.41492294375 131 904.07177734375 129.6568544 904.07177734375 128 Z" stroke-miterlimit="10"/></g><g transform="translate(-126,10) scale(1,1)"><g><path fill="none" stroke="none"/><text fill="#000000" stroke="none" font-family="Arial" font-size="13px" font-style="normal" font-weight="normal" text-decoration="none" x="831.569580078125" y="105.5">«Estado»</text></g></g><g transform="translate(-126,10) scale(1,1)"><g><path fill="none" stroke="none"/><text fill="#000000" stroke="none" font-family="Arial" font-size="13px" font-style="normal" font-weight="bold" text-decoration="none" x="808.946533203125" y="120.5">Transito: Transito</text></g></g><g transform="translate(-126,10) scale(1,1)"><path fill="#C0C0C0" stroke="none" d="M 553 231 L 645.28271484375 231 Q 655.28271484375 231 655.28271484375 241 L 655.28271484375 274 Q 655.28271484375 284 645.28271484375 284 L 553 284 Q 543 284 543 274 L 543 241 Q 543 231 553 231 Z" opacity="0.2"/></g><g transform="translate(-126,10) scale(1,1)"><path fill="#ffffff" stroke="none" d="M 546 224 L 638.28271484375 224 Q 648.28271484375 224 648.28271484375 234 L 648.28271484375 267 Q 648.28271484375 277 638.28271484375 277 L 546 277 Q 536 277 536 267 L 536 234 Q 536 224 546 224 Z"/></g><g transform="translate(-126,10) scale(1,1)"><path fill="none" stroke="#000000" d="M 546 224 L 638.28271484375 224 Q 648.28271484375 224 648.28271484375 234 L 648.28271484375 267 Q 648.28271484375 277 638.28271484375 277 L 546 277 Q 536 277 536 267 L 536 234 Q 536 224 546 224 Z" stroke-miterlimit="10"/></g><g transform="translate(-126,10) scale(1,1)"><path fill="none" stroke="#000000" d="M 622.28271484375 264 C 622.28271484375 262.3431456 623.62586044375 261 625.28271484375 261 C 626.93956924375 261 628.28271484375 262.3431456 628.28271484375 264 C 628.28271484375 265.6568544 626.93956924375 267 625.28271484375 267 C 623.62586044375 267 622.28271484375 265.6568544 622.28271484375 264 Z" stroke-miterlimit="10"/></g><g transform="translate(-126,10) scale(1,1)"><path fill="none" stroke="#000000" d="M 628.28271484375 264 L 634.28271484375 264" stroke-miterlimit="10"/></g><g transform="translate(-126,10) scale(1,1)"><path fill="none" stroke="#000000" d="M 634.28271484375 264 C 634.28271484375 262.3431456 635.62586044375 261 637.28271484375 261 C 638.93956924375 261 640.28271484375 262.3431456 640.28271484375 264 C 640.28271484375 265.6568544 638.93956924375 267 637.28271484375 267 C 635.62586044375 267 634.28271484375 265.6568544 634.28271484375 264 Z" stroke-miterlimit="10"/></g><g transform="translate(-126,10) scale(1,1)"><g><path fill="none" stroke="none"/><text fill="#000000" stroke="none" font-family="Arial" font-size="13px" font-style="normal" font-weight="normal" text-decoration="none" x="564.675048828125" y="241.5">«Estado»</text></g></g><g transform="translate(-126,10) scale(1,1)"><g><path fill="none" stroke="none"/><text fill="#000000" stroke="none" font-family="Arial" font-size="13px" font-style="normal" font-weight="bold" text-decoration="none" x="542.991455078125" y="256.5">Dañado: Dañado</text></g></g><g transform="translate(-126,10) scale(1,1)"><path fill="#C0C0C0" stroke="none" d="M 801 327 L 935.21533203125 327 Q 945.21533203125 327 945.21533203125 337 L 945.21533203125 370 Q 945.21533203125 380 935.21533203125 380 L 801 380 Q 791 380 791 370 L 791 337 Q 791 327 801 327 Z" opacity="0.2"/></g><g transform="translate(-126,10) scale(1,1)"><path fill="#ffffff" stroke="none" d="M 794 320 L 928.21533203125 320 Q 938.21533203125 320 938.21533203125 330 L 938.21533203125 363 Q 938.21533203125 373 928.21533203125 373 L 794 373 Q 784 373 784 363 L 784 330 Q 784 320 794 320 Z"/></g><g transform="translate(-126,10) scale(1,1)"><path fill="none" stroke="#000000" d="M 794 320 L 928.21533203125 320 Q 938.21533203125 320 938.21533203125 330 L 938.21533203125 363 Q 938.21533203125 373 928.21533203125 373 L 794 373 Q 784 373 784 363 L 784 330 Q 784 320 794 320 Z" stroke-miterlimit="10"/></g><g transform="translate(-126,10) scale(1,1)"><path fill="none" stroke="#000000" d="M 912.21533203125 360 C 912.21533203125 358.3431456 913.55847763125 357 915.21533203125 357 C 916.87218643125 357 918.21533203125 358.3431456 918.21533203125 360 C 918.21533203125 361.6568544 916.87218643125 363 915.21533203125 363 C 913.55847763125 363 912.21533203125 361.6568544 912.21533203125 360 Z" stroke-miterlimit="10"/></g><g transform="translate(-126,10) scale(1,1)"><path fill="none" stroke="#000000" d="M 918.21533203125 360 L 924.21533203125 360" stroke-miterlimit="10"/></g><g transform="translate(-126,10) scale(1,1)"><path fill="none" stroke="#000000" d="M 924.21533203125 360 C 924.21533203125 358.3431456 925.55847763125 357 927.21533203125 357 C 928.87218643125 357 930.21533203125 358.3431456 930.21533203125 360 C 930.21533203125 361.6568544 928.87218643125 363 927.21533203125 363 C 925.55847763125 363 924.21533203125 361.6568544 924.21533203125 360 Z" stroke-miterlimit="10"/></g><g transform="translate(-126,10) scale(1,1)"><g><path fill="none" stroke="none"/><text fill="#000000" stroke="none" font-family="Arial" font-size="13px" font-style="normal" font-weight="normal" text-decoration="none" x="833.641357421875" y="337.5">«Estado»</text></g></g><g transform="translate(-126,10) scale(1,1)"><g><path fill="none" stroke="none"/><text fill="#000000" stroke="none" font-family="Arial" font-size="13px" font-style="normal" font-weight="bold" text-decoration="none" x="793.898681640625" y="352.5">Evaluación: Evaluación</text></g></g><g transform="translate(-126,10) scale(1,1)"><path fill="#C0C0C0" stroke="none" d="M 825 215 L 908.66259765625 215 Q 918.66259765625 215 918.66259765625 225 L 918.66259765625 258 Q 918.66259765625 268 908.66259765625 268 L 825 268 Q 815 268 815 258 L 815 225 Q 815 215 825 215 Z" opacity="0.2"/></g><g transform="translate(-126,10) scale(1,1)"><path fill="#ffffff" stroke="none" d="M 818 208 L 901.66259765625 208 Q 911.66259765625 208 911.66259765625 218 L 911.66259765625 251 Q 911.66259765625 261 901.66259765625 261 L 818 261 Q 808 261 808 251 L 808 218 Q 808 208 818 208 Z"/></g><g transform="translate(-126,10) scale(1,1)"><path fill="none" stroke="#000000" d="M 818 208 L 901.66259765625 208 Q 911.66259765625 208 911.66259765625 218 L 911.66259765625 251 Q 911.66259765625 261 901.66259765625 261 L 818 261 Q 808 261 808 251 L 808 218 Q 808 208 818 208 Z" stroke-miterlimit="10"/></g><g transform="translate(-126,10) scale(1,1)"><path fill="none" stroke="#000000" d="M 885.66259765625 248 C 885.66259765625 246.3431456 887.00574325625 245 888.66259765625 245 C 890.31945205625 245 891.66259765625 246.3431456 891.66259765625 248 C 891.66259765625 249.6568544 890.31945205625 251 888.66259765625 251 C 887.00574325625 251 885.66259765625 249.6568544 885.66259765625 248 Z" stroke-miterlimit="10"/></g><g transform="translate(-126,10) scale(1,1)"><path fill="none" stroke="#000000" d="M 891.66259765625 248 L 897.66259765625 248" stroke-miterlimit="10"/></g><g transform="translate(-126,10) scale(1,1)"><path fill="none" stroke="#000000" d="M 897.66259765625 248 C 897.66259765625 246.3431456 899.00574325625 245 900.66259765625 245 C 902.31945205625 245 903.66259765625 246.3431456 903.66259765625 248 C 903.66259765625 249.6568544 902.31945205625 251 900.66259765625 251 C 899.00574325625 251 897.66259765625 249.6568544 897.66259765625 248 Z" stroke-miterlimit="10"/></g><g transform="translate(-126,10) scale(1,1)"><g><path fill="none" stroke="none"/><text fill="#000000" stroke="none" font-family="Arial" font-size="13px" font-style="normal" font-weight="normal" text-decoration="none" x="832.364990234375" y="225.5">«Estado»</text></g></g><g transform="translate(-126,10) scale(1,1)"><g><path fill="none" stroke="none"/><text fill="#000000" stroke="none" font-family="Arial" font-size="13px" font-style="normal" font-weight="bold" text-decoration="none" x="815.029541015625" y="240.5">Espera: Espera</text></g></g><g transform="translate(-126,10) scale(1,1)"><path fill="#C0C0C0" stroke="none" d="M 545 95 L 670.54443359375 95 Q 680.54443359375 95 680.54443359375 105 L 680.54443359375 138 Q 680.54443359375 148 670.54443359375 148 L 545 148 Q 535 148 535 138 L 535 105 Q 535 95 545 95 Z" opacity="0.2"/></g><g transform="translate(-126,10) scale(1,1)"><path fill="#ffffff" stroke="none" d="M 538 88 L 663.54443359375 88 Q 673.54443359375 88 673.54443359375 98 L 673.54443359375 131 Q 673.54443359375 141 663.54443359375 141 L 538 141 Q 528 141 528 131 L 528 98 Q 528 88 538 88 Z"/></g><g transform="translate(-126,10) scale(1,1)"><path fill="none" stroke="#000000" d="M 538 88 L 663.54443359375 88 Q 673.54443359375 88 673.54443359375 98 L 673.54443359375 131 Q 673.54443359375 141 663.54443359375 141 L 538 141 Q 528 141 528 131 L 528 98 Q 528 88 538 88 Z" stroke-miterlimit="10"/></g><g transform="translate(-126,10) scale(1,1)"><path fill="none" stroke="#000000" d="M 647.54443359375 128 C 647.54443359375 126.3431456 648.88757919375 125 650.54443359375 125 C 652.20128799375 125 653.54443359375 126.3431456 653.54443359375 128 C 653.54443359375 129.6568544 652.20128799375 131 650.54443359375 131 C 648.88757919375 131 647.54443359375 129.6568544 647.54443359375 128 Z" stroke-miterlimit="10"/></g><g transform="translate(-126,10) scale(1,1)"><path fill="none" stroke="#000000" d="M 653.54443359375 128 L 659.54443359375 128" stroke-miterlimit="10"/></g><g transform="translate(-126,10) scale(1,1)"><path fill="none" stroke="#000000" d="M 659.54443359375 128 C 659.54443359375 126.3431456 660.88757919375 125 662.54443359375 125 C 664.20128799375 125 665.54443359375 126.3431456 665.54443359375 128 C 665.54443359375 129.6568544 664.20128799375 131 662.54443359375 131 C 660.88757919375 131 659.54443359375 129.6568544 659.54443359375 128 Z" stroke-miterlimit="10"/></g><g transform="translate(-126,10) scale(1,1)"><g><path fill="none" stroke="none"/><text fill="#000000" stroke="none" font-family="Arial" font-size="13px" font-style="normal" font-weight="normal" text-decoration="none" x="573.305908203125" y="105.5">«Estado»</text></g></g><g transform="translate(-126,10) scale(1,1)"><g><path fill="none" stroke="none"/><text fill="#000000" stroke="none" font-family="Arial" font-size="13px" font-style="normal" font-weight="bold" text-decoration="none" x="536.451416015625" y="120.5">Preparado: Preparado</text></g></g><g transform="translate(-126,10) scale(1,1)"><path fill="none" stroke="#000000" d="M 441 104 L 528 104" stroke-miterlimit="10"/></g><g transform="translate(-126,10) scale(1,1)"><path fill="none" stroke="#000000" d="M 517.8373251423759 108.20951775601598 L 528 104 L 517.8373251423758 99.79048224398402" stroke-miterlimit="10"/></g><g transform="translate(-126,10) scale(1,1)"><g><path fill="none" stroke="none"/><text fill="#000000" stroke="none" font-family="Arial" font-size="13px" font-style="normal" font-weight="normal" text-decoration="none" x="461.5" y="95.5">Colocar</text></g></g><g transform="translate(-126,10) scale(1,1)"><path fill="none" stroke="#000000" d="M 674 107 L 800 107" stroke-miterlimit="10"/></g><g transform="translate(-126,10) scale(1,1)"><path fill="none" stroke="#000000" d="M 789.8373251423759 111.20951775601598 L 800 107 L 789.8373251423758 102.79048224398402" stroke-miterlimit="10"/></g><g transform="translate(-126,10) scale(1,1)"><g><path fill="none" stroke="none"/><text fill="#000000" stroke="none" font-family="Arial" font-size="13px" font-style="normal" font-weight="normal" text-decoration="none" x="720.5" y="98.5">Envía</text></g></g><g transform="translate(-126,10) scale(1,1)"><path fill="none" stroke="#000000" d="M 856 141 L 856 208" stroke-miterlimit="10"/></g><g transform="translate(-126,10) scale(1,1)"><path fill="none" stroke="#000000" d="M 851.790482243984 197.83732514237585 L 856 208 L 860.209517756016 197.83732514237585" stroke-miterlimit="10"/></g><g transform="translate(-126,10) scale(1,1)"><g><path fill="none" stroke="none"/><text fill="#000000" stroke="none" font-family="Arial" font-size="13px" font-style="normal" font-weight="normal" text-decoration="none" x="866.5" y="180.5">LLegada</text></g></g><g transform="translate(-126,10) scale(1,1)"><path fill="none" stroke="#000000" d="M 861 261 L 861 320" stroke-miterlimit="10"/></g><g transform="translate(-126,10) scale(1,1)"><path fill="none" stroke="#000000" d="M 856.790482243984 309.83732514237585 L 861 320 L 865.209517756016 309.83732514237585" stroke-miterlimit="10"/></g><g transform="translate(-126,10) scale(1,1)"><g><path fill="none" stroke="none"/><text fill="#000000" stroke="none" font-family="Arial" font-size="13px" font-style="normal" font-weight="normal" text-decoration="none" x="870.5" y="299.5">Pasa</text></g></g><g transform="translate(-126,10) scale(1,1)"><path fill="#C0C0C0" stroke="none" d="M 679 352.5 L 690.5 343 L 701 352.5 L 690.5 361 L 679 352.5" opacity="0.2"/></g><g transform="translate(-126,10) scale(1,1)"><path fill="#ffffff" stroke="none" d="M 672 345 L 683 336 L 694 345 L 683 354 L 672 345"/></g><g transform="translate(-126,10) scale(1,1)"><path fill="none" stroke="#000000" d="M 672 345 L 683 336 L 694 345 L 683 354 L 672 345 L 672 345" stroke-miterlimit="10"/></g><g transform="translate(-126,10) scale(1,1)"><path fill="none" stroke="#000000" d="M 784 344 L 694 344" stroke-miterlimit="10"/></g><g transform="translate(-126,10) scale(1,1)"><path fill="none" stroke="#000000" d="M 704.1626748576241 339.790482243984 L 694 344 L 704.1626748576241 348.209517756016" stroke-miterlimit="10"/></g><g transform="translate(-126,10) scale(1,1)"><g><path fill="none" stroke="none"/><text fill="#000000" stroke="none" font-family="Arial" font-size="13px" font-style="normal" font-weight="normal" text-decoration="none" x="708.5" y="365.5">Resultado</text></g></g><g transform="translate(-126,10) scale(1,1)"><path fill="#C0C0C0" stroke="none" d="M 521 359 L 626.29541015625 359 Q 636.29541015625 359 636.29541015625 369 L 636.29541015625 402 Q 636.29541015625 412 626.29541015625 412 L 521 412 Q 511 412 511 402 L 511 369 Q 511 359 521 359 Z" opacity="0.2"/></g><g transform="translate(-126,10) scale(1,1)"><path fill="#ffffff" stroke="none" d="M 514 352 L 619.29541015625 352 Q 629.29541015625 352 629.29541015625 362 L 629.29541015625 395 Q 629.29541015625 405 619.29541015625 405 L 514 405 Q 504 405 504 395 L 504 362 Q 504 352 514 352 Z"/></g><g transform="translate(-126,10) scale(1,1)"><path fill="none" stroke="#000000" d="M 514 352 L 619.29541015625 352 Q 629.29541015625 352 629.29541015625 362 L 629.29541015625 395 Q 629.29541015625 405 619.29541015625 405 L 514 405 Q 504 405 504 395 L 504 362 Q 504 352 514 352 Z" stroke-miterlimit="10"/></g><g transform="translate(-126,10) scale(1,1)"><path fill="none" stroke="#000000" d="M 603.29541015625 392 C 603.29541015625 390.3431456 604.63855575625 389 606.29541015625 389 C 607.95226455625 389 609.29541015625 390.3431456 609.29541015625 392 C 609.29541015625 393.6568544 607.95226455625 395 606.29541015625 395 C 604.63855575625 395 603.29541015625 393.6568544 603.29541015625 392 Z" stroke-miterlimit="10"/></g><g transform="translate(-126,10) scale(1,1)"><path fill="none" stroke="#000000" d="M 609.29541015625 392 L 615.29541015625 392" stroke-miterlimit="10"/></g><g transform="translate(-126,10) scale(1,1)"><path fill="none" stroke="#000000" d="M 615.29541015625 392 C 615.29541015625 390.3431456 616.63855575625 389 618.29541015625 389 C 619.95226455625 389 621.29541015625 390.3431456 621.29541015625 392 C 621.29541015625 393.6568544 619.95226455625 395 618.29541015625 395 C 616.63855575625 395 615.29541015625 393.6568544 615.29541015625 392 Z" stroke-miterlimit="10"/></g><g transform="translate(-126,10) scale(1,1)"><g><path fill="none" stroke="none"/><text fill="#000000" stroke="none" font-family="Arial" font-size="13px" font-style="normal" font-weight="normal" text-decoration="none" x="539.181396484375" y="369.5">«Estado»</text></g></g><g transform="translate(-126,10) scale(1,1)"><g><path fill="none" stroke="none"/><text fill="#000000" stroke="none" font-family="Arial" font-size="13px" font-style="normal" font-weight="bold" text-decoration="none" x="513.187744140625" y="384.5">Correcto: Correcto</text></g></g><g transform="translate(-126,10) scale(1,1)"><path fill="#C0C0C0" stroke="none" d="M 161 239 L 308.20263671875 239 Q 318.20263671875 239 318.20263671875 249 L 318.20263671875 282 Q 318.20263671875 292 308.20263671875 292 L 161 292 Q 151 292 151 282 L 151 249 Q 151 239 161 239 Z" opacity="0.2"/></g><g transform="translate(-126,10) scale(1,1)"><path fill="#ffffff" stroke="none" d="M 154 232 L 301.20263671875 232 Q 311.20263671875 232 311.20263671875 242 L 311.20263671875 275 Q 311.20263671875 285 301.20263671875 285 L 154 285 Q 144 285 144 275 L 144 242 Q 144 232 154 232 Z"/></g><g transform="translate(-126,10) scale(1,1)"><path fill="none" stroke="#000000" d="M 154 232 L 301.20263671875 232 Q 311.20263671875 232 311.20263671875 242 L 311.20263671875 275 Q 311.20263671875 285 301.20263671875 285 L 154 285 Q 144 285 144 275 L 144 242 Q 144 232 154 232 Z" stroke-miterlimit="10"/></g><g transform="translate(-126,10) scale(1,1)"><path fill="none" stroke="#000000" d="M 285.20263671875 272 C 285.20263671875 270.3431456 286.54578231875 269 288.20263671875 269 C 289.85949111875 269 291.20263671875 270.3431456 291.20263671875 272 C 291.20263671875 273.6568544 289.85949111875 275 288.20263671875 275 C 286.54578231875 275 285.20263671875 273.6568544 285.20263671875 272 Z" stroke-miterlimit="10"/></g><g transform="translate(-126,10) scale(1,1)"><path fill="none" stroke="#000000" d="M 291.20263671875 272 L 297.20263671875 272" stroke-miterlimit="10"/></g><g transform="translate(-126,10) scale(1,1)"><path fill="none" stroke="#000000" d="M 297.20263671875 272 C 297.20263671875 270.3431456 298.54578231875 269 300.20263671875 269 C 301.85949111875 269 303.20263671875 270.3431456 303.20263671875 272 C 303.20263671875 273.6568544 301.85949111875 275 300.20263671875 275 C 298.54578231875 275 297.20263671875 273.6568544 297.20263671875 272 Z" stroke-miterlimit="10"/></g><g transform="translate(-126,10) scale(1,1)"><g><path fill="none" stroke="none"/><text fill="#000000" stroke="none" font-family="Arial" font-size="13px" font-style="normal" font-weight="normal" text-decoration="none" x="200.135009765625" y="249.5">«Estado»</text></g></g><g transform="translate(-126,10) scale(1,1)"><g><path fill="none" stroke="none"/><text fill="#000000" stroke="none" font-family="Arial" font-size="13px" font-style="normal" font-weight="bold" text-decoration="none" x="155.352294921875" y="264.5">Destrucción: Destrucción</text></g></g><g transform="translate(-126,10) scale(1,1)"><path fill="#C0C0C0" stroke="none" d="M 167 171.5 C 167 164.59644 172.59644 159 179.5 159 C 186.40356 159 192 164.59644 192 171.5 C 192 178.40356 186.40356 184 179.5 184 C 172.59644 184 167 178.40356 167 171.5 Z" opacity="0.2"/></g><g transform="translate(-126,10) scale(1,1)"><path fill="none" stroke="#000000" d="M 160 164.5 C 160 157.59644 165.59644 152 172.5 152 C 179.40356 152 185 157.59644 185 164.5 C 185 171.40356 179.40356 177 172.5 177 C 165.59644 177 160 171.40356 160 164.5 Z" stroke-miterlimit="10"/></g><g transform="translate(-126,10) scale(1,1)"><path fill="#000000" stroke="none" d="M 165 164.5 C 165 160.357864 168.357864 157 172.5 157 C 176.642136 157 180 160.357864 180 164.5 C 180 168.642136 176.642136 172 172.5 172 C 168.357864 172 165 168.642136 165 164.5 Z"/></g><g transform="translate(-126,10) scale(1,1)"><path fill="none" stroke="#000000" d="M 168 232 L 168 177" stroke-miterlimit="10"/></g><g transform="translate(-126,10) scale(1,1)"><path fill="none" stroke="#000000" d="M 172.209517756016 187.16267485762415 L 168 177 L 163.790482243984 187.16267485762415" stroke-miterlimit="10"/></g><g transform="translate(-126,10) scale(1,1)"><path fill="none" stroke="#000000" d="M 673 335 L 619 278" stroke-miterlimit="10"/></g><g transform="translate(-126,10) scale(1,1)"><path fill="none" stroke="#000000" d="M 629.0452359547176 282.4825477815691 L 619 278 L 622.9334145288594 288.27269439553993" stroke-miterlimit="10"/></g><g transform="translate(-126,10) scale(1,1)"><path fill="none" stroke="#000000" d="M 671 348 L 630 360" stroke-miterlimit="10"/></g><g transform="translate(-126,10) scale(1,1)"><path fill="none" stroke="#000000" d="M 638.5710509265886 353.1052856466837 L 630 360 L 640.9359475056601 361.1853489585118" stroke-miterlimit="10"/></g><g transform="translate(-126,10) scale(1,1)"><path fill="#C0C0C0" stroke="none" d="M 289 359 L 414.50634765625 359 Q 424.50634765625 359 424.50634765625 369 L 424.50634765625 402 Q 424.50634765625 412 414.50634765625 412 L 289 412 Q 279 412 279 402 L 279 369 Q 279 359 289 359 Z" opacity="0.2"/></g><g transform="translate(-126,10) scale(1,1)"><path fill="#ffffff" stroke="none" d="M 282 352 L 407.50634765625 352 Q 417.50634765625 352 417.50634765625 362 L 417.50634765625 395 Q 417.50634765625 405 407.50634765625 405 L 282 405 Q 272 405 272 395 L 272 362 Q 272 352 282 352 Z"/></g><g transform="translate(-126,10) scale(1,1)"><path fill="none" stroke="#000000" d="M 282 352 L 407.50634765625 352 Q 417.50634765625 352 417.50634765625 362 L 417.50634765625 395 Q 417.50634765625 405 407.50634765625 405 L 282 405 Q 272 405 272 395 L 272 362 Q 272 352 282 352 Z" stroke-miterlimit="10"/></g><g transform="translate(-126,10) scale(1,1)"><path fill="none" stroke="#000000" d="M 391.50634765625 392 C 391.50634765625 390.3431456 392.84949325625 389 394.50634765625 389 C 396.16320205625 389 397.50634765625 390.3431456 397.50634765625 392 C 397.50634765625 393.6568544 396.16320205625 395 394.50634765625 395 C 392.84949325625 395 391.50634765625 393.6568544 391.50634765625 392 Z" stroke-miterlimit="10"/></g><g transform="translate(-126,10) scale(1,1)"><path fill="none" stroke="#000000" d="M 397.50634765625 392 L 403.50634765625 392" stroke-miterlimit="10"/></g><g transform="translate(-126,10) scale(1,1)"><path fill="none" stroke="#000000" d="M 403.50634765625 392 C 403.50634765625 390.3431456 404.84949325625 389 406.50634765625 389 C 408.16320205625 389 409.50634765625 390.3431456 409.50634765625 392 C 409.50634765625 393.6568544 408.16320205625 395 406.50634765625 395 C 404.84949325625 395 403.50634765625 393.6568544 403.50634765625 392 Z" stroke-miterlimit="10"/></g><g transform="translate(-126,10) scale(1,1)"><g><path fill="none" stroke="none"/><text fill="#000000" stroke="none" font-family="Arial" font-size="13px" font-style="normal" font-weight="normal" text-decoration="none" x="317.286865234375" y="369.5">«Estado»</text></g></g><g transform="translate(-126,10) scale(1,1)"><g><path fill="none" stroke="none"/><text fill="#000000" stroke="none" font-family="Arial" font-size="13px" font-style="normal" font-weight="bold" text-decoration="none" x="281.149658203125" y="384.5">Entregado: Entregado</text></g></g><g transform="translate(-126,10) scale(1,1)"><path fill="none" stroke="#000000" d="M 504 375 L 418 375" stroke-miterlimit="10"/></g><g transform="translate(-126,10) scale(1,1)"><path fill="none" stroke="#000000" d="M 428.16267485762415 370.790482243984 L 418 375 L 428.16267485762415 379.209517756016" stroke-miterlimit="10"/></g><g transform="translate(-126,10) scale(1,1)"><g><path fill="none" stroke="none"/><text fill="#000000" stroke="none" font-family="Arial" font-size="13px" font-style="normal" font-weight="normal" text-decoration="none" x="433.5" y="396.5">Procesar</text></g></g><g transform="translate(-126,10) scale(1,1)"><path fill="#C0C0C0" stroke="none" d="M 218 319 L 217 319 Q 220 319 220 322 L 220 388 Q 220 391 217 391 L 218 391 Q 215 391 215 388 L 215 322 Q 215 319 218 319 Z" opacity="0.2"/></g><g transform="translate(-126,10) scale(1,1)"><path fill="#000000" stroke="none" d="M 211 312 L 211 312 Q 214 312 214 315 L 214 381 Q 214 384 211 384 L 211 384 Q 208 384 208 381 L 208 315 Q 208 312 211 312 Z"/></g><g transform="translate(-126,10) scale(1,1)"><path fill="none" stroke="#000000" d="M 272 369 L 213 369" stroke-miterlimit="10"/></g><g transform="translate(-126,10) scale(1,1)"><path fill="none" stroke="#000000" d="M 223.16267485762415 364.790482243984 L 213 369 L 223.16267485762415 373.209517756016" stroke-miterlimit="10"/></g><g transform="translate(-126,10) scale(1,1)"><g><path fill="none" stroke="none"/><text fill="#000000" stroke="none" font-family="Arial" font-size="13px" font-style="normal" font-weight="normal" text-decoration="none" x="222.5" y="390.5">Enviar</text></g></g><g transform="translate(-126,10) scale(1,1)"><path fill="none" stroke="#000000" d="M 592 277 L 592 328 M 592 328 A 8 8 0 0 1 584 336 L 213 336" stroke-miterlimit="10"/></g><g transform="translate(-126,10) scale(1,1)"><path fill="none" stroke="#000000" d="M 223.16267485762415 331.790482243984 L 213 336 L 223.16267485762415 340.209517756016" stroke-miterlimit="10"/></g><g transform="translate(-126,10) scale(1,1)"><g><path fill="none" stroke="none"/><text fill="#000000" stroke="none" font-family="Arial" font-size="13px" font-style="normal" font-weight="normal" text-decoration="none" x="489.5" y="323.5">Enviar</text></g></g><g transform="translate(-126,10) scale(1,1)"><path fill="none" stroke="#000000" d="M 208 352 L 184 352 M 184 352 A 8 8 0 0 1 176 344 L 176 285" stroke-miterlimit="10"/></g><g transform="translate(-126,10) scale(1,1)"><path fill="none" stroke="#000000" d="M 180.209517756016 295.16267485762415 L 176 285 L 171.790482243984 295.16267485762415" stroke-miterlimit="10"/></g></g></svg>