<svg version="1.1" xmlns="http://www.w3.org/2000/svg" xmlns:xlink="http://www.w3.org/1999/xlink" width="646.814453125" height="332"><defs/><g><text fill="#eeeeee" stroke="none" font-family="Arial" font-size="24px" font-style="normal" font-weight="normal" text-decoration="none" x="0" y="0">UNREGISTERED</text><text fill="#eeeeee" stroke="none" font-family="Arial" font-size="24px" font-style="normal" font-weight="normal" text-decoration="none" x="0" y="30">UNREGISTERED</text><text fill="#eeeeee" stroke="none" font-family="Arial" font-size="24px" font-style="normal" font-weight="normal" text-decoration="none" x="0" y="60">UNREGISTERED</text><text fill="#eeeeee" stroke="none" font-family="Arial" font-size="24px" font-style="normal" font-weight="normal" text-decoration="none" x="0" y="90">UNREGISTERED</text><text fill="#eeeeee" stroke="none" font-family="Arial" font-size="24px" font-style="normal" font-weight="normal" text-decoration="none" x="0" y="120">UNREGISTERED</text><text fill="#eeeeee" stroke="none" font-family="Arial" font-size="24px" font-style="normal" font-weight="normal" text-decoration="none" x="0" y="150">UNREGISTERED</text><text fill="#eeeeee" stroke="none" font-family="Arial" font-size="24px" font-style="normal" font-weight="normal" text-decoration="none" x="0" y="180">UNREGISTERED</text><text fill="#eeeeee" stroke="none" font-family="Arial" font-size="24px" font-style="normal" font-weight="normal" text-decoration="none" x="0" y="210">UNREGISTERED</text><text fill="#eeeeee" stroke="none" font-family="Arial" font-size="24px" font-style="normal" font-weight="normal" text-decoration="none" x="0" y="240">UNREGISTERED</text><text fill="#eeeeee" stroke="none" font-family="Arial" font-size="24px" font-style="normal" font-weight="normal" text-decoration="none" x="0" y="270">UNREGISTERED</text><text fill="#eeeeee" stroke="none" font-family="Arial" font-size="24px" font-style="normal" font-weight="normal" text-decoration="none" x="0" y="300">UNREGISTERED</text><text fill="#eeeeee" stroke="none" font-family="Arial" font-size="24px" font-style="normal" font-weight="normal" text-decoration="none" x="0" y="330">UNREGISTERED</text><text fill="#eeeeee" stroke="none" font-family="Arial" font-size="24px" font-style="normal" font-weight="normal" text-decoration="none" x="200" y="0">UNREGISTERED</text><text fill="#eeeeee" stroke="none" font-family="Arial" font-size="24px" font-style="normal" font-weight="normal" text-decoration="none" x="200" y="30">UNREGISTERED</text><text fill="#eeeeee" stroke="none" font-family="Arial" font-size="24px" font-style="normal" font-weight="normal" text-decoration="none" x="200" y="60">UNREGISTERED</text><text fill="#eeeeee" stroke="none" font-family="Arial" font-size="24px" font-style="normal" font-weight="normal" text-decoration="none" x="200" y="90">UNREGISTERED</text><text fill="#eeeeee" stroke="none" font-family="Arial" font-size="24px" font-style="normal" font-weight="normal" text-decoration="none" x="200" y="120">UNREGISTERED</text><text fill="#eeeeee" stroke="none" font-family="Arial" font-size="24px" font-style="normal" font-weight="normal" text-decoration="none" x="200" y="150">UNREGISTERED</text><text fill="#eeeeee" stroke="none" font-family="Arial" font-size="24px" font-style="normal" font-weight="normal" text-decoration="none" x="200" y="180">UNREGISTERED</text><text fill="#eeeeee" stroke="none" font-family="Arial" font-size="24px" font-style="normal" font-weight="normal" text-decoration="none" x="200" y="210">UNREGISTERED</text><text fill="#eeeeee" stroke="none" font-family="Arial" font-size="24px" font-style="normal" font-weight="normal" text-decoration="none" x="200" y="240">UNREGISTERED</text><text fill="#eeeeee" stroke="none" font-family="Arial" font-size="24px" font-style="normal" font-weight="normal" text-decoration="none" x="200" y="270">UNREGISTERED</text><text fill="#eeeeee" stroke="none" font-family="Arial" font-size="24px" font-style="normal" font-weight="normal" text-decoration="none" x="200" y="300">UNREGISTERED</text><text fill="#eeeeee" stroke="none" font-family="Arial" font-size="24px" font-style="normal" font-weight="normal" text-decoration="none" x="200" y="330">UNREGISTERED</text><text fill="#eeeeee" stroke="none" font-family="Arial" font-size="24px" font-style="normal" font-weight="normal" text-decoration="none" x="400" y="0">UNREGISTERED</text><text fill="#eeeeee" stroke="none" font-family="Arial" font-size="24px" font-style="normal" font-weight="normal" text-decoration="none" x="400" y="30">UNREGISTERED</text><text fill="#eeeeee" stroke="none" font-family="Arial" font-size="24px" font-style="normal" font-weight="normal" text-decoration="none" x="400" y="60">UNREGISTERED</text><text fill="#eeeeee" stroke="none" font-family="Arial" font-size="24px" font-style="normal" font-weight="normal" text-decoration="none" x="400" y="90">UNREGISTERED</text><text fill="#eeeeee" stroke="none" font-family="Arial" font-size="24px" font-style="normal" font-weight="normal" text-decoration="none" x="400" y="120">UNREGISTERED</text><text fill="#eeeeee" stroke="none" font-family="Arial" font-size="24px" font-style="normal" font-weight="normal" text-decoration="none" x="400" y="150">UNREGISTERED</text><text fill="#eeeeee" stroke="none" font-family="Arial" font-size="24px" font-style="normal" font-weight="normal" text-decoration="none" x="400" y="180">UNREGISTERED</text><text fill="#eeeeee" stroke="none" font-family="Arial" font-size="24px" font-style="normal" font-weight="normal" text-decoration="none" x="400" y="210">UNREGISTERED</text><text fill="#eeeeee" stroke="none" font-family="Arial" font-size="24px" font-style="normal" font-weight="normal" text-decoration="none" x="400" y="240">UNREGISTERED</text><text fill="#eeeeee" stroke="none" font-family="Arial" font-size="24px" font-style="normal" font-weight="normal" text-decoration="none" x="400" y="270">UNREGISTERED</text><text fill="#eeeeee" stroke="none" font-family="Arial" font-size="24px" font-style="normal" font-weight="normal" text-decoration="none" x="400" y="300">UNREGISTERED</text><text fill="#eeeeee" stroke="none" font-family="Arial" font-size="24px" font-style="normal" font-weight="normal" text-decoration="none" x="400" y="330">UNREGISTERED</text><text fill="#eeeeee" stroke="none" font-family="Arial" font-size="24px" font-style="normal" font-weight="normal" text-decoration="none" x="600" y="0">UNREGISTERED</text><text fill="#eeeeee" stroke="none" font-family="Arial" font-size="24px" font-style="normal" font-weight="normal" text-decoration="none" x="600" y="30">UNREGISTERED</text><text fill="#eeeeee" stroke="none" font-family="Arial" font-size="24px" font-style="normal" font-weight="normal" text-decoration="none" x="600" y="60">UNREGISTERED</text><text fill="#eeeeee" stroke="none" font-family="Arial" font-size="24px" font-style="normal" font-weight="normal" text-decoration="none" x="600" y="90">UNREGISTERED</text><text fill="#eeeeee" stroke="none" font-family="Arial" font-size="24px" font-style="normal" font-weight="normal" text-decoration="none" x="600" y="120">UNREGISTERED</text><text fill="#eeeeee" stroke="none" font-family="Arial" font-size="24px" font-style="normal" font-weight="normal" text-decoration="none" x="600" y="150">UNREGISTERED</text><text fill="#eeeeee" stroke="none" font-family="Arial" font-size="24px" font-style="normal" font-weight="normal" text-decoration="none" x="600" y="180">UNREGISTERED</text><text fill="#eeeeee" stroke="none" font-family="Arial" font-size="24px" font-style="normal" font-weight="normal" text-decoration="none" x="600" y="210">UNREGISTERED</text><text fill="#eeeeee" stroke="none" font-family="Arial" font-size="24px" font-style="normal" font-weight="normal" text-decoration="none" x="600" y="240">UNREGISTERED</text><text fill="#eeeeee" stroke="none" font-family="Arial" font-size="24px" font-style="normal" font-weight="normal" text-decoration="none" x="600" y="270">UNREGISTERED</text><text fill="#eeeeee" stroke="none" font-family="Arial" font-size="24px" font-style="normal" font-weight="normal" text-decoration="none" x="600" y="300">UNREGISTERED</text><text fill="#eeeeee" stroke="none" font-family="Arial" font-size="24px" font-style="normal" font-weight="normal" text-decoration="none" x="600" y="330">UNREGISTERED</text><g transform="translate(-54,-190) scale(1,1)"><rect fill="#C0C0C0" stroke="none" x="71" y="303" width="52.341796875" height="32" opacity="0.2"/></g><g transform="translate(-54,-190) scale(1,1)"><rect fill="#ffffff" stroke="none" x="64" y="296" width="52.341796875" height="32"/></g><g transform="translate(-54,-190) scale(1,1)"><path fill="none" stroke="#000000" d="M 64 296 L 116.341796875 296 L 116.341796875 328 L 64 328 L 64 296 Z Z" stroke-miterlimit="10"/></g><g transform="translate(-54,-190) scale(1,1)"><g><path fill="none" stroke="none"/><text fill="#000000" stroke="none" font-family="Arial" font-size="13px" font-style="normal" font-weight="bold" text-decoration="none" x="78.246826171875" y="313.5">Red</text></g></g><g transform="translate(-54,-190) scale(1,1)"><rect fill="#C0C0C0" stroke="none" x="151" y="487" width="59.57177734375" height="32" opacity="0.2"/></g><g transform="translate(-54,-190) scale(1,1)"><rect fill="#ffffff" stroke="none" x="144" y="480" width="59.57177734375" height="32"/></g><g transform="translate(-54,-190) scale(1,1)"><path fill="none" stroke="#000000" d="M 144 480 L 203.57177734375 480 L 203.57177734375 512 L 144 512 L 144 480 Z Z" stroke-miterlimit="10"/></g><g transform="translate(-54,-190) scale(1,1)"><g><path fill="none" stroke="none"/><text fill="#000000" stroke="none" font-family="Arial" font-size="13px" font-style="normal" font-weight="bold" text-decoration="none" x="149.569580078125" y="497.5">Paquete</text></g></g><g transform="translate(-54,-190) scale(1,1)"><rect fill="#C0C0C0" stroke="none" x="279" y="207" width="165.75537109375" height="32" opacity="0.2"/></g><g transform="translate(-54,-190) scale(1,1)"><rect fill="#ffffff" stroke="none" x="272" y="200" width="165.75537109375" height="32"/></g><g transform="translate(-54,-190) scale(1,1)"><path fill="none" stroke="#000000" d="M 272 200 L 437.75537109375 200 L 437.75537109375 232 L 272 232 L 272 200 Z Z" stroke-miterlimit="10"/></g><g transform="translate(-54,-190) scale(1,1)"><g><path fill="none" stroke="none"/><text fill="#000000" stroke="none" font-family="Arial" font-size="13px" font-style="normal" font-weight="bold" text-decoration="none" x="283.339599609375" y="217.5">Dispositivos de conexión</text></g></g><g transform="translate(-54,-190) scale(1,1)"><rect fill="#C0C0C0" stroke="none" x="535" y="343" width="157.83349609375" height="32" opacity="0.2"/></g><g transform="translate(-54,-190) scale(1,1)"><rect fill="#ffffff" stroke="none" x="528" y="336" width="157.83349609375" height="32"/></g><g transform="translate(-54,-190) scale(1,1)"><path fill="none" stroke="#000000" d="M 528 336 L 685.83349609375 336 L 685.83349609375 368 L 528 368 L 528 336 Z Z" stroke-miterlimit="10"/></g><g transform="translate(-54,-190) scale(1,1)"><g><path fill="none" stroke="none"/><text fill="#000000" stroke="none" font-family="Arial" font-size="13px" font-style="normal" font-weight="bold" text-decoration="none" x="539.364990234375" y="353.5">Dispositivos de servicio</text></g></g><g transform="translate(-54,-190) scale(1,1)"><rect fill="#C0C0C0" stroke="none" x="551" y="263" width="131.0908203125" height="32" opacity="0.2"/></g><g transform="translate(-54,-190) scale(1,1)"><rect fill="#ffffff" stroke="none" x="544" y="256" width="131.0908203125" height="32"/></g><g transform="translate(-54,-190) scale(1,1)"><path fill="none" stroke="#000000" d="M 544 256 L 675.0908203125 256 L 675.0908203125 288 L 544 288 L 544 256 Z Z" stroke-miterlimit="10"/></g><g transform="translate(-54,-190) scale(1,1)"><g><path fill="none" stroke="none"/><text fill="#000000" stroke="none" font-family="Arial" font-size="13px" font-style="normal" font-weight="bold" text-decoration="none" x="554.273193359375" y="273.5">Dispositivos finales</text></g></g><g transform="translate(-54,-190) scale(1,1)"><rect fill="#C0C0C0" stroke="none" x="527" y="439" width="170.814453125" height="32" opacity="0.2"/></g><g transform="translate(-54,-190) scale(1,1)"><rect fill="#ffffff" stroke="none" x="520" y="432" width="170.814453125" height="32"/></g><g transform="translate(-54,-190) scale(1,1)"><path fill="none" stroke="#000000" d="M 520 432 L 690.814453125 432 L 690.814453125 464 L 520 464 L 520 432 Z Z" stroke-miterlimit="10"/></g><g transform="translate(-54,-190) scale(1,1)"><g><path fill="none" stroke="none"/><text fill="#000000" stroke="none" font-family="Arial" font-size="13px" font-style="normal" font-weight="bold" text-decoration="none" x="531.339599609375" y="449.5">Dispositivos de seguridad</text></g></g><g transform="translate(-54,-190) scale(1,1)"><path fill="none" stroke="#000000" d="M 116 304 L 293 304 M 293 304 A 8 8 0 0 0 301 296 L 301 232" stroke-miterlimit="10"/></g><g transform="translate(-54,-190) scale(1,1)"><path fill="none" stroke="#000000" d="M 301 246 L 308 232" stroke-miterlimit="10"/></g><g transform="translate(-54,-190) scale(1,1)"><path fill="none" stroke="#000000" d="M 301 246 L 294 232" stroke-miterlimit="10"/></g><g transform="translate(-54,-190) scale(1,1)"><path fill="#FFFFFF" stroke="none" d="M 294 254 C 294 250.1340064 297.1340064 247 301 247 C 304.8659936 247 308 250.1340064 308 254 C 308 257.8659936 304.8659936 261 301 261 C 297.1340064 261 294 257.8659936 294 254 Z"/></g><g transform="translate(-54,-190) scale(1,1)"><path fill="none" stroke="#000000" d="M 294 254 C 294 250.1340064 297.1340064 247 301 247 C 304.8659936 247 308 250.1340064 308 254 C 308 257.8659936 304.8659936 261 301 261 C 297.1340064 261 294 257.8659936 294 254 Z" stroke-miterlimit="10"/></g><g transform="translate(-54,-190) scale(1,1)"><path fill="none" stroke="#000000" d="M 123 297 L 123 311" stroke-miterlimit="10"/></g><g transform="translate(-54,-190) scale(1,1)"><path fill="none" stroke="#000000" d="M 130 297 L 130 311" stroke-miterlimit="10"/></g><g transform="translate(-54,-190) scale(1,1)"><g><path fill="none" stroke="none"/><text fill="#000000" stroke="none" font-family="Arial" font-size="13px" font-style="normal" font-weight="normal" text-decoration="none" x="247.5" y="324.5">Extienden</text></g></g><g transform="translate(-54,-190) scale(1,1)"><g><path fill="none" stroke="none"/><text fill="#000000" stroke="none" font-family="Arial" font-size="13px" font-style="normal" font-weight="normal" text-decoration="none" x="140.5" y="295.5"></text></g></g><g transform="translate(-54,-190) scale(1,1)"><g><path fill="none" stroke="none"/><text fill="#000000" stroke="none" font-family="Arial" font-size="13px" font-style="normal" font-weight="normal" text-decoration="none" x="285.5" y="263.5"></text></g></g><g transform="translate(-54,-190) scale(1,1)"><path fill="none" stroke="#000000" d="M 97 328 L 97 472 M 97 472 A 8 8 0 0 0 105 480 L 144 480" stroke-miterlimit="10"/></g><g transform="translate(-54,-190) scale(1,1)"><path fill="none" stroke="#000000" d="M 130 480 L 144 487" stroke-miterlimit="10"/></g><g transform="translate(-54,-190) scale(1,1)"><path fill="none" stroke="#000000" d="M 130 480 L 144 473" stroke-miterlimit="10"/></g><g transform="translate(-54,-190) scale(1,1)"><path fill="#FFFFFF" stroke="none" d="M 115 480 C 115 476.1340064 118.1340064 473 122 473 C 125.8659936 473 129 476.1340064 129 480 C 129 483.8659936 125.8659936 487 122 487 C 118.1340064 487 115 483.8659936 115 480 Z"/></g><g transform="translate(-54,-190) scale(1,1)"><path fill="none" stroke="#000000" d="M 115 480 C 115 476.1340064 118.1340064 473 122 473 C 125.8659936 473 129 476.1340064 129 480 C 129 483.8659936 125.8659936 487 122 487 C 118.1340064 487 115 483.8659936 115 480 Z" stroke-miterlimit="10"/></g><g transform="translate(-54,-190) scale(1,1)"><path fill="none" stroke="#000000" d="M 104 335 L 90 335" stroke-miterlimit="10"/></g><g transform="translate(-54,-190) scale(1,1)"><path fill="none" stroke="#000000" d="M 104 342 L 90 342" stroke-miterlimit="10"/></g><g transform="translate(-54,-190) scale(1,1)"><g><path fill="none" stroke="none"/><text fill="#000000" stroke="none" font-family="Arial" font-size="13px" font-style="normal" font-weight="normal" text-decoration="none" x="102.5" y="379.5">Transporta</text></g></g><g transform="translate(-54,-190) scale(1,1)"><g><path fill="none" stroke="none"/><text fill="#000000" stroke="none" font-family="Arial" font-size="13px" font-style="normal" font-weight="normal" text-decoration="none" x="117.5" y="471.5"></text></g></g><g transform="translate(-54,-190) scale(1,1)"><path fill="none" stroke="#000000" d="M 384 232 L 384 328 M 384 328 A 8 8 0 0 0 392 336 L 528 336" stroke-miterlimit="10"/></g><g transform="translate(-54,-190) scale(1,1)"><path fill="none" stroke="#000000" d="M 514 336 L 528 343" stroke-miterlimit="10"/></g><g transform="translate(-54,-190) scale(1,1)"><path fill="none" stroke="#000000" d="M 514 336 L 528 329" stroke-miterlimit="10"/></g><g transform="translate(-54,-190) scale(1,1)"><path fill="#FFFFFF" stroke="none" d="M 499 336 C 499 332.1340064 502.1340064 329 506 329 C 509.8659936 329 513 332.1340064 513 336 C 513 339.8659936 509.8659936 343 506 343 C 502.1340064 343 499 339.8659936 499 336 Z"/></g><g transform="translate(-54,-190) scale(1,1)"><path fill="none" stroke="#000000" d="M 499 336 C 499 332.1340064 502.1340064 329 506 329 C 509.8659936 329 513 332.1340064 513 336 C 513 339.8659936 509.8659936 343 506 343 C 502.1340064 343 499 339.8659936 499 336 Z" stroke-miterlimit="10"/></g><g transform="translate(-54,-190) scale(1,1)"><path fill="none" stroke="#000000" d="M 384 246 L 391 232" stroke-miterlimit="10"/></g><g transform="translate(-54,-190) scale(1,1)"><path fill="none" stroke="#000000" d="M 384 246 L 377 232" stroke-miterlimit="10"/></g><g transform="translate(-54,-190) scale(1,1)"><path fill="#FFFFFF" stroke="none" d="M 377 254 C 377 250.1340064 380.1340064 247 384 247 C 387.8659936 247 391 250.1340064 391 254 C 391 257.8659936 387.8659936 261 384 261 C 380.1340064 261 377 257.8659936 377 254 Z"/></g><g transform="translate(-54,-190) scale(1,1)"><path fill="none" stroke="#000000" d="M 377 254 C 377 250.1340064 380.1340064 247 384 247 C 387.8659936 247 391 250.1340064 391 254 C 391 257.8659936 387.8659936 261 384 261 C 380.1340064 261 377 257.8659936 377 254 Z" stroke-miterlimit="10"/></g><g transform="translate(-54,-190) scale(1,1)"><g><path fill="none" stroke="none"/><text fill="#000000" stroke="none" font-family="Arial" font-size="13px" font-style="normal" font-weight="normal" text-decoration="none" x="398.5" y="355.5">Enlazan</text></g></g><g transform="translate(-54,-190) scale(1,1)"><g><path fill="none" stroke="none"/><text fill="#000000" stroke="none" font-family="Arial" font-size="13px" font-style="normal" font-weight="normal" text-decoration="none" x="398.5" y="263.5"></text></g></g><g transform="translate(-54,-190) scale(1,1)"><g><path fill="none" stroke="none"/><text fill="#000000" stroke="none" font-family="Arial" font-size="13px" font-style="normal" font-weight="normal" text-decoration="none" x="501.5" y="327.5"></text></g></g><g transform="translate(-54,-190) scale(1,1)"><path fill="none" stroke="#000000" d="M 352 232 L 352 424 M 352 424 A 8 8 0 0 0 360 432 L 520 432" stroke-miterlimit="10"/></g><g transform="translate(-54,-190) scale(1,1)"><path fill="none" stroke="#000000" d="M 506 432 L 520 439" stroke-miterlimit="10"/></g><g transform="translate(-54,-190) scale(1,1)"><path fill="none" stroke="#000000" d="M 506 432 L 520 425" stroke-miterlimit="10"/></g><g transform="translate(-54,-190) scale(1,1)"><path fill="#FFFFFF" stroke="none" d="M 491 432 C 491 428.1340064 494.1340064 425 498 425 C 501.8659936 425 505 428.1340064 505 432 C 505 435.8659936 501.8659936 439 498 439 C 494.1340064 439 491 435.8659936 491 432 Z"/></g><g transform="translate(-54,-190) scale(1,1)"><path fill="none" stroke="#000000" d="M 491 432 C 491 428.1340064 494.1340064 425 498 425 C 501.8659936 425 505 428.1340064 505 432 C 505 435.8659936 501.8659936 439 498 439 C 494.1340064 439 491 435.8659936 491 432 Z" stroke-miterlimit="10"/></g><g transform="translate(-54,-190) scale(1,1)"><path fill="none" stroke="#000000" d="M 352 246 L 359 232" stroke-miterlimit="10"/></g><g transform="translate(-54,-190) scale(1,1)"><path fill="none" stroke="#000000" d="M 352 246 L 345 232" stroke-miterlimit="10"/></g><g transform="translate(-54,-190) scale(1,1)"><path fill="#FFFFFF" stroke="none" d="M 345 254 C 345 250.1340064 348.1340064 247 352 247 C 355.8659936 247 359 250.1340064 359 254 C 359 257.8659936 355.8659936 261 352 261 C 348.1340064 261 345 257.8659936 345 254 Z"/></g><g transform="translate(-54,-190) scale(1,1)"><path fill="none" stroke="#000000" d="M 345 254 C 345 250.1340064 348.1340064 247 352 247 C 355.8659936 247 359 250.1340064 359 254 C 359 257.8659936 355.8659936 261 352 261 C 348.1340064 261 345 257.8659936 345 254 Z" stroke-miterlimit="10"/></g><g transform="translate(-54,-190) scale(1,1)"><g><path fill="none" stroke="none"/><text fill="#000000" stroke="none" font-family="Arial" font-size="13px" font-style="normal" font-weight="normal" text-decoration="none" x="363.5" y="451.5">Enlazan</text></g></g><g transform="translate(-54,-190) scale(1,1)"><g><path fill="none" stroke="none"/><text fill="#000000" stroke="none" font-family="Arial" font-size="13px" font-style="normal" font-weight="normal" text-decoration="none" x="366.5" y="263.5"></text></g></g><g transform="translate(-54,-190) scale(1,1)"><g><path fill="none" stroke="none"/><text fill="#000000" stroke="none" font-family="Arial" font-size="13px" font-style="normal" font-weight="normal" text-decoration="none" x="493.5" y="423.5"></text></g></g><g transform="translate(-54,-190) scale(1,1)"><path fill="none" stroke="#000000" d="M 427 232 L 427 250 M 427 250 A 8 8 0 0 0 435 258 L 544 258" stroke-miterlimit="10"/></g><g transform="translate(-54,-190) scale(1,1)"><path fill="none" stroke="#000000" d="M 530 258 L 544 265" stroke-miterlimit="10"/></g><g transform="translate(-54,-190) scale(1,1)"><path fill="none" stroke="#000000" d="M 530 258 L 544 251" stroke-miterlimit="10"/></g><g transform="translate(-54,-190) scale(1,1)"><path fill="#FFFFFF" stroke="none" d="M 515 258 C 515 254.1340064 518.1340064 251 522 251 C 525.8659936 251 529 254.1340064 529 258 C 529 261.8659936 525.8659936 265 522 265 C 518.1340064 265 515 261.8659936 515 258 Z"/></g><g transform="translate(-54,-190) scale(1,1)"><path fill="none" stroke="#000000" d="M 515 258 C 515 254.1340064 518.1340064 251 522 251 C 525.8659936 251 529 254.1340064 529 258 C 529 261.8659936 525.8659936 265 522 265 C 518.1340064 265 515 261.8659936 515 258 Z" stroke-miterlimit="10"/></g><g transform="translate(-54,-190) scale(1,1)"><path fill="none" stroke="#000000" d="M 427 246 L 434 232" stroke-miterlimit="10"/></g><g transform="translate(-54,-190) scale(1,1)"><path fill="none" stroke="#000000" d="M 427 246 L 420 232" stroke-miterlimit="10"/></g><g transform="translate(-54,-190) scale(1,1)"><path fill="#FFFFFF" stroke="none" d="M 420 254 C 420 250.1340064 423.1340064 247 427 247 C 430.8659936 247 434 250.1340064 434 254 C 434 257.8659936 430.8659936 261 427 261 C 423.1340064 261 420 257.8659936 420 254 Z"/></g><g transform="translate(-54,-190) scale(1,1)"><path fill="none" stroke="#000000" d="M 420 254 C 420 250.1340064 423.1340064 247 427 247 C 430.8659936 247 434 250.1340064 434 254 C 434 257.8659936 430.8659936 261 427 261 C 423.1340064 261 420 257.8659936 420 254 Z" stroke-miterlimit="10"/></g><g transform="translate(-54,-190) scale(1,1)"><g><path fill="none" stroke="none"/><text fill="#000000" stroke="none" font-family="Arial" font-size="13px" font-style="normal" font-weight="normal" text-decoration="none" x="446.5" y="249.5">Enlazan</text></g></g><g transform="translate(-54,-190) scale(1,1)"><g><path fill="none" stroke="none"/><text fill="#000000" stroke="none" font-family="Arial" font-size="13px" font-style="normal" font-weight="normal" text-decoration="none" x="441.5" y="263.5"></text></g></g><g transform="translate(-54,-190) scale(1,1)"><g><path fill="none" stroke="none"/><text fill="#000000" stroke="none" font-family="Arial" font-size="13px" font-style="normal" font-weight="normal" text-decoration="none" x="517.5" y="249.5"></text></g></g></g></svg>